<?xml version="1.0" standalone="no"?>
<!DOCTYPE svg PUBLIC "-//W3C//DTD SVG 1.1//EN" "http://www.w3.org/Graphics/SVG/1.1/DTD/svg11.dtd">
<svg xmlns="http://www.w3.org/2000/svg">
<defs >
<font id="CrimsonPro" horiz-adv-x="515" ><font-face
    font-family="Crimson Pro ExtraLight Light"
    units-per-em="1024"
    panose-1="0 0 0 0 0 0 0 0 0 0"
    ascent="918"
    descent="-220"
    alphabetic="0" />
<glyph unicode=" " horiz-adv-x="191" />
<glyph unicode="!" horiz-adv-x="258" d="M113 170L87 644Q87 664 93 675T108 692T129 698Q140 698 149 693T165 676T171 644L145 170H113ZM129 -10Q113 -10 101 -3T82 15T75 43Q75 58 82 69T101 87T129 94Q145 94 157 88T176 70T183 43Q183 21 168 6T129 -10Z" />
<glyph unicode="&quot;" horiz-adv-x="387" d="M109 698Q131 698 145 683T160 631Q160 617 157 595T147 549T135 500T125 457H94Q91 475 85 499T73 548T63 595T59 631Q59 667 73 682T109 698ZM276 698Q298 698 312 683T327 631Q327 617 324 595T314 549T302 500T292
457H261Q258 475 252 499T240 548T230 595T226 631Q226 667 240 682T276 698Z" />
<glyph unicode="#" horiz-adv-x="525" d="M268 0L391 587H437L313 0H268ZM31 173V218H476V173H31ZM88 0L212 587H257L134 0H88ZM50 369V414H495V369H50Z" />
<glyph unicode="$" horiz-adv-x="471" d="M228 -116V703H268V-116H228ZM224 -9Q179 -9 134 1T61 28L56 152L93 158L119 71Q145 55 174 46T237 36Q289 36 321 61T354 131Q354 167 333 191T278 233T206 267T135 306T80 359T58 437Q58 484 84 520T157 576T261 597Q288
597 312 595T356 587T393 574L400 456L363 453L336 532Q320 543 300 548T251 554Q197 554 165 529T133 460Q133 422 154 397T209 354T281 318T352 279T407 228T429 153Q429 107 403 71T330 13T224 -9Z" />
<glyph unicode="%" horiz-adv-x="746" d="M154 -13L115 23L590 601L630 566L154 -13ZM194 287Q149 287 113 306T56 361T35 441Q35 484 57 518T115 573T194 594Q239 594 274 575T331 521T352 441Q352 397 330 362T273 307T194 287ZM194 338Q235 338 264 367T293
442Q293 487 264 515T194 544Q152 544 125 516T97 442Q97 397 124 368T194 338ZM552 -6Q507 -6 471 13T414 67T393 147Q393 190 415 224T473 279T552 300Q598 300 633 281T690 227T711 147Q711 103 689 69T632 14T552 -6ZM552 45Q594 45 623 73T652 148Q652 193
623 222T552 251Q510 251 483 222T456 148Q456 103 483 74T552 45Z" />
<glyph unicode="&amp;" horiz-adv-x="695" d="M247 -7Q175 -7 129 14T61 71T39 145Q39 174 52 208T106 280T224 355Q282 383 318 412T371 472T388 536Q388 582 366 605T312 629Q273 629 246 599T218 511Q218 477 226 446T249 384T285 321T331 252Q383 179 428
133T516 65T599 43Q626 43 646 50T692 73L706 51Q682 22 649 8T573 -7Q524 -7 479 14T387 81T289 196Q246 256 215 304T167 398T150 498Q150 544 170 583T228 645T314 668Q373 668 412 636T451 546Q451 507 432 472T366 400T233 318Q166 281 141 245T116 165Q116
128 135 101T189 58T267 43Q319 43 362 64T441 138T512 281L442 292L444 326L647 327L648 293L578 281Q529 186 480 122T375 26T247 -7Z" />
<glyph unicode="&apos;" horiz-adv-x="219" d="M109 698Q131 698 145 683T160 631Q160 617 157 595T147 549T135 500T125 457H94Q91 475 85 499T73 548T63 595T59 631Q59 667 73 682T109 698Z" />
<glyph unicode="(" horiz-adv-x="352" d="M326 729L352 705Q266 619 223 503T179 250Q179 113 222 -3T352 -205L326 -229Q214 -133 158 -12T102 250Q102 391 158 513T326 729Z" />
<glyph unicode=")" horiz-adv-x="352" d="M25 729Q138 636 194 514T250 250Q250 109 194 -12T25 -229L0 -205Q86 -119 129 -3T173 250Q173 387 130 503T0 705L25 729Z" />
<glyph unicode="*" horiz-adv-x="422" d="M377 574Q381 562 374 551T347 533Q324 524 292 522T234 514Q253 494 278 473T319 429Q331 414 331 401T318 378Q308 370 295 374T271 392Q252 416 239 449T211 506Q198 483 184 450T152 392Q141 378 128 375T104 378Q94
385 93 399T103 429Q119 452 144 473T189 514Q163 519 131 522T75 533Q57 538 49 550T46 574Q51 587 63 592T93 590Q119 582 146 566T199 537Q197 563 189 596T181 658Q181 677 189 687T211 698Q224 698 233 688T242 658Q242 630 235 597T224 537Q248 548 276 565T329
590Q347 596 360 592T377 574Z" />
<glyph unicode="+" horiz-adv-x="540" d="M484 280V226H56V280H484ZM244 471H297V37H244V471Z" />
<glyph unicode="," horiz-adv-x="219" d="M41 -166L28 -141Q62 -125 83 -101T104 -42Q104 -28 100 -20T89 -4T76 9T64 25T59 49Q59 66 73 80T109 94Q124 94 138 85T160 59T168 15Q168 -21 151 -57T106 -123T41 -166Z" />
<glyph unicode="-" horiz-adv-x="367" d="M81 177V237L286 264V205L81 177Z" />
<glyph unicode="." horiz-adv-x="219" d="M109 -10Q86 -10 71 5T55 43Q55 58 62 69T81 87T109 94Q134 94 149 80T164 43Q164 20 149 5T109 -10Z" />
<glyph unicode="/" horiz-adv-x="352" d="M17 -180L318 728H375L74 -180H17Z" />
<glyph unicode="0" horiz-adv-x="568" d="M289 -9Q220 -9 167 29T86 134T57 292Q57 381 87 449T171 556T291 596Q356 596 406 559T484 454T512 297Q512 211 483 142T403 32T289 -9ZM293 34Q335 34 366 63T415 147T433 273Q433 403 393 478T284 553Q216 553 178
489T139 308Q139 226 158 164T212 68T293 34Z" />
<glyph unicode="1" horiz-adv-x="329" d="M205 190Q205 140 205 110T207 65T209 46L288 33L286 0H61L59 33L136 46Q137 52 137 71T139 120T140 190V405Q140 430 139 456T135 507L54 488L51 526L207 597Q206 571 206 531T205 420V190Z" />
<glyph unicode="2" horiz-adv-x="479" d="M51 -2L48 29Q146 116 203 181T285 300T310 408Q310 465 279 500T190 535Q104 535 51 454L28 471Q52 529 99 562T208 596Q261 596 301 575T365 515T388 426Q388 344 320 249T115 50L120 66H341Q348 66 357 67T370 70L404
157L438 153L419 -4Q404 -2 391 -2T363 -1T325 0H125Q106 0 88 0T51 -2Z" />
<glyph unicode="3" horiz-adv-x="483" d="M253 315L250 326Q330 322 377 283T424 177Q424 126 393 84T310 17T199 -9Q158 -9 128 0T80 25T63 62Q63 76 73 86T97 96Q113 96 124 91T155 70L214 20L162 34Q217 27 260 41T328 86T353 163Q353 218 317 251T220 284Q205
284 191 283T160 280L156 320Q235 329 273 360T312 444Q312 488 283 512T204 536Q169 536 137 521T80 474L56 491Q79 539 125 567T229 596Q298 596 340 560T382 466Q382 416 347 377T253 315Z" />
<glyph unicode="4" d="M374 170Q374 105 374 81T376 46L436 33L433 0H232L230 33L309 46Q310 56 310 80T310 170V511L334 510L102 206L103 227H464V170H49L43 200L349 591H376Q375 555 374 520T373 449L374 170Z" />
<glyph unicode="5" horiz-adv-x="478" d="M185 -9Q146 -9 116 0T69 25T52 62Q52 76 61 86T86 96Q103 96 113 91T141 70L203 20L151 34Q206 26 248 39T315 82T340 155Q340 198 321 225T249 270T100 302L135 587H386L379 516H174L153 322L127 362Q280 344 346 298T413
173Q413 122 381 81T297 15T185 -9Z" />
<glyph unicode="6" horiz-adv-x="510" d="M132 240Q155 287 196 313T284 340Q333 340 371 320T431 262T454 177Q454 127 429 85T360 17T265 -9Q206 -9 161 17T92 92T67 209Q67 285 91 350T160 468T267 555T405 605L418 565Q331 542 270 495T177 377T145 215Q145
160 160 119T203 56T272 34Q318 34 347 68T377 158Q377 213 345 248T259 283Q235 283 213 275T171 250T136 208L132 240Z" />
<glyph unicode="7" horiz-adv-x="465" d="M218 0H148V27L396 549V516H131Q121 516 112 516T98 513L63 428L30 433L56 591Q71 590 83 589T110 588T144 587H367Q385 587 404 587T443 588L447 558L218 0Z" />
<glyph unicode="8" horiz-adv-x="539" d="M265 -9Q207 -9 164 11T97 65T73 144Q73 203 111 242T216 298L253 287Q193 260 168 225T142 152Q142 105 176 70T277 35Q332 35 363 61T394 133Q394 173 373 198T318 241T245 275T173 312T118 364T96 443Q96 487 119 521T183
575T274 596Q323 596 361 577T422 525T445 451Q445 398 416 358T340 294L316 307Q349 339 363 370T378 440Q378 492 349 524T266 556Q224 556 194 531T164 461Q164 421 185 395T241 351T314 317T386 280T443 231T465 156Q465 109 440 72T370 13T265 -9Z" />
<glyph unicode="9" horiz-adv-x="510" d="M380 347Q357 301 316 274T226 247Q179 247 140 268T79 326T56 410Q56 458 80 500T148 569T247 596Q306 596 350 570T419 495T444 378Q444 303 420 238T351 121T245 35T107 -15L92 25Q181 49 241 96T333 212T365 372Q365
428 350 468T307 531T239 554Q193 554 163 520T133 429Q133 374 167 339T254 304Q279 304 300 312T341 338T377 379L380 347Z" />
<glyph unicode=":" horiz-adv-x="219" d="M109 -10Q86 -10 71 5T55 43Q55 58 62 69T81 87T109 94Q134 94 149 80T164 43Q164 20 149 5T109 -10ZM109 333Q86 333 71 348T55 385Q55 401 62 412T81 430T109 437Q134 437 149 423T164 385Q164 363 149 348T109 333Z" />
<glyph unicode=";" horiz-adv-x="219" d="M41 -166L28 -141Q62 -125 83 -101T104 -42Q104 -29 100 -20T89 -4T76 9T64 25T59 49Q59 66 73 80T109 94Q124 94 138 85T160 59T168 15Q168 -21 151 -58T105 -124T41 -166ZM109 333Q86 333 71 348T55 385Q55 401 62 412T81
430T109 437Q134 437 149 423T164 385Q164 363 149 348T109 333Z" />
<glyph unicode="&lt;" horiz-adv-x="540" d="M53 224V284L487 479V414L82 234V272L487 92V29L53 224Z" />
<glyph unicode="=" horiz-adv-x="540" d="M487 371V313H53V371H487ZM487 193V135H53V193H487Z" />
<glyph unicode="&gt;" horiz-adv-x="540" d="M487 224L53 29V92L458 272V234L53 414V479L487 284V224Z" />
<glyph unicode="?" horiz-adv-x="352" d="M109 170Q92 197 86 218T80 263Q80 294 97 320T138 371T187 421T229 475T246 537Q246 580 220 606T150 632Q123 632 105 624T65 615Q40 615 28 627T16 654Q16 672 33 685T89 698Q138 698 177 684T244 644T286 579T301
494Q301 454 285 426T244 373T195 328T155 282T138 225Q138 209 140 195T144 170H109ZM128 -10Q112 -10 100 -3T81 15T74 43Q74 58 81 69T100 87T128 94Q152 94 167 80T182 43Q182 21 167 6T128 -10Z" />
<glyph unicode="@" horiz-adv-x="888" d="M454 -227Q366 -227 294 -200T171 -121T91 3T63 165Q63 256 93 334T181 470T317 560T494 592Q566 592 628 572T737 512T809 416T835 287Q835 230 815 177T762 82T687 16T603 -8Q585 -8 576 0T563 25L555 62L568 64Q534
27 504 10T442 -8Q404 -8 374 7T326 46T308 97Q308 130 329 151T402 190L553 242V297Q553 324 538 345T496 378T437 390Q410 390 401 379T389 334L388 298Q380 297 374 296T360 294Q339 294 325 304T310 332Q310 347 323 364T359 395T408 420T462 435Q531 435 574
397T618 297L616 105Q616 82 618 65T624 34Q666 34 699 66T753 156T773 288Q773 371 738 429T640 519T494 550Q384 550 304 502T181 370T137 176Q137 65 174 -16T284 -142T458 -186Q497 -186 537 -179T614 -155L627 -188Q606 -199 576 -208T514 -222T454 -227ZM462
42Q488 42 510 54T553 91V199L428 163Q404 157 394 144T383 109Q383 84 407 63T462 42Z" />
<glyph unicode="A" horiz-adv-x="575" d="M5 0L3 34L52 48L258 574L309 605L523 48L573 34L570 0H386L384 34L445 48L385 202L374 232L261 513L284 532L173 231L162 201L107 48L168 34L166 0H5ZM139 189V238Q158 237 193 236T280 235Q329 235 364 236T418 238V189Q379
190 344 190T280 191Q252 191 218 191T139 189Z" />
<glyph unicode="B" horiz-adv-x="550" d="M109 48Q111 56 113 94T115 193V393Q115 459 113 498T109 543L48 551L51 587H276Q370 587 421 551T472 446Q472 391 430 353T321 309L304 317Q401 314 451 276T502 169Q502 92 435 46T256 0H51L48 34L109 48ZM185 177Q185
132 186 95T188 50Q201 47 224 45T260 42Q344 42 385 71T426 159Q426 219 383 249T255 280Q210 280 196 280T171 278V326Q192 325 210 324T250 323Q320 323 358 353T396 437Q396 491 361 519T262 547H187Q186 539 186 500T185 414V177Z" />
<glyph unicode="C" horiz-adv-x="599" d="M366 -9Q283 -9 212 24T98 124T54 291Q54 351 75 406T137 503T238 571T378 596Q417 596 463 588T546 565L553 433L512 429L484 521Q465 536 432 542T369 549Q289 549 239 515T167 426T144 306Q144 219 174 160T257 70T373
39Q406 39 431 46T483 66L530 161L569 157L542 33Q506 16 462 4T366 -9Z" />
<glyph unicode="D" horiz-adv-x="676" d="M53 587H285Q442 587 530 512T618 300Q618 212 577 144T464 38T298 0H53L51 34L111 48Q113 58 114 99T116 193V393Q116 451 115 491T111 539L51 553L53 587ZM189 537Q189 526 189 512T188 470T187 393V193Q187 162 187
136T189 90T191 56Q226 52 252 50T304 47Q416 47 474 105T532 271Q532 335 516 385T468 471T388 525T274 544Q254 544 233 543T189 537Z" />
<glyph unicode="E" horiz-adv-x="550" d="M477 -5Q447 -1 430 -1T396 0H53L51 34L111 48Q113 53 113 70T114 118T115 193V393Q115 438 115 469T114 518T111 539L51 553L53 587H378Q391 587 402 587T428 588T464 591L482 463L441 457L408 540Q402 541 392 541T371
542H247Q228 542 215 542T187 539Q187 535 187 517T186 474T185 429V142Q185 125 185 106T186 72T187 51Q200 49 214 48T244 47H353Q374 47 388 47T411 49T424 51L476 145L516 137L477 -5ZM371 206L359 275Q353 277 342 278T315 279H233Q221 279 206 278T172 276V327Q190
326 205 326T233 325H315Q331 325 342 325T359 328L371 399H410V206H371Z" />
<glyph unicode="F" horiz-adv-x="498" d="M58 0L56 34L112 48Q113 52 113 67T114 111T115 186L116 415Q116 456 116 482T115 522T113 539L52 553L54 587H376Q389 587 400 587T426 588T461 591L480 463L438 457L405 540Q400 541 391 541T370 542H249Q234 542 216
542T186 540Q186 536 186 524T185 494T185 455T185 414L186 199Q186 143 186 112T187 67T189 48L270 36L268 0H58ZM369 199L356 271Q351 273 339 274T309 275H218Q210 275 199 275T168 274V324Q181 323 193 323T218 322H309Q329 322 339 323T356 326L369 395H407V199H369Z"
/>
<glyph unicode="G" horiz-adv-x="646" d="M376 -9Q287 -9 214 24T97 124T53 290Q53 351 74 405T137 503T240 571T380 596Q420 596 467 588T549 565L556 438L517 434L488 521Q470 536 436 542T372 549Q290 549 240 515T166 426T142 306Q142 219 174 159T260 69T383
38Q415 38 454 47T522 79L497 23V128Q497 164 496 189T493 228L426 238L428 274H607L609 240L566 229Q566 225 566 207T566 160Q566 120 567 95T569 46Q531 21 477 6T376 -9Z" />
<glyph unicode="H" horiz-adv-x="664" d="M414 0L412 34L473 48Q475 52 476 66T477 112T478 193V393Q478 445 478 475T476 521T473 539L412 553L414 587H614L616 553L555 539Q553 536 552 522T550 477T549 393V193Q549 142 549 112T551 67T555 48L616 34L614 0H414ZM52
0L50 34L112 48Q113 53 113 70T114 117T115 193V393Q115 439 115 470T114 518T112 539L50 553L52 587H250L252 553L191 539Q190 536 189 521T187 476T186 393V193Q186 143 186 112T188 67T191 48L252 34L250 0H52ZM176 275V329Q194 328 235 327T333 326Q390 326
430 327T487 329V275Q463 278 427 278T333 279Q274 279 237 279T176 275Z" />
<glyph unicode="I" horiz-adv-x="301" d="M53 0L51 34L112 48Q113 53 113 70T114 117T115 193V393Q115 439 115 470T114 518T112 539L51 553L53 587H250L252 553L191 539Q190 536 189 521T187 476T186 393V193Q186 143 186 112T188 67T191 48L252 34L250 0H53Z" />
<glyph unicode="J" horiz-adv-x="301" d="M191 539Q190 536 189 520T187 474T186 392L187 20Q187 -54 169 -103T116 -178T34 -203Q-9 -203 -41 -183T-73 -136Q-73 -121 -64 -112T-38 -103Q-25 -103 -14 -109T10 -127L57 -175L28 -165Q57 -170 76 -157T105 -112T114
-29L115 392Q115 437 115 467T114 516T112 539L44 553L46 587H250L252 553L191 539Z" />
<glyph unicode="K" horiz-adv-x="571" d="M362 0L360 34L423 44Q415 55 405 68T382 95L220 276H178V310L234 325L440 539L379 553L380 587H565L566 551L511 541L265 304L269 330L459 122Q474 106 486 92T509 67T528 49L577 35V0H362ZM54 0L52 34L112 48Q114 56
115 91T116 193V393Q116 439 116 470T115 518T112 539L51 553L53 587H251L253 553L192 539Q191 536 190 521T188 474T187 393V193Q187 127 188 92T190 48L254 34L251 0H54Z" />
<glyph unicode="L" horiz-adv-x="500" d="M459 -4Q449 -3 435 -2T406 -1T379 0H54L51 34L112 48Q113 53 114 69T115 117T116 193V393Q116 440 116 470T115 517T112 538L51 553L54 587H274L276 551L193 538Q191 535 190 520T189 474T188 393V193Q188 143 188 103T190
54Q203 53 217 52T247 51H335Q357 51 373 52T406 55L457 150L498 141L459 -4Z" />
<glyph unicode="M" horiz-adv-x="840" d="M59 587H221L431 97H417L628 587H777L779 553L718 540Q717 524 717 484T719 402L722 218Q723 165 723 132T725 79T726 47L787 34L785 0H590L587 34L647 47Q648 62 648 77T648 120T647 198L645 558H665L422 -3H395L153
560H169V221Q169 135 169 97T171 48L238 34L236 0H46L44 34L111 48Q112 56 112 74T114 124T115 203L118 403Q119 442 119 481T117 539L57 553L59 587Z" />
<glyph unicode="N" horiz-adv-x="669" d="M502 130V375Q502 437 501 471T499 521T497 539L430 553L432 587H616L619 553L558 539Q558 537 557 522T554 471T553 375V124Q553 96 553 64T554 -4H514L155 500H168V212Q168 151 169 117T172 67T174 48L241 34L239 0H53L51
34L111 48Q112 51 113 65T115 115T116 212V394Q116 444 116 473T114 517T111 539L51 553L53 587H184L514 130H502Z" />
<glyph unicode="O" horiz-adv-x="682" d="M346 -9Q260 -9 194 29T91 135T53 292Q53 379 91 448T197 556T349 596Q432 596 494 558T592 453T628 297Q628 233 607 178T547 80T458 15T346 -9ZM356 39Q413 39 454 68T519 150T543 273Q543 356 517 418T445 515T337
551Q247 551 195 486T142 308Q142 230 169 169T246 74T356 39Z" />
<glyph unicode="P" horiz-adv-x="500" d="M56 0L54 34L112 48Q113 52 113 63T114 104T115 188L116 403Q116 455 115 483T114 523T112 537L51 553L53 587H255Q347 587 401 544T455 418Q455 363 426 323T351 261T251 239Q227 239 207 241T170 247V296Q195 290 213
287T248 284Q310 284 345 313T380 406Q380 478 342 512T247 547H187Q187 540 187 518T186 466T185 403L186 188Q186 134 186 106T188 66T190 50L273 36L271 0H56Z" />
<glyph unicode="Q" horiz-adv-x="682" d="M346 -8Q260 -8 194 30T91 135T53 292Q53 379 91 448T197 556T349 596Q432 596 494 558T592 453T628 297Q628 233 607 178T549 81T463 16T356 -7L346 -8ZM598 -131Q572 -131 549 -127T502 -113T448 -88Q432 -80 411 -66T366
-37T320 -10T282 5H382Q428 1 457 -9T519 -37Q554 -56 587 -65T652 -74Q669 -74 684 -72T714 -65L722 -99Q696 -115 664 -123T598 -131ZM356 39Q413 39 454 68T519 150T543 273Q543 356 517 418T445 515T337 551Q247 551 195 486T142 308Q142 230 169 169T246 74T356
39Z" />
<glyph unicode="R" horiz-adv-x="552" d="M56 0L53 34L114 50Q114 56 114 70T115 104T115 146T116 193V393Q116 440 116 471T115 518T112 539L52 553L54 587H261Q350 587 398 551T446 445Q446 396 420 358T346 297T238 275H173V317H235Q300 317 335 348T371 435Q371
490 341 518T251 547H188Q187 544 187 541T186 526T186 487T186 410V193Q186 145 186 117T188 74T190 50L250 34L248 0H56ZM516 -9Q476 -9 445 7T382 62T311 168L239 292L304 307L409 150Q439 105 462 80T507 43T555 26L554 -6Q546 -8 536 -8T516 -9Z" />
<glyph unicode="S" horiz-adv-x="471" d="M223 -9Q179 -9 134 1T61 28L56 152L93 156L119 71Q145 55 174 46T239 37Q289 37 321 62T353 131Q353 167 332 190T277 232T206 267T135 306T80 359T58 437Q58 484 84 520T157 576T262 597Q289 597 312 595T356 587T393
574L400 456L363 452L336 532Q305 553 251 553Q198 553 166 527T134 460Q134 423 155 398T210 354T281 318T352 280T407 228T429 153Q429 107 403 71T330 13T223 -9Z" />
<glyph unicode="T" horiz-adv-x="542" d="M503 591L525 433L485 428L443 541Q436 543 426 543T408 544H372Q362 544 343 544T309 542Q309 535 309 506T308 439T307 366V219Q307 154 308 107T310 48L393 36L391 0H152L149 36L233 48Q233 60 234 107T235 219V366Q235
401 235 438T235 505T234 542Q219 544 201 544T171 544H132Q124 544 115 544T99 541L56 427L17 433L38 591Q50 590 61 589T82 588T102 587T123 587H418Q429 587 439 587T459 587T479 589T503 591Z" />
<glyph unicode="U" horiz-adv-x="655" d="M50 587H246L249 553L188 538Q188 536 187 524T186 482T185 393V225Q186 161 206 123T262 67T343 49Q387 49 420 67T472 125T491 233V375Q491 418 491 451T489 507T486 538L416 553L418 587H604L607 553L547 538Q547 535
546 522T545 474T544 375V231Q544 146 517 93T442 16T336 -9Q231 -9 172 49T112 214V393Q112 451 111 481T110 523T108 538L47 553L50 587Z" />
<glyph unicode="V" horiz-adv-x="579" d="M269 -3L54 539L4 552L6 587H198L200 553L139 539L313 90H299L463 539L393 553L395 587H573L575 552L525 539L307 -3H269Z" />
<glyph unicode="W" horiz-adv-x="932" d="M485 453L304 -3H264L60 539L10 553L12 587H191L193 553L143 540L308 90H296L460 531L485 453ZM622 -3L422 539L372 553L374 587H561L563 553L503 540L665 90H651L812 539L742 553L744 587H923L925 553L875 539L662 -3H622Z" />
<glyph unicode="X" horiz-adv-x="576" d="M569 0H369L367 34L427 50L277 259L248 297L72 539L21 553L23 587H229L231 553L167 539L295 360L323 321L521 50L571 34L569 0ZM424 539L348 553L351 587H535L537 553L486 539L323 321L277 259L127 50L199 34L196 0H16L15
34L66 50L248 297L295 360L424 539Z" />
<glyph unicode="Y" horiz-adv-x="530" d="M483 539L280 228L300 286V193Q300 150 300 123T301 81T302 58T303 48L373 35L371 0H158L155 35L225 48Q226 51 227 58T228 80T229 123T230 193V286L246 228L49 539L-1 553L0 587H192L194 553L134 539L287 298H276L421
539L351 553L353 587H531L533 553L483 539Z" />
<glyph unicode="Z" horiz-adv-x="529" d="M481 -4Q464 -2 450 -2T423 -1T394 0H137Q118 0 102 0T68 -2V30L399 572L402 542H162Q143 542 129 542T101 539L89 438H52L51 588Q73 587 92 587T130 587H401Q420 587 438 587T476 589V558L145 15V47H389Q399 47 408 48T424
51L467 160L503 157L481 -4Z" />
<glyph unicode="[" horiz-adv-x="318" d="M269 -220H109V722H269V679H176V-177H269V-220Z" />
<glyph unicode="\" horiz-adv-x="352" d="M335 -180H278L-23 728H34L335 -180Z" />
<glyph unicode="]" horiz-adv-x="318" d="M49 -220V-177H143V679H49V722H209V-220H49Z" />
<glyph unicode="^" horiz-adv-x="540" d="M299 560L494 126H434L253 530H289L107 126H47L243 560H299Z" />
<glyph unicode="_" horiz-adv-x="383" d="M17 -54V0H367V-54H17Z" />
<glyph unicode="`" horiz-adv-x="600" d="M282 482L148 654L219 677L318 493L282 482Z" />
<glyph unicode="a" horiz-adv-x="469" d="M200 -8Q162 -8 132 7T83 46T65 97Q65 130 87 151T160 190L311 242V297Q311 324 296 345T254 378T195 390Q168 390 159 379T147 334L145 298Q113 289 91 299T68 332Q68 347 81 364T117 395T165 420T220 435Q289 435 332
397T376 297L374 121Q374 105 375 86T380 58L443 46V19L398 3Q385 -2 375 -5T357 -8Q328 -8 321 25L312 62L326 64Q292 27 262 10T200 -8ZM219 42Q246 42 268 54T311 91V199L186 163Q162 157 152 144T141 109Q141 84 165 63T219 42Z" />
<glyph unicode="b" horiz-adv-x="518" d="M83 26Q84 61 84 85T84 130T84 177V364Q84 395 84 434T83 511T82 578T81 616L7 626L5 654L132 693L149 680Q148 638 148 596T146 498T144 360L147 359Q173 394 210 414T291 435Q341 435 382 411T449 342T475 230Q475 158
442 105T354 22T235 -8Q194 -8 153 2T83 26ZM257 37Q319 37 360 84T402 215Q404 297 363 338T261 379Q229 379 199 364T145 317V69Q167 54 193 46T257 37Z" />
<glyph unicode="c" horiz-adv-x="415" d="M244 -8Q190 -8 144 17T70 90T43 206Q43 272 72 323T150 405T262 435Q306 435 334 425T377 397T392 362Q392 347 384 337T357 327Q342 327 332 333T304 357L259 406L290 396Q248 405 209 389T143 330T117 220Q117 139
159 95T263 51Q304 51 331 65T384 110L409 89Q381 40 340 16T244 -8Z" />
<glyph unicode="d" horiz-adv-x="534" d="M384 -10L373 2L374 68H371Q340 27 308 10T240 -7Q182 -7 137 19T67 92T42 199Q42 251 59 294T106 369T175 418T257 436Q287 436 319 428T373 402Q373 420 373 451T372 515T371 574T370 610L291 624L289 654L423 693L439
680Q437 618 437 559T436 435L435 205Q435 154 437 117T441 64L504 48V17L384 -10ZM258 51Q291 51 317 64T372 113V325Q352 363 321 379T257 395Q190 395 153 347T115 222Q115 141 157 96T258 51Z" />
<glyph unicode="e" horiz-adv-x="444" d="M245 -8Q190 -8 144 17T71 90T44 205Q44 277 72 328T146 408T244 435Q319 434 362 385T405 240V224H94V265H349L339 255V273Q339 333 312 365T236 398Q207 398 180 381T135 328T117 240V230Q117 145 158 98T264 51Q301
51 328 65T382 111L406 90Q378 40 337 16T245 -8Z" />
<glyph unicode="f" horiz-adv-x="295" d="M244 0H38L36 33L98 47Q98 56 98 67T99 93T99 130T99 184L98 379V499Q98 562 116 606T169 674T250 698Q287 698 313 681T339 640Q339 627 331 620T311 612Q286 612 266 633L224 675L241 669Q203 669 182 630T160 523V425L161
379L162 193Q162 151 162 110T164 47L246 36L244 0ZM26 379V408L98 425H177H273V379H26Z" />
<glyph unicode="g" horiz-adv-x="490" d="M231 -228Q143 -228 91 -198T39 -118Q39 -83 63 -54T147 9L184 0Q148 -21 130 -47T111 -104Q111 -145 144 -168T234 -191Q301 -191 342 -162T384 -86Q384 -49 359 -32T273 -10L171 -2L155 2Q122 2 97 21T72 68Q72 94 96
119T164 166L176 145Q155 130 146 119T136 98Q136 83 150 73T189 59L312 47Q378 40 414 13T450 -67Q450 -112 421 -148T343 -206T231 -228ZM240 126Q190 126 150 144T86 196T63 270Q63 317 86 354T149 412T238 434Q288 434 326 415T387 361T410 282Q410 238 387
203T326 147T240 126ZM245 161Q289 161 314 191T339 274Q339 331 311 365T237 400Q193 400 165 368T137 283Q137 229 166 195T245 161ZM472 367L357 374L318 412L472 427V367Z" />
<glyph unicode="h" horiz-adv-x="540" d="M35 0L33 33L95 47Q97 59 97 80T98 140T99 239V363Q99 397 99 438T98 517T97 582T96 616L22 626L20 654L148 693L164 680Q163 649 163 618T162 550T161 469T160 366L163 365Q199 403 232 419T304 435Q339 435 371 417T424
361T445 263V153Q445 116 447 88T451 47L513 33L512 0H324L322 33L380 47Q381 55 381 66T382 95T383 144V258Q383 303 368 330T329 370T278 383Q243 383 213 366T161 317V165Q161 117 162 86T165 47L227 33L225 0H35Z" />
<glyph unicode="i" horiz-adv-x="260" d="M31 0L29 34L96 47Q97 51 97 60T98 91T99 156L100 219Q100 265 98 302T93 355L26 369V399L156 433L167 421Q165 390 164 361T162 291V165Q162 116 163 86T166 47L233 34L231 0H31ZM131 555Q109 555 92 570T75 608Q75 630
92 645T131 661Q153 661 169 646T185 608Q185 585 169 570T131 555Z" />
<glyph unicode="j" horiz-adv-x="245" d="M13 -231L-4 -201Q48 -171 73 -130T98 -19L99 247Q99 291 97 320T92 356L25 369V399L155 433L166 420Q164 395 163 367T161 294L162 -6Q162 -43 155 -74T130 -134T84 -186T13 -231ZM131 555Q109 555 92 570T75 608Q75
630 92 645T131 661Q153 661 169 646T185 608Q185 585 169 570T131 555Z" />
<glyph unicode="k" horiz-adv-x="470" d="M40 0L38 33L95 47Q96 57 97 78T98 133T99 214V364Q99 401 99 442T98 521T97 583T95 616L21 626L19 654L148 693L165 680Q163 645 163 611T162 542T161 470T161 390L160 140Q160 114 161 95T163 64T164 47L226 33L224
0H40ZM461 0H362Q344 25 335 36T315 57L173 211H144L145 232L186 243L321 381L255 393L257 427H452L455 393L389 381L206 213L223 247L359 102Q369 90 386 73T417 44L464 34L461 0Z" />
<glyph unicode="l" horiz-adv-x="261" d="M32 0L30 34L95 47Q97 59 97 80T98 139T99 239V364Q99 402 99 443T98 522T97 584T96 616L22 626L20 654L150 693L166 680Q165 637 164 595T163 502T162 378L161 213Q161 157 163 110T166 47L231 34L229 0H32Z" />
<glyph unicode="m" horiz-adv-x="811" d="M36 0L34 33L96 47Q97 56 97 66T98 97T99 156L100 235Q101 257 100 280T97 324T93 355L29 369V399L151 433L165 418L160 364L163 363Q194 402 226 418T294 435Q328 435 361 417T416 359T438 259V153Q438 116 440 88T444
47L505 33L503 0H320L318 33L373 47Q374 55 374 66T375 95T376 144V259Q376 303 362 330T324 370T275 383Q243 383 214 368T162 317V165Q162 116 163 88T166 47L226 33L224 0H36ZM593 0L591 33L648 47Q649 55 649 65T651 95T652 144L653 259Q653 305 637 332T597
371T550 383Q513 383 483 365T427 308L411 343Q446 392 485 413T567 435Q607 435 640 416T694 360T714 269V153Q714 116 715 88T719 47L781 33L779 0H593Z" />
<glyph unicode="n" horiz-adv-x="540" d="M35 0L33 33L95 47Q96 56 96 67T97 100T98 156L99 235Q99 268 97 303T92 355L28 369V399L150 433L164 418L159 367L162 366Q199 404 232 419T304 435Q339 435 371 418T424 363T445 266V153Q445 116 447 87T451 47L513
33L511 0H324L322 33L380 47Q381 55 381 66T382 95T383 144V259Q383 306 367 333T326 371T278 383Q243 383 213 366T161 317V165Q161 115 162 88T165 47L227 33L225 0H35Z" />
<glyph unicode="o" horiz-adv-x="501" d="M254 -8Q190 -8 143 20T69 98T43 214Q43 280 71 329T149 407T257 435Q318 435 363 408T433 332T458 216Q458 154 431 103T358 22T254 -8ZM263 34Q300 34 327 56T369 115T385 202Q385 288 347 341T248 395Q190 395 154
349T118 225Q118 168 136 125T188 58T263 34Z" />
<glyph unicode="p" horiz-adv-x="529" d="M33 -220L31 -187L93 -173Q93 -168 93 -157T94 -127T95 -82T96 -19L98 241Q98 272 96 305T91 355L27 369V399L149 433L163 418L158 365L161 364Q191 400 223 417T295 435Q352 435 395 407T462 331T486 222Q486 156 456
104T376 23T263 -7Q237 -7 210 -2T160 12V-67Q160 -107 161 -132T164 -173L246 -184L244 -220H33ZM267 36Q310 36 342 56T392 115T412 207Q413 254 396 292T348 355T276 379Q242 379 213 363T160 315V69Q181 54 209 45T267 36Z" />
<glyph unicode="q" horiz-adv-x="518" d="M301 -220L299 -187L371 -173Q372 -158 372 -146T372 -113T373 -59V65L370 66Q342 28 309 11T240 -7Q180 -7 136 19T68 92T44 199Q44 277 77 329T161 409T265 436Q296 436 326 429T381 407L408 434H437Q436 398 435 364T434
290T434 199L437 -27Q438 -92 439 -125T442 -173L504 -187L501 -220H301ZM258 51Q292 51 317 64T371 113L372 338Q352 368 321 381T259 395Q223 395 191 376T138 319T117 222Q117 141 156 96T258 51Z" />
<glyph unicode="r" horiz-adv-x="351" d="M37 0L35 33L97 47Q98 53 98 65T99 100T100 156V235Q100 270 98 304T93 355L29 369V399L151 433L163 420L158 335L161 334Q192 393 223 413T280 434Q302 434 316 423T331 392Q331 371 316 360T277 349Q260 349 245 357T217
377L231 370Q212 357 194 334T161 277L162 180Q163 158 164 132T166 83T168 47L255 35L253 0H37Z" />
<glyph unicode="s" horiz-adv-x="399" d="M197 -8Q161 -8 126 0T63 23L58 127H103L123 55Q156 30 203 30Q238 30 261 47T284 95Q284 123 264 143T189 187Q119 218 91 246T62 318Q62 352 82 378T138 420T221 435Q248 435 276 431T323 419L334 318H292L267 385Q257
391 243 394T213 398Q176 398 154 381T132 336Q132 305 155 286T236 238Q302 207 328 179T354 110Q354 59 310 26T197 -8Z" />
<glyph unicode="t" horiz-adv-x="331" d="M337 56Q317 25 286 9T222 -7Q164 -7 127 29T89 136L91 380H21V398L139 511H154L152 403L151 154Q151 100 174 73T240 45Q264 45 284 55T320 80L337 56ZM123 380V426H306V380H123Z" />
<glyph unicode="u" horiz-adv-x="532" d="M441 64L504 48V17L385 -10L374 2L375 63L372 64Q342 24 313 9T248 -7Q183 -7 138 33T92 154V241Q92 271 91 299T88 355L20 369V399L143 433L157 418Q156 387 155 354T154 284L153 168Q153 102 183 75T262 48Q290 48 320
63T373 114V234Q373 256 373 278T371 321T368 355L295 369V399L424 433L436 420Q435 390 435 369T434 327T434 281V212Q434 148 437 114T441 64Z" />
<glyph unicode="v" horiz-adv-x="466" d="M219 -4L44 379L-3 394L-1 427H177L179 394L117 379L261 59L235 58L367 379L305 394L307 427H468L470 394L423 379L246 -4H219Z" />
<glyph unicode="w" horiz-adv-x="736" d="M495 -4L346 379L295 394L297 427H464L466 394L414 379L534 59L509 58L631 379L579 394L581 427H733L735 394L688 379L521 -4H495ZM211 -4L53 379L6 394L8 427H176L178 394L127 379L255 59L226 58L361 391L386 331L237 -4H211Z" />
<glyph unicode="x" horiz-adv-x="472" d="M450 0H285L283 33L330 47L227 187L203 215L79 379L32 394L34 427H197L199 394L157 379L246 257L270 229L405 47L452 33L450 0ZM335 379L293 394L295 427H432L434 394L388 379L270 229L227 187L127 47L174 33L171 0H30L28
33L75 47L203 215L246 257L335 379Z" />
<glyph unicode="y" horiz-adv-x="466" d="M218 -4L44 379L-3 394L-1 427H177L179 394L117 379L260 59L218 -4ZM467 427L470 394L423 379L255 19L174 -147Q153 -191 130 -209T75 -228Q53 -228 38 -218T23 -189Q23 -177 33 -165T67 -145L152 -119L112 -170L220 42L231
58L367 379L305 394L307 427H467Z" />
<glyph unicode="z" horiz-adv-x="424" d="M123 17L121 42H269Q283 42 298 43T329 46L354 128H396L379 -1Q355 0 334 0T292 0H136Q116 0 95 0T52 -2V26L310 411L307 386H159Q147 386 132 386T103 383L89 307H48L47 428Q72 427 92 427T132 427H292Q313 427 334 427T377
429V402L123 17Z" />
<glyph unicode="{" horiz-adv-x="365" d="M196 -83Q196 -126 221 -152T305 -192L299 -228Q242 -219 205 -198T151 -146T133 -73Q133 -36 145 3T169 80T181 149Q181 176 169 193T133 221T75 232V270Q109 272 133 281T169 308T181 353Q181 384 169 421T145 498T133
575Q133 616 150 647T205 700T299 730L305 694Q247 681 222 655T196 585Q196 548 206 514T228 444T240 368Q240 322 213 289T123 246V260Q183 251 211 217T240 134Q240 94 229 59T207 -11T196 -83Z" />
<glyph unicode="|" horiz-adv-x="276" d="M109 -220V722H167V-220H109Z" />
<glyph unicode="}" horiz-adv-x="365" d="M170 -83Q170 -46 159 -12T137 58T126 134Q126 182 154 216T243 260V246Q181 255 154 288T126 368Q126 408 137 443T159 513T170 585Q170 628 145 654T60 694L67 730Q124 721 160 700T215 648T233 575Q233 538 221 499T197
422T185 353Q185 326 197 309T232 282T290 270V232Q256 231 233 221T197 194T185 149Q185 118 197 81T221 4T233 -73Q233 -114 215 -145T161 -198T67 -228L60 -192Q120 -179 145 -153T170 -83Z" />
<glyph unicode="~" horiz-adv-x="540" d="M461 296L487 279Q470 236 441 213T372 189Q343 189 313 200T255 225T201 251T155 263Q106 263 79 210L53 228Q70 271 99 294T168 318Q197 318 227 307T285 282T339 256T385 245Q411 245 429 258T461 296Z" />
<glyph unicode="&#xa0;" horiz-adv-x="191" />
<glyph unicode="&#xa1;" horiz-adv-x="258" d="M113 255H145L171 -174Q171 -194 165 -206T150 -223T129 -228Q119 -228 109 -223T94 -206T87 -174L113 255ZM129 435Q152 435 167 420T183 383Q183 368 176 356T157 338T129 331Q113 331 101 337T82 356T75 383Q75
398 82 409T101 428T129 435Z" />
<glyph unicode="&#xa2;" horiz-adv-x="415" d="M244 -8Q190 -8 144 17T70 90T43 206Q43 272 72 323T150 405T262 435Q306 435 334 425T377 397T392 362Q392 348 383 338T356 328Q340 328 330 334T303 358L255 406L290 396Q248 405 209 389T143 330T117 220Q117
138 159 94T263 49Q304 49 331 63T384 110L409 89Q381 40 340 16T244 -8ZM220 -105V532H261V-105H220Z" />
<glyph unicode="&#xa3;" horiz-adv-x="473" d="M57 -8L44 32Q103 46 127 72T151 149Q151 188 141 223T117 293T94 362T83 436Q83 483 108 519T178 575T281 596Q340 596 380 575T420 522Q420 505 411 495T383 485Q369 485 357 491T330 513L276 571L323 550Q283
559 247 553T188 524T165 460Q165 417 177 373T202 282T214 188Q214 164 209 141T191 97T159 59T111 30L120 40Q153 53 174 59T215 69T259 72Q280 72 310 65T360 58Q381 58 404 71T441 118L473 102Q456 58 436 35T392 3T337 -6Q324 -6 306 -4T265 2T220 8T172 11Q146
11 125 8T88 1T57 -8ZM27 280V321H356V280H27Z" />
<glyph unicode="&#xa4;" horiz-adv-x="540" d="M273 105Q213 105 164 135T85 216T55 330Q55 393 84 444T163 525T273 555Q333 555 382 525T461 444T491 330Q491 268 462 217T383 135T273 105ZM55 79L27 110L123 207L147 173L55 79ZM484 79L397 168L431 195L514
110L484 79ZM271 144Q312 144 345 168T398 234T418 328Q418 380 398 422T345 489T271 514Q231 514 198 489T146 422T126 328Q126 276 145 234T198 168T271 144ZM120 455L27 550L55 581L145 487L120 455ZM428 463L400 494L486 580L514 551L428 463Z" />
<glyph unicode="&#xa5;" horiz-adv-x="530" d="M81 244V285H446V244H81ZM81 123V164H446V123H81ZM483 539L280 228L300 286V193Q300 150 300 123T301 81T302 58T303 48L373 35L371 0H158L155 35L225 48Q226 51 227 58T228 80T229 123T230 193V286L246 228L49 539L-1
553L0 587H192L194 553L134 539L287 298H276L421 539L351 553L353 587H531L533 553L483 539Z" />
<glyph unicode="&#xa6;" horiz-adv-x="276" d="M109 350V722H167V350H109ZM109 -220V152H167V-220H109Z" />
<glyph unicode="&#xa7;" horiz-adv-x="470" d="M251 219L239 238Q278 246 308 271T338 333Q338 365 321 385T276 420T217 448T159 478T113 517T95 576Q95 611 115 638T173 680T261 695Q283 695 309 692T356 682L366 587H324L300 651Q291 655 280 657T258 659Q213
659 189 642T165 597Q165 572 182 554T227 521T286 491T345 459T390 417T408 359Q408 331 396 306T361 263T311 233T251 219ZM208 -8Q183 -8 156 -4T108 7L97 105H139L164 42Q175 36 189 33T223 30Q262 30 284 46T307 90Q307 116 290 134T244 167T185 197T126 229T81
271T63 330Q63 358 75 382T108 425T158 455T218 469L230 450Q192 442 162 418T132 356Q132 325 149 304T195 267T254 238T313 208T359 168T377 110Q377 76 357 50T298 8T208 -8Z" />
<glyph unicode="&#xa8;" horiz-adv-x="600" d="M225 533Q206 533 193 545T179 578Q179 598 192 610T225 623Q244 623 257 611T270 578Q270 558 257 546T225 533ZM377 533Q358 533 344 545T330 578Q330 598 344 610T377 623Q396 623 408 611T421 578Q421 558 409
546T377 533Z" />
<glyph unicode="&#xa9;" horiz-adv-x="810" d="M406 -4Q332 -4 268 22T155 97T80 209T53 349Q53 424 80 488T155 601T267 675T406 702Q480 702 544 676T656 601T730 489T757 349Q757 274 731 210T656 97T544 23T406 -4ZM428 153Q365 153 314 175T233 241T202 348Q202
393 218 430T265 495T339 538T439 553Q467 553 499 548T556 532L561 436L528 434L506 500Q493 507 473 511T433 516Q381 516 348 496T300 441T284 362Q284 282 328 237T437 192Q458 192 477 197T511 213L542 273L576 270L555 185Q540 177 520 170T476 158T428 153ZM406
27Q474 27 531 51T632 120T700 222T725 350Q725 419 701 477T633 579T532 647T406 671Q338 671 280 647T178 579T110 477T86 350Q86 281 110 223T177 120T279 52T406 27Z" />
<glyph unicode="&#xaa;" horiz-adv-x="390" d="M163 236Q129 236 105 250T66 286T52 328Q52 354 69 372T128 405L251 444V480Q251 508 224 529T163 550Q141 550 135 542T126 510L124 468Q97 460 76 469T55 505Q55 519 67 533T98 561T139 583T184 595Q241 595 277
564T313 479V350Q313 331 315 318T319 300L369 288V262L322 244Q313 241 306 239T291 236Q279 236 272 244T261 265L252 298L263 296Q234 262 209 249T163 236ZM185 292Q203 292 219 298T251 322V403L165 386Q143 382 135 372T126 346Q126 324 145 308T185 292Z"
/>
<glyph unicode="&#xab;" horiz-adv-x="533" d="M468 380L299 182V257L468 59L443 27L251 201V239L443 412L468 380ZM298 380L129 182V257L298 59L273 27L81 201V239L273 412L298 380Z" />
<glyph unicode="&#xac;" horiz-adv-x="540" d="M487 375V132H433V317H53V375H487Z" />
<glyph unicode="&#xad;" horiz-adv-x="367" d="M81 177V237L286 264V205L81 177Z" />
<glyph unicode="&#xae;" horiz-adv-x="810" d="M238 189L283 199Q284 202 284 213T284 246T285 300V412Q285 445 285 466T283 499T281 512L236 520L237 552H398Q444 552 475 542T522 509T538 453Q538 421 519 396T465 356T386 341H343V376Q354 375 362 375T380
375Q420 375 444 393T469 450Q469 486 448 502T391 518H351V300Q351 268 351 247T353 214T354 199L402 189L400 159H241L238 189ZM556 154Q523 154 496 166T448 203T408 270L370 351L427 365L498 257Q527 220 547 205T593 185L589 158Q582 157 573 156T556 154ZM406
-4Q332 -4 268 22T155 97T80 209T53 349Q53 424 80 488T155 601T267 675T406 702Q480 702 544 676T656 601T730 489T757 349Q757 274 731 210T656 97T544 23T406 -4ZM406 27Q474 27 531 51T632 120T700 222T725 350Q725 419 701 477T633 579T532 647T406 671Q338
671 280 647T178 579T110 477T86 350Q86 281 110 223T177 120T279 52T406 27Z" />
<glyph unicode="&#xaf;" horiz-adv-x="600" d="M160 604H440V553H160V604Z" />
<glyph unicode="&#xb0;" horiz-adv-x="350" d="M176 309Q135 309 102 327T50 378T31 453Q31 494 50 525T102 575T176 594Q217 594 249 576T300 526T319 453Q319 411 301 379T250 328T176 309ZM176 357Q215 357 240 384T265 453Q265 493 240 520T176 547Q137 547
111 520T85 453Q85 411 111 384T176 357Z" />
<glyph unicode="&#xb1;" horiz-adv-x="540" d="M487 318V263H53V318H487ZM243 471H296V111H243V471ZM487 58V0H53V58H487Z" />
<glyph unicode="&#xb2;" horiz-adv-x="400" d="M56 226Q126 278 168 318T228 393T247 463Q247 498 226 517T162 536Q132 536 108 523T64 485L42 503Q62 543 98 568T182 593Q242 593 280 561T318 475Q318 421 270 363T122 249L123 259H276Q284 259 291 260T304
262L326 312L359 310L340 196Q332 197 323 197T304 198T284 199T263 199H111Q98 199 85 199T60 197L56 226Z" />
<glyph unicode="&#xb3;" horiz-adv-x="400" d="M210 414Q272 412 307 386T342 316Q342 283 319 255T256 210T169 193Q124 193 94 208T64 247Q64 261 72 269T94 278Q105 278 113 274T135 258L180 221L154 230Q205 223 240 245T275 305Q275 340 249 359T177 379Q168
379 158 378T136 375L131 411Q191 415 219 434T247 484Q247 509 228 522T179 536Q147 536 125 525T87 497L64 515Q82 548 119 570T204 593Q256 593 286 570T316 506Q316 472 287 445T201 403L210 414Z" />
<glyph unicode="&#xb4;" horiz-adv-x="600" d="M317 482L283 493L382 677L451 654L317 482Z" />
<glyph unicode="&#xb5;" horiz-adv-x="537" d="M443 64L506 48V17L387 -10L375 2L376 63L373 64Q344 24 316 9T253 -7Q234 -7 209 -1T161 25T125 86L143 88Q148 0 158 -64T169 -173Q169 -198 158 -212T126 -227Q106 -227 95 -210T84 -159Q84 -100 87 -35T94 95T97
216Q97 266 96 297T93 355L25 369V399L148 433L162 418Q161 387 160 354T159 284L158 170Q158 104 188 76T265 48Q292 48 322 63T375 114V234Q375 257 375 279T373 322T370 355L302 369V399L426 433L438 420Q438 396 437 367T436 281V212Q436 147 438 113T443 64Z"
/>
<glyph unicode="&#xb6;" horiz-adv-x="521" d="M464 0H198L195 36L276 50Q278 58 279 72T281 114T282 193V427Q282 445 282 470T281 517T279 547H245Q183 547 148 512T112 417Q112 355 149 320T254 285Q282 285 312 290T372 307V259Q359 254 339 250T295 244T251
241Q151 241 94 286T36 411Q36 465 63 504T141 565T262 587H470L473 553L412 538Q411 534 410 515T407 464T406 393V193Q406 154 407 123T409 73T412 48L467 34L464 0ZM326 547V40H362L366 547H326Z" />
<glyph unicode="&#xb7;" horiz-adv-x="232" d="M115 167Q92 167 77 182T61 219Q61 235 68 246T87 264T115 271Q132 271 144 265T163 247T170 219Q170 197 155 182T115 167Z" />
<glyph unicode="&#xb8;" horiz-adv-x="600" d="M274 -223Q251 -223 228 -217T185 -199L204 -161Q221 -171 240 -178T281 -185Q302 -185 316 -175T330 -145Q330 -125 310 -114T252 -106L237 -87L295 13H343L274 -84L282 -53Q330 -53 361 -74T392 -132Q392 -170
359 -196T274 -223Z" />
<glyph unicode="&#xb9;" horiz-adv-x="400" d="M239 337Q239 306 240 286T242 255T243 241L312 231L310 199H106L104 231L173 241Q174 243 174 254T175 286T176 337V438Q176 454 176 469T175 496T173 515L98 504L94 538L243 594Q243 575 242 551T240 501T239 451V337Z" />
<glyph unicode="&#xba;" horiz-adv-x="412" d="M208 236Q157 236 118 258T56 321T34 413Q34 471 59 511T125 573T212 595Q262 595 299 573T357 510T378 417Q378 367 356 326T295 260T208 236ZM217 276Q256 276 280 310T304 400Q304 471 276 513T202 556Q159 556
134 522T108 429Q108 385 122 350T161 296T217 276Z" />
<glyph unicode="&#xbb;" horiz-adv-x="533" d="M235 380L259 412L452 239V201L259 27L235 59L404 257V182L235 380ZM65 380L89 412L282 239V201L89 27L65 59L234 257V182L65 380Z" />
<glyph unicode="&#xbc;" horiz-adv-x="892" d="M239 337Q239 306 240 286T242 255T243 241L312 231L310 199H106L104 231L173 241Q174 243 174 254T175 286T176 337V438Q176 454 176 469T175 496T173 515L98 504L94 538L243 594Q243 575 242 551T240 501T239 451V337ZM292
-18L583 650L620 635L329 -34L292 -18ZM784 42L831 32L829 0H665L664 32L721 42V316L733 311L589 137L592 151H847V101H540L534 128L753 391H786Q785 367 785 341T784 287V42Z" />
<glyph unicode="&#xbd;" horiz-adv-x="892" d="M239 337Q239 306 240 286T242 255T243 241L312 231L310 199H106L104 231L173 241Q174 243 174 254T175 286T176 337V438Q176 454 176 469T175 496T173 515L98 504L94 538L243 594Q243 575 242 551T240 501T239 451V337ZM292
-18L583 650L620 635L329 -34L292 -18ZM548 27Q618 79 660 119T720 194T739 264Q739 299 718 318T654 337Q624 337 600 324T556 286L534 304Q554 344 590 369T674 394Q734 394 772 362T810 276Q810 222 762 164T614 50L615 60H768Q776 60 783 61T796 63L818 113L851
111L832 -3Q824 -2 815 -2T796 -1T776 0T755 0H603Q590 0 577 0T552 -2L548 27Z" />
<glyph unicode="&#xbe;" horiz-adv-x="892" d="M210 414Q272 412 307 386T342 316Q342 283 319 255T256 210T169 193Q124 193 94 208T64 247Q64 261 72 269T94 278Q105 278 113 274T135 258L180 221L154 230Q205 223 240 245T275 305Q275 340 249 359T177 379Q168
379 158 378T136 375L131 411Q191 415 219 434T247 484Q247 509 228 522T179 536Q147 536 125 525T87 497L64 515Q82 548 119 570T204 593Q256 593 286 570T316 506Q316 472 287 445T201 403L210 414ZM292 -18L583 650L620 635L329 -34L292 -18ZM784 42L831 32L829
0H665L664 32L721 42V316L733 311L589 137L592 151H847V101H540L534 128L753 391H786Q785 367 785 341T784 287V42Z" />
<glyph unicode="&#xbf;" horiz-adv-x="352" d="M242 255Q260 229 266 208T273 163Q273 143 256 121T214 75T164 25T122 -28T105 -84Q105 -116 132 -139T202 -162Q225 -162 246 -154T287 -145Q312 -145 324 -157T336 -183Q336 -201 319 -214T263 -227Q215 -227
176 -214T108 -178T66 -121T51 -49Q51 -11 67 18T108 71T157 115T198 156T215 200Q215 216 213 230T207 255H242ZM223 435Q239 435 251 428T271 410T278 383Q278 368 271 356T252 338T223 331Q200 331 185 345T169 383Q169 405 184 420T223 435Z" />
<glyph unicode="&#xc0;" horiz-adv-x="575" d="M5 0L3 34L52 48L258 574L309 605L523 48L573 34L570 0H386L384 34L445 48L385 202L374 232L261 513L284 532L173 231L162 201L107 48L168 34L166 0H5ZM139 189V238Q158 237 193 236T280 235Q329 235 364 236T418
238V189Q379 190 344 190T280 191Q252 191 218 191T139 189ZM521 897L423 1017L492 1040L557 910L521 897Z" />
<glyph unicode="&#xc1;" horiz-adv-x="575" d="M5 0L3 34L52 48L258 574L309 605L523 48L573 34L570 0H386L384 34L445 48L385 202L374 232L261 513L284 532L173 231L162 201L107 48L168 34L166 0H5ZM139 189V238Q158 237 193 236T280 235Q329 235 364 236T418
238V189Q379 190 344 190T280 191Q252 191 218 191T139 189ZM557 897L521 910L586 1040L655 1017L557 897Z" />
<glyph unicode="&#xc2;" horiz-adv-x="575" d="M5 0L3 34L52 48L258 574L309 605L523 48L573 34L570 0H386L384 34L445 48L385 202L374 232L261 513L284 532L173 231L162 201L107 48L168 34L166 0H5ZM139 189V238Q158 237 193 236T280 235Q329 235 364 236T418
238V189Q379 190 344 190T280 191Q252 191 218 191T139 189ZM703 918L672 896L509 989H569L406 896L375 918L507 1026H571L703 918Z" />
<glyph unicode="&#xc3;" horiz-adv-x="575" d="M5 0L3 34L52 48L258 574L309 605L523 48L573 34L570 0H386L384 34L445 48L385 202L374 232L261 513L284 532L173 231L162 201L107 48L168 34L166 0H5ZM139 189V238Q158 237 193 236T280 235Q329 235 364 236T418
238V189Q379 190 344 190T280 191Q252 191 218 191T139 189ZM706 1015L735 1000Q718 957 688 932T618 906Q588 906 558 920T500 949T446 964Q419 964 403 951T372 914L343 929Q360 972 391 997T460 1022Q491 1022 520 1008T578 980T634 965Q659 965 675 979T706
1015Z" />
<glyph unicode="&#xc4;" horiz-adv-x="575" d="M5 0L3 34L52 48L258 574L309 605L523 48L573 34L570 0H386L384 34L445 48L385 202L374 232L261 513L284 532L173 231L162 201L107 48L168 34L166 0H5ZM139 189V238Q158 237 193 236T280 235Q329 235 364 236T418
238V189Q379 190 344 190T280 191Q252 191 218 191T139 189ZM444 921Q425 921 412 933T398 966Q398 986 411 998T444 1011Q463 1011 476 999T489 966Q489 946 476 934T444 921ZM636 921Q617 921 603 933T589 966Q589 986 603 998T636 1011Q655 1011 667 999T680
966Q680 946 668 934T636 921Z" />
<glyph unicode="&#xc5;" horiz-adv-x="575" d="M5 0L3 34L52 48L258 574L309 605L523 48L573 34L570 0H386L384 34L445 48L385 202L374 232L261 513L284 532L173 231L162 201L107 48L168 34L166 0H5ZM139 189V238Q158 237 193 236T280 235Q329 235 364 236T418
238V189Q379 190 344 190T280 191Q252 191 218 191T139 189ZM540 903Q499 903 471 929T443 995Q443 1034 471 1061T540 1088Q581 1088 608 1062T635 995Q635 956 608 930T540 903ZM541 933Q567 933 583 950T600 996Q600 1025 584 1042T541 1060Q515 1060 498 1043T480
996Q480 970 497 952T541 933Z" />
<glyph unicode="&#xc6;" horiz-adv-x="797" d="M726 -5Q702 -2 688 -1T664 0T643 0H313L311 34L371 48Q372 59 372 80T373 149V525L401 546L102 48L162 34L160 0H-9L-11 34L38 48L369 573L381 539L292 553L294 587H625Q642 587 655 587T681 588T710 591L729 463L687
457L654 540Q649 541 640 541T620 542H505Q491 542 477 542T445 541Q445 536 445 516T444 471T443 429V142Q443 134 443 121T443 93T444 67T445 50Q455 49 464 48T503 47H599Q620 47 633 47T656 49T671 51L721 145L763 137L726 -5ZM171 185L180 235Q190 234 206
234T245 233T292 232Q334 232 362 233T402 235V185Q396 186 374 186T292 187Q252 187 223 187T171 185ZM619 207L605 276Q600 277 589 278T562 279H489Q477 279 463 279T430 277V327Q449 326 463 326T489 325H562Q578 325 589 325T605 328L619 399H656V207H619Z"
/>
<glyph unicode="&#xc7;" horiz-adv-x="599" d="M366 -9Q283 -9 212 24T98 124T54 291Q54 351 75 406T137 503T238 571T378 596Q417 596 463 588T546 565L553 433L512 429L484 521Q465 536 432 542T369 549Q289 549 239 515T167 426T144 306Q144 219 174 160T257
70T373 39Q406 39 431 46T483 66L530 161L569 157L542 33Q506 16 462 4T366 -9ZM322 -223Q299 -223 276 -217T233 -199L252 -161Q269 -171 288 -178T329 -185Q350 -185 364 -175T378 -145Q378 -125 358 -114T300 -106L285 -87L343 13H391L322 -84L330 -53Q378 -53
409 -74T440 -132Q440 -170 407 -196T322 -223Z" />
<glyph unicode="&#xc8;" horiz-adv-x="550" d="M477 -5Q447 -1 430 -1T396 0H53L51 34L111 48Q113 53 113 70T114 118T115 193V393Q115 438 115 469T114 518T111 539L51 553L53 587H378Q391 587 402 587T428 588T464 591L482 463L441 457L408 540Q402 541 392
541T371 542H247Q228 542 215 542T187 539Q187 535 187 517T186 474T185 429V142Q185 125 185 106T186 72T187 51Q200 49 214 48T244 47H353Q374 47 388 47T411 49T424 51L476 145L516 137L477 -5ZM371 206L359 275Q353 277 342 278T315 279H233Q221 279 206 278T172
276V327Q190 326 205 326T233 325H315Q331 325 342 325T359 328L371 399H410V206H371ZM515 897L417 1017L486 1040L551 910L515 897Z" />
<glyph unicode="&#xc9;" horiz-adv-x="550" d="M477 -5Q447 -1 430 -1T396 0H53L51 34L111 48Q113 53 113 70T114 118T115 193V393Q115 438 115 469T114 518T111 539L51 553L53 587H378Q391 587 402 587T428 588T464 591L482 463L441 457L408 540Q402 541 392
541T371 542H247Q228 542 215 542T187 539Q187 535 187 517T186 474T185 429V142Q185 125 185 106T186 72T187 51Q200 49 214 48T244 47H353Q374 47 388 47T411 49T424 51L476 145L516 137L477 -5ZM371 206L359 275Q353 277 342 278T315 279H233Q221 279 206 278T172
276V327Q190 326 205 326T233 325H315Q331 325 342 325T359 328L371 399H410V206H371ZM551 897L515 910L580 1040L649 1017L551 897Z" />
<glyph unicode="&#xca;" horiz-adv-x="550" d="M477 -5Q447 -1 430 -1T396 0H53L51 34L111 48Q113 53 113 70T114 118T115 193V393Q115 438 115 469T114 518T111 539L51 553L53 587H378Q391 587 402 587T428 588T464 591L482 463L441 457L408 540Q402 541 392
541T371 542H247Q228 542 215 542T187 539Q187 535 187 517T186 474T185 429V142Q185 125 185 106T186 72T187 51Q200 49 214 48T244 47H353Q374 47 388 47T411 49T424 51L476 145L516 137L477 -5ZM371 206L359 275Q353 277 342 278T315 279H233Q221 279 206 278T172
276V327Q190 326 205 326T233 325H315Q331 325 342 325T359 328L371 399H410V206H371ZM697 918L666 896L503 989H563L400 896L369 918L501 1026H565L697 918Z" />
<glyph unicode="&#xcb;" horiz-adv-x="550" d="M477 -5Q447 -1 430 -1T396 0H53L51 34L111 48Q113 53 113 70T114 118T115 193V393Q115 438 115 469T114 518T111 539L51 553L53 587H378Q391 587 402 587T428 588T464 591L482 463L441 457L408 540Q402 541 392
541T371 542H247Q228 542 215 542T187 539Q187 535 187 517T186 474T185 429V142Q185 125 185 106T186 72T187 51Q200 49 214 48T244 47H353Q374 47 388 47T411 49T424 51L476 145L516 137L477 -5ZM371 206L359 275Q353 277 342 278T315 279H233Q221 279 206 278T172
276V327Q190 326 205 326T233 325H315Q331 325 342 325T359 328L371 399H410V206H371ZM438 921Q419 921 406 933T392 966Q392 986 405 998T438 1011Q457 1011 470 999T483 966Q483 946 470 934T438 921ZM630 921Q611 921 597 933T583 966Q583 986 597 998T630 1011Q649
1011 661 999T674 966Q674 946 662 934T630 921Z" />
<glyph unicode="&#xcc;" horiz-adv-x="301" d="M53 0L51 34L112 48Q113 53 113 70T114 117T115 193V393Q115 439 115 470T114 518T112 539L51 553L53 587H250L252 553L191 539Q190 536 189 521T187 476T186 393V193Q186 143 186 112T188 67T191 48L252 34L250
0H53ZM133 641L35 761L104 784L169 654L133 641Z" />
<glyph unicode="&#xcd;" horiz-adv-x="301" d="M53 0L51 34L112 48Q113 53 113 70T114 117T115 193V393Q115 439 115 470T114 518T112 539L51 553L53 587H250L252 553L191 539Q190 536 189 521T187 476T186 393V193Q186 143 186 112T188 67T191 48L252 34L250
0H53ZM169 641L133 654L198 784L267 761L169 641Z" />
<glyph unicode="&#xce;" horiz-adv-x="301" d="M53 0L51 34L112 48Q113 53 113 70T114 117T115 193V393Q115 439 115 470T114 518T112 539L51 553L53 587H250L252 553L191 539Q190 536 189 521T187 476T186 393V193Q186 143 186 112T188 67T191 48L252 34L250
0H53ZM315 662L284 640L121 733H181L18 640L-13 662L119 770H183L315 662Z" />
<glyph unicode="&#xcf;" horiz-adv-x="301" d="M53 0L51 34L112 48Q113 53 113 70T114 117T115 193V393Q115 439 115 470T114 518T112 539L51 553L53 587H250L252 553L191 539Q190 536 189 521T187 476T186 393V193Q186 143 186 112T188 67T191 48L252 34L250
0H53ZM56 665Q37 665 24 677T10 710Q10 730 23 742T56 755Q75 755 88 743T101 710Q101 690 88 678T56 665ZM248 665Q229 665 215 677T201 710Q201 730 215 742T248 755Q267 755 279 743T292 710Q292 690 280 678T248 665Z" />
<glyph unicode="&#xd0;" horiz-adv-x="676" d="M53 587H285Q442 587 530 512T618 300Q618 212 577 144T464 38T298 0H53L51 34L111 48Q113 58 114 99T116 193V393Q116 451 115 491T111 539L51 553L53 587ZM189 537Q189 526 189 512T188 470T187 393V193Q187 162
187 136T189 90T191 56Q226 52 252 50T304 47Q416 47 474 105T532 271Q532 335 516 385T468 471T388 525T274 544Q254 544 233 543T189 537ZM297 527V573H609V527H297Z" />
<glyph unicode="&#xd1;" horiz-adv-x="669" d="M502 130V375Q502 437 501 471T499 521T497 539L430 553L432 587H616L619 553L558 539Q558 537 557 522T554 471T553 375V124Q553 96 553 64T554 -4H514L155 500H168V212Q168 151 169 117T172 67T174 48L241 34L239
0H53L51 34L111 48Q112 51 113 65T115 115T116 212V394Q116 444 116 473T114 517T111 539L51 553L53 587H184L514 130H502ZM502 1015L531 1000Q514 957 484 932T414 906Q384 906 354 920T296 949T242 964Q215 964 199 951T168 914L139 929Q156 972 187 997T256
1022Q287 1022 316 1008T374 980T430 965Q455 965 471 979T502 1015Z" />
<glyph unicode="&#xd2;" horiz-adv-x="682" d="M346 -9Q260 -9 194 29T91 135T53 292Q53 379 91 448T197 556T349 596Q432 596 494 558T592 453T628 297Q628 233 607 178T547 80T458 15T346 -9ZM356 39Q413 39 454 68T519 150T543 273Q543 356 517 418T445 515T337
551Q247 551 195 486T142 308Q142 230 169 169T246 74T356 39ZM322 897L224 1017L293 1040L358 910L322 897Z" />
<glyph unicode="&#xd3;" horiz-adv-x="682" d="M346 -9Q260 -9 194 29T91 135T53 292Q53 379 91 448T197 556T349 596Q432 596 494 558T592 453T628 297Q628 233 607 178T547 80T458 15T346 -9ZM356 39Q413 39 454 68T519 150T543 273Q543 356 517 418T445 515T337
551Q247 551 195 486T142 308Q142 230 169 169T246 74T356 39ZM358 897L322 910L387 1040L456 1017L358 897Z" />
<glyph unicode="&#xd4;" horiz-adv-x="682" d="M346 -9Q260 -9 194 29T91 135T53 292Q53 379 91 448T197 556T349 596Q432 596 494 558T592 453T628 297Q628 233 607 178T547 80T458 15T346 -9ZM356 39Q413 39 454 68T519 150T543 273Q543 356 517 418T445 515T337
551Q247 551 195 486T142 308Q142 230 169 169T246 74T356 39ZM504 918L473 896L310 989H370L207 896L176 918L308 1026H372L504 918Z" />
<glyph unicode="&#xd5;" horiz-adv-x="682" d="M346 -9Q260 -9 194 29T91 135T53 292Q53 379 91 448T197 556T349 596Q432 596 494 558T592 453T628 297Q628 233 607 178T547 80T458 15T346 -9ZM356 39Q413 39 454 68T519 150T543 273Q543 356 517 418T445 515T337
551Q247 551 195 486T142 308Q142 230 169 169T246 74T356 39ZM507 1015L536 1000Q519 957 489 932T419 906Q389 906 359 920T301 949T247 964Q220 964 204 951T173 914L144 929Q161 972 192 997T261 1022Q292 1022 321 1008T379 980T435 965Q460 965 476 979T507
1015Z" />
<glyph unicode="&#xd6;" horiz-adv-x="682" d="M346 -9Q260 -9 194 29T91 135T53 292Q53 379 91 448T197 556T349 596Q432 596 494 558T592 453T628 297Q628 233 607 178T547 80T458 15T346 -9ZM356 39Q413 39 454 68T519 150T543 273Q543 356 517 418T445 515T337
551Q247 551 195 486T142 308Q142 230 169 169T246 74T356 39ZM245 921Q226 921 213 933T199 966Q199 986 212 998T245 1011Q264 1011 277 999T290 966Q290 946 277 934T245 921ZM437 921Q418 921 404 933T390 966Q390 986 404 998T437 1011Q456 1011 468 999T481
966Q481 946 469 934T437 921Z" />
<glyph unicode="&#xd7;" horiz-adv-x="540" d="M440 462L478 420L102 46L62 86L440 462ZM102 462L478 86L440 46L62 420L102 462Z" />
<glyph unicode="&#xd8;" horiz-adv-x="682" d="M346 -9Q260 -9 194 29T91 135T53 292Q53 379 91 448T197 556T349 596Q432 596 494 558T592 453T628 297Q628 233 607 178T547 80T458 15T346 -9ZM356 39Q413 39 454 68T519 150T543 273Q543 356 517 418T445 515T337
551Q247 551 195 486T142 308Q142 230 169 169T246 74T356 39ZM148 -64L105 -39L532 652L575 627L148 -64Z" />
<glyph unicode="&#xd9;" horiz-adv-x="655" d="M50 587H246L249 553L188 538Q188 536 187 524T186 482T185 393V225Q186 161 206 123T262 67T343 49Q387 49 420 67T472 125T491 233V375Q491 418 491 451T489 507T486 538L416 553L418 587H604L607 553L547 538Q547
535 546 522T545 474T544 375V231Q544 146 517 93T442 16T336 -9Q231 -9 172 49T112 214V393Q112 451 111 481T110 523T108 538L47 553L50 587ZM321 897L223 1017L292 1040L357 910L321 897Z" />
<glyph unicode="&#xda;" horiz-adv-x="655" d="M50 587H246L249 553L188 538Q188 536 187 524T186 482T185 393V225Q186 161 206 123T262 67T343 49Q387 49 420 67T472 125T491 233V375Q491 418 491 451T489 507T486 538L416 553L418 587H604L607 553L547 538Q547
535 546 522T545 474T544 375V231Q544 146 517 93T442 16T336 -9Q231 -9 172 49T112 214V393Q112 451 111 481T110 523T108 538L47 553L50 587ZM357 897L321 910L386 1040L455 1017L357 897Z" />
<glyph unicode="&#xdb;" horiz-adv-x="655" d="M50 587H246L249 553L188 538Q188 536 187 524T186 482T185 393V225Q186 161 206 123T262 67T343 49Q387 49 420 67T472 125T491 233V375Q491 418 491 451T489 507T486 538L416 553L418 587H604L607 553L547 538Q547
535 546 522T545 474T544 375V231Q544 146 517 93T442 16T336 -9Q231 -9 172 49T112 214V393Q112 451 111 481T110 523T108 538L47 553L50 587ZM503 918L472 896L309 989H369L206 896L175 918L307 1026H371L503 918Z" />
<glyph unicode="&#xdc;" horiz-adv-x="655" d="M50 587H246L249 553L188 538Q188 536 187 524T186 482T185 393V225Q186 161 206 123T262 67T343 49Q387 49 420 67T472 125T491 233V375Q491 418 491 451T489 507T486 538L416 553L418 587H604L607 553L547 538Q547
535 546 522T545 474T544 375V231Q544 146 517 93T442 16T336 -9Q231 -9 172 49T112 214V393Q112 451 111 481T110 523T108 538L47 553L50 587ZM244 921Q225 921 212 933T198 966Q198 986 211 998T244 1011Q263 1011 276 999T289 966Q289 946 276 934T244 921ZM436
921Q417 921 403 933T389 966Q389 986 403 998T436 1011Q455 1011 467 999T480 966Q480 946 468 934T436 921Z" />
<glyph unicode="&#xdd;" horiz-adv-x="530" d="M483 539L280 228L300 286V193Q300 150 300 123T301 81T302 58T303 48L373 35L371 0H158L155 35L225 48Q226 51 227 58T228 80T229 123T230 193V286L246 228L49 539L-1 553L0 587H192L194 553L134 539L287 298H276L421
539L351 553L353 587H531L533 553L483 539ZM539 897L503 910L568 1040L637 1017L539 897Z" />
<glyph unicode="&#xde;" horiz-adv-x="499" d="M58 0L56 34L112 48Q114 56 114 91T115 193V393Q115 460 114 496T111 538L50 553L52 587H244L247 553L186 538Q186 533 186 523T185 494V451L175 479H254Q346 479 400 435T454 310Q454 254 425 214T350 152T249 130Q225
130 206 133T169 139V185Q194 178 212 175T247 172Q309 172 344 203T379 298Q379 370 340 403T246 437H185V113Q185 93 186 75T188 48L271 36L269 0H58Z" />
<glyph unicode="&#xdf;" horiz-adv-x="554" d="M392 -8Q361 -8 328 0T267 23L264 125H309L327 53Q345 42 363 36T402 30Q432 30 452 47T473 97Q473 129 452 149T401 187T339 222T286 266T265 333Q265 365 279 391T312 443T345 499T360 568Q360 609 337 634T273
659Q219 659 189 618T159 512L160 186Q160 165 161 140T163 90T166 47L218 34L216 0H47L44 34L96 47Q97 61 97 77T99 120T99 185L97 379V488Q97 551 120 598T185 671T283 698Q350 698 385 666T421 582Q421 550 407 523T373 469T339 416T324 361Q324 325 345 301T398
260T461 223T514 179T536 114Q536 61 496 27T392 -8ZM26 379V408L97 425H132V379H26Z" />
<glyph unicode="&#xe0;" horiz-adv-x="469" d="M200 -8Q162 -8 132 7T83 46T65 97Q65 130 87 151T160 190L311 242V297Q311 324 296 345T254 378T195 390Q168 390 159 379T147 334L145 298Q113 289 91 299T68 332Q68 347 81 364T117 395T165 420T220 435Q289 435
332 397T376 297L374 121Q374 105 375 86T380 58L443 46V19L398 3Q385 -2 375 -5T357 -8Q328 -8 321 25L312 62L326 64Q292 27 262 10T200 -8ZM219 42Q246 42 268 54T311 91V199L186 163Q162 157 152 144T141 109Q141 84 165 63T219 42ZM466 482L332 654L403 677L502
493L466 482Z" />
<glyph unicode="&#xe1;" horiz-adv-x="469" d="M200 -8Q162 -8 132 7T83 46T65 97Q65 130 87 151T160 190L311 242V297Q311 324 296 345T254 378T195 390Q168 390 159 379T147 334L145 298Q113 289 91 299T68 332Q68 347 81 364T117 395T165 420T220 435Q289 435
332 397T376 297L374 121Q374 105 375 86T380 58L443 46V19L398 3Q385 -2 375 -5T357 -8Q328 -8 321 25L312 62L326 64Q292 27 262 10T200 -8ZM219 42Q246 42 268 54T311 91V199L186 163Q162 157 152 144T141 109Q141 84 165 63T219 42ZM501 482L467 493L566 677L635
654L501 482Z" />
<glyph unicode="&#xe2;" horiz-adv-x="469" d="M200 -8Q162 -8 132 7T83 46T65 97Q65 130 87 151T160 190L311 242V297Q311 324 296 345T254 378T195 390Q168 390 159 379T147 334L145 298Q113 289 91 299T68 332Q68 347 81 364T117 395T165 420T220 435Q289 435
332 397T376 297L374 121Q374 105 375 86T380 58L443 46V19L398 3Q385 -2 375 -5T357 -8Q328 -8 321 25L312 62L326 64Q292 27 262 10T200 -8ZM219 42Q246 42 268 54T311 91V199L186 163Q162 157 152 144T141 109Q141 84 165 63T219 42ZM618 493L583 482L454 637H514L385
482L350 493L452 663H516L618 493Z" />
<glyph unicode="&#xe3;" horiz-adv-x="469" d="M200 -8Q162 -8 132 7T83 46T65 97Q65 130 87 151T160 190L311 242V297Q311 324 296 345T254 378T195 390Q168 390 159 379T147 334L145 298Q113 289 91 299T68 332Q68 347 81 364T117 395T165 420T220 435Q289 435
332 397T376 297L374 121Q374 105 375 86T380 58L443 46V19L398 3Q385 -2 375 -5T357 -8Q328 -8 321 25L312 62L326 64Q292 27 262 10T200 -8ZM219 42Q246 42 268 54T311 91V199L186 163Q162 157 152 144T141 109Q141 84 165 63T219 42ZM621 629L650 612Q636 572
611 547T553 521Q528 521 503 535T454 563T408 578Q386 578 373 565T347 528L318 545Q332 586 358 611T415 636Q441 636 466 622T515 593T561 579Q582 579 595 593T621 629Z" />
<glyph unicode="&#xe4;" horiz-adv-x="469" d="M200 -8Q162 -8 132 7T83 46T65 97Q65 130 87 151T160 190L311 242V297Q311 324 296 345T254 378T195 390Q168 390 159 379T147 334L145 298Q113 289 91 299T68 332Q68 347 81 364T117 395T165 420T220 435Q289 435
332 397T376 297L374 121Q374 105 375 86T380 58L443 46V19L398 3Q385 -2 375 -5T357 -8Q328 -8 321 25L312 62L326 64Q292 27 262 10T200 -8ZM219 42Q246 42 268 54T311 91V199L186 163Q162 157 152 144T141 109Q141 84 165 63T219 42ZM409 533Q390 533 377 545T363
578Q363 598 376 610T409 623Q428 623 441 611T454 578Q454 558 441 546T409 533ZM561 533Q542 533 528 545T514 578Q514 598 528 610T561 623Q580 623 592 611T605 578Q605 558 593 546T561 533Z" />
<glyph unicode="&#xe5;" horiz-adv-x="469" d="M200 -8Q162 -8 132 7T83 46T65 97Q65 130 87 151T160 190L311 242V297Q311 324 296 345T254 378T195 390Q168 390 159 379T147 334L145 298Q113 289 91 299T68 332Q68 347 81 364T117 395T165 420T220 435Q289 435
332 397T376 297L374 121Q374 105 375 86T380 58L443 46V19L398 3Q385 -2 375 -5T357 -8Q328 -8 321 25L312 62L326 64Q292 27 262 10T200 -8ZM219 42Q246 42 268 54T311 91V199L186 163Q162 157 152 144T141 109Q141 84 165 63T219 42ZM485 495Q444 495 416 522T388
589Q388 628 416 655T485 682Q526 682 553 656T580 589Q580 550 553 523T485 495ZM486 527Q512 527 528 544T545 590Q545 619 529 636T486 653Q460 653 443 636T425 590Q425 562 442 545T486 527Z" />
<glyph unicode="&#xe6;" horiz-adv-x="692" d="M202 -8Q169 -8 138 5T86 42T66 97Q66 137 96 162T187 199L595 281L584 255V276Q584 331 559 364T492 398Q459 398 433 380T393 330T378 258V222Q378 138 416 95T517 51Q549 51 575 64T629 112L653 90Q625 40 586
16T497 -8Q443 -8 401 17T336 91T313 207V287Q313 322 296 344T253 378T197 390Q168 390 160 377T149 334L148 298Q119 290 95 298T71 332Q71 347 83 363T117 394T166 420T223 435Q270 435 311 413T366 346H354Q376 387 413 411T500 435Q569 435 611 387T653 256L190
163Q169 159 156 147T142 111Q142 82 167 62T226 42Q253 42 278 58T335 113L362 88Q329 50 305 29T257 0T202 -8Z" />
<glyph unicode="&#xe7;" horiz-adv-x="415" d="M244 -8Q190 -8 144 17T70 90T43 206Q43 272 72 323T150 405T262 435Q306 435 334 425T377 397T392 362Q392 347 384 337T357 327Q342 327 332 333T304 357L259 406L290 396Q248 405 209 389T143 330T117 220Q117
139 159 95T263 51Q304 51 331 65T384 110L409 89Q381 40 340 16T244 -8ZM473 -223Q450 -223 427 -217T384 -199L403 -161Q420 -171 439 -178T480 -185Q501 -185 515 -175T529 -145Q529 -125 509 -114T451 -106L436 -87L494 13H542L473 -84L481 -53Q529 -53 560
-74T591 -132Q591 -170 558 -196T473 -223Z" />
<glyph unicode="&#xe8;" horiz-adv-x="444" d="M245 -8Q190 -8 144 17T71 90T44 205Q44 277 72 328T146 408T244 435Q319 434 362 385T405 240V224H94V265H349L339 255V273Q339 333 312 365T236 398Q207 398 180 381T135 328T117 240V230Q117 145 158 98T264 51Q301
51 328 65T382 111L406 90Q378 40 337 16T245 -8ZM474 482L340 654L411 677L510 493L474 482Z" />
<glyph unicode="&#xe9;" horiz-adv-x="444" d="M245 -8Q190 -8 144 17T71 90T44 205Q44 277 72 328T146 408T244 435Q319 434 362 385T405 240V224H94V265H349L339 255V273Q339 333 312 365T236 398Q207 398 180 381T135 328T117 240V230Q117 145 158 98T264 51Q301
51 328 65T382 111L406 90Q378 40 337 16T245 -8ZM509 482L475 493L574 677L643 654L509 482Z" />
<glyph unicode="&#xea;" horiz-adv-x="444" d="M245 -8Q190 -8 144 17T71 90T44 205Q44 277 72 328T146 408T244 435Q319 434 362 385T405 240V224H94V265H349L339 255V273Q339 333 312 365T236 398Q207 398 180 381T135 328T117 240V230Q117 145 158 98T264 51Q301
51 328 65T382 111L406 90Q378 40 337 16T245 -8ZM626 493L591 482L462 637H522L393 482L358 493L460 663H524L626 493Z" />
<glyph unicode="&#xeb;" horiz-adv-x="444" d="M245 -8Q190 -8 144 17T71 90T44 205Q44 277 72 328T146 408T244 435Q319 434 362 385T405 240V224H94V265H349L339 255V273Q339 333 312 365T236 398Q207 398 180 381T135 328T117 240V230Q117 145 158 98T264 51Q301
51 328 65T382 111L406 90Q378 40 337 16T245 -8ZM417 533Q398 533 385 545T371 578Q371 598 384 610T417 623Q436 623 449 611T462 578Q462 558 449 546T417 533ZM569 533Q550 533 536 545T522 578Q522 598 536 610T569 623Q588 623 600 611T613 578Q613 558 601
546T569 533Z" />
<glyph unicode="&#xec;" horiz-adv-x="260" d="M31 0L29 34L96 47Q97 51 97 60T98 91T99 156L100 219Q100 265 98 302T93 355L26 369V399L156 433L167 421Q165 390 164 361T162 291V165Q162 116 163 86T166 47L233 34L231 0H31ZM112 482L-22 654L49 677L148 493L112 482Z" />
<glyph unicode="&#xed;" horiz-adv-x="260" d="M31 0L29 34L96 47Q97 51 97 60T98 91T99 156L100 219Q100 265 98 302T93 355L26 369V399L156 433L167 421Q165 390 164 361T162 291V165Q162 116 163 86T166 47L233 34L231 0H31ZM147 482L113 493L212 677L281 654L147
482Z" />
<glyph unicode="&#xee;" horiz-adv-x="260" d="M31 0L29 34L96 47Q97 51 97 60T98 91T99 156L100 219Q100 265 98 302T93 355L26 369V399L156 433L167 421Q165 390 164 361T162 291V165Q162 116 163 86T166 47L233 34L231 0H31ZM264 493L229 482L100 637H160L31
482L-4 493L98 663H162L264 493Z" />
<glyph unicode="&#xef;" horiz-adv-x="260" d="M31 0L29 34L96 47Q97 51 97 60T98 91T99 156L100 219Q100 265 98 302T93 355L26 369V399L156 433L167 421Q165 390 164 361T162 291V165Q162 116 163 86T166 47L233 34L231 0H31ZM55 533Q36 533 23 545T9 578Q9
598 22 610T55 623Q74 623 87 611T100 578Q100 558 87 546T55 533ZM207 533Q188 533 174 545T160 578Q160 598 174 610T207 623Q226 623 238 611T251 578Q251 558 239 546T207 533Z" />
<glyph unicode="&#xf0;" horiz-adv-x="494" d="M378 367Q350 384 322 389T268 394Q198 394 159 350T119 216Q119 164 135 123T183 59T257 35Q316 35 346 81T376 238Q376 338 341 421T236 565T65 660L67 688H155Q220 666 274 624T367 525T427 404T449 271Q449 135
393 64T245 -8Q191 -8 145 15T71 87T43 207Q43 280 73 331T156 409T269 436Q293 436 323 432T383 414L378 367ZM93 511L75 547L377 698L395 662L93 511Z" />
<glyph unicode="&#xf1;" horiz-adv-x="540" d="M35 0L33 33L95 47Q96 56 96 67T97 100T98 156L99 235Q99 268 97 303T92 355L28 369V399L150 433L164 418L159 367L162 366Q199 404 232 419T304 435Q339 435 371 418T424 363T445 266V153Q445 116 447 87T451 47L513
33L511 0H324L322 33L380 47Q381 55 381 66T382 95T383 144V259Q383 306 367 333T326 371T278 383Q243 383 213 366T161 317V165Q161 115 162 88T165 47L227 33L225 0H35ZM666 629L695 612Q681 572 656 547T598 521Q573 521 548 535T499 563T453 578Q431 578 418
565T392 528L363 545Q377 586 403 611T460 636Q486 636 511 622T560 593T606 579Q627 579 640 593T666 629Z" />
<glyph unicode="&#xf2;" horiz-adv-x="501" d="M254 -8Q190 -8 143 20T69 98T43 214Q43 280 71 329T149 407T257 435Q318 435 363 408T433 332T458 216Q458 154 431 103T358 22T254 -8ZM263 34Q300 34 327 56T369 115T385 202Q385 288 347 341T248 395Q190 395
154 349T118 225Q118 168 136 125T188 58T263 34ZM488 482L354 654L425 677L524 493L488 482Z" />
<glyph unicode="&#xf3;" horiz-adv-x="501" d="M254 -8Q190 -8 143 20T69 98T43 214Q43 280 71 329T149 407T257 435Q318 435 363 408T433 332T458 216Q458 154 431 103T358 22T254 -8ZM263 34Q300 34 327 56T369 115T385 202Q385 288 347 341T248 395Q190 395
154 349T118 225Q118 168 136 125T188 58T263 34ZM523 482L489 493L588 677L657 654L523 482Z" />
<glyph unicode="&#xf4;" horiz-adv-x="501" d="M254 -8Q190 -8 143 20T69 98T43 214Q43 280 71 329T149 407T257 435Q318 435 363 408T433 332T458 216Q458 154 431 103T358 22T254 -8ZM263 34Q300 34 327 56T369 115T385 202Q385 288 347 341T248 395Q190 395
154 349T118 225Q118 168 136 125T188 58T263 34ZM640 493L605 482L476 637H536L407 482L372 493L474 663H538L640 493Z" />
<glyph unicode="&#xf5;" horiz-adv-x="501" d="M254 -8Q190 -8 143 20T69 98T43 214Q43 280 71 329T149 407T257 435Q318 435 363 408T433 332T458 216Q458 154 431 103T358 22T254 -8ZM263 34Q300 34 327 56T369 115T385 202Q385 288 347 341T248 395Q190 395
154 349T118 225Q118 168 136 125T188 58T263 34ZM643 629L672 612Q658 572 633 547T575 521Q550 521 525 535T476 563T430 578Q408 578 395 565T369 528L340 545Q354 586 380 611T437 636Q463 636 488 622T537 593T583 579Q604 579 617 593T643 629Z" />
<glyph unicode="&#xf6;" horiz-adv-x="501" d="M254 -8Q190 -8 143 20T69 98T43 214Q43 280 71 329T149 407T257 435Q318 435 363 408T433 332T458 216Q458 154 431 103T358 22T254 -8ZM263 34Q300 34 327 56T369 115T385 202Q385 288 347 341T248 395Q190 395
154 349T118 225Q118 168 136 125T188 58T263 34ZM431 533Q412 533 399 545T385 578Q385 598 398 610T431 623Q450 623 463 611T476 578Q476 558 463 546T431 533ZM583 533Q564 533 550 545T536 578Q536 598 550 610T583 623Q602 623 614 611T627 578Q627 558 615
546T583 533Z" />
<glyph unicode="&#xf7;" horiz-adv-x="540" d="M487 282V224H53V282H487ZM266 28Q246 28 232 42T218 76Q218 96 232 109T266 123Q286 123 300 110T314 76Q314 56 300 42T266 28ZM266 383Q246 383 232 397T218 431Q218 452 232 465T266 478Q286 478 300 465T314
431Q314 411 300 397T266 383Z" />
<glyph unicode="&#xf8;" horiz-adv-x="501" d="M254 -8Q190 -8 143 20T69 98T43 214Q43 280 71 329T149 407T257 435Q318 435 363 408T433 332T458 216Q458 154 431 103T358 22T254 -8ZM263 34Q300 34 327 56T369 115T385 202Q385 288 347 341T248 395Q190 395
154 349T118 225Q118 168 136 125T188 58T263 34ZM354 -62L319 -40L658 490L693 467L354 -62Z" />
<glyph unicode="&#xf9;" horiz-adv-x="532" d="M441 64L504 48V17L385 -10L374 2L375 63L372 64Q342 24 313 9T248 -7Q183 -7 138 33T92 154V241Q92 271 91 299T88 355L20 369V399L143 433L157 418Q156 387 155 354T154 284L153 168Q153 102 183 75T262 48Q290
48 320 63T373 114V234Q373 256 373 278T371 321T368 355L295 369V399L424 433L436 420Q435 390 435 369T434 327T434 281V212Q434 148 437 114T441 64ZM504 482L370 654L441 677L540 493L504 482Z" />
<glyph unicode="&#xfa;" horiz-adv-x="532" d="M441 64L504 48V17L385 -10L374 2L375 63L372 64Q342 24 313 9T248 -7Q183 -7 138 33T92 154V241Q92 271 91 299T88 355L20 369V399L143 433L157 418Q156 387 155 354T154 284L153 168Q153 102 183 75T262 48Q290
48 320 63T373 114V234Q373 256 373 278T371 321T368 355L295 369V399L424 433L436 420Q435 390 435 369T434 327T434 281V212Q434 148 437 114T441 64ZM539 482L505 493L604 677L673 654L539 482Z" />
<glyph unicode="&#xfb;" horiz-adv-x="532" d="M441 64L504 48V17L385 -10L374 2L375 63L372 64Q342 24 313 9T248 -7Q183 -7 138 33T92 154V241Q92 271 91 299T88 355L20 369V399L143 433L157 418Q156 387 155 354T154 284L153 168Q153 102 183 75T262 48Q290
48 320 63T373 114V234Q373 256 373 278T371 321T368 355L295 369V399L424 433L436 420Q435 390 435 369T434 327T434 281V212Q434 148 437 114T441 64ZM656 493L621 482L492 637H552L423 482L388 493L490 663H554L656 493Z" />
<glyph unicode="&#xfc;" horiz-adv-x="532" d="M441 64L504 48V17L385 -10L374 2L375 63L372 64Q342 24 313 9T248 -7Q183 -7 138 33T92 154V241Q92 271 91 299T88 355L20 369V399L143 433L157 418Q156 387 155 354T154 284L153 168Q153 102 183 75T262 48Q290
48 320 63T373 114V234Q373 256 373 278T371 321T368 355L295 369V399L424 433L436 420Q435 390 435 369T434 327T434 281V212Q434 148 437 114T441 64ZM447 533Q428 533 415 545T401 578Q401 598 414 610T447 623Q466 623 479 611T492 578Q492 558 479 546T447
533ZM599 533Q580 533 566 545T552 578Q552 598 566 610T599 623Q618 623 630 611T643 578Q643 558 631 546T599 533Z" />
<glyph unicode="&#xfd;" horiz-adv-x="466" d="M218 -4L44 379L-3 394L-1 427H177L179 394L117 379L260 59L218 -4ZM467 427L470 394L423 379L255 19L174 -147Q153 -191 130 -209T75 -228Q53 -228 38 -218T23 -189Q23 -177 33 -165T67 -145L152 -119L112 -170L220
42L231 58L367 379L305 394L307 427H467ZM514 482L480 493L579 677L648 654L514 482Z" />
<glyph unicode="&#xfe;" horiz-adv-x="516" d="M22 -220L19 -187L81 -173Q82 -166 83 -148T84 -92T85 6L87 363Q87 397 87 438T87 517T85 582T83 616L9 626L7 654L135 693L153 680Q152 648 151 617T150 549T149 468T147 366L150 365Q178 400 210 417T282 435Q339
435 382 407T448 331T472 222Q472 156 443 104T363 23T250 -7Q226 -7 198 -2T148 12V-55Q148 -104 149 -131T152 -173L234 -184L232 -220H22ZM255 36Q318 36 358 81T399 207Q400 254 383 292T336 355T264 379Q229 379 200 363T148 315V69Q168 54 196 45T255 36Z"
/>
<glyph unicode="&#xff;" horiz-adv-x="466" d="M218 -4L44 379L-3 394L-1 427H177L179 394L117 379L260 59L218 -4ZM467 427L470 394L423 379L255 19L174 -147Q153 -191 130 -209T75 -228Q53 -228 38 -218T23 -189Q23 -177 33 -165T67 -145L152 -119L112 -170L220
42L231 58L367 379L305 394L307 427H467ZM422 533Q403 533 390 545T376 578Q376 598 389 610T422 623Q441 623 454 611T467 578Q467 558 454 546T422 533ZM574 533Q555 533 541 545T527 578Q527 598 541 610T574 623Q593 623 605 611T618 578Q618 558 606 546T574
533Z" />
<glyph unicode="&#x2013;" horiz-adv-x="500" d="M0 195V242H500V195H0Z" />
<glyph unicode="&#x2014;" horiz-adv-x="1000" d="M0 195V242H1000V195H0Z" />
<glyph unicode="&#x2018;" horiz-adv-x="229" d="M183 698L196 673Q162 656 141 632T120 574Q120 560 125 551T136 536T149 523T160 507T165 483Q165 465 152 451T115 437Q100 437 87 446T65 473T57 517Q57 553 74 590T120 656T183 698Z" />
<glyph unicode="&#x2019;" horiz-adv-x="229" d="M46 437L33 463Q67 479 88 503T109 562Q109 576 105 584T94 600T81 613T69 629T64 652Q64 671 78 684T114 698Q129 698 143 689T165 662T173 618Q173 582 156 546T110 480T46 437Z" />
<glyph unicode="&#x201a;" horiz-adv-x="229" d="M46 -166L33 -141Q67 -125 88 -101T109 -42Q109 -28 105 -20T94 -4T81 9T69 25T64 49Q64 66 78 80T114 94Q129 94 143 85T165 59T173 15Q173 -21 156 -58T110 -124T46 -166Z" />
<glyph unicode="&#x201c;" horiz-adv-x="399" d="M353 698L366 673Q332 656 311 632T290 574Q290 560 295 551T306 536T319 523T330 507T335 483Q335 465 322 451T285 437Q270 437 257 446T235 473T227 517Q227 553 244 590T290 656T353 698ZM183 698L196 673Q162
656 141 632T120 574Q120 560 125 551T136 536T149 523T160 507T165 483Q165 465 152 451T115 437Q100 437 87 446T65 473T57 517Q57 553 74 590T120 656T183 698Z" />
<glyph unicode="&#x201d;" horiz-adv-x="399" d="M216 437L203 463Q237 479 258 503T279 562Q279 576 275 584T264 600T251 613T239 629T234 652Q234 671 248 684T284 698Q299 698 313 689T335 662T343 618Q343 582 326 546T280 480T216 437ZM46 437L33 463Q67
479 88 503T109 562Q109 576 105 584T94 600T81 613T69 629T64 652Q64 671 78 684T114 698Q129 698 143 689T165 662T173 618Q173 582 156 546T110 480T46 437Z" />
<glyph unicode="&#x201e;" horiz-adv-x="394" d="M211 -166L198 -141Q232 -125 253 -101T274 -42Q274 -28 270 -20T259 -4T246 9T234 25T229 49Q229 66 243 80T279 94Q294 94 308 85T330 59T338 15Q338 -21 321 -57T276 -123T211 -166ZM46 -166L33 -141Q67 -125
88 -101T109 -42Q109 -28 105 -20T94 -4T81 9T69 25T64 49Q64 66 78 80T114 94Q129 94 143 85T165 59T173 15Q173 -21 156 -57T111 -123T46 -166Z" />
<glyph unicode="&#x2022;" horiz-adv-x="420" d="M210 57Q168 57 133 77T76 131T55 208Q55 252 76 287T132 343T210 364Q253 364 288 343T344 287T365 208Q365 166 344 132T288 77T210 57Z" />
<glyph unicode="&#x2039;" horiz-adv-x="363" d="M298 380L129 182V257L298 59L273 27L81 201V239L273 412L298 380Z" />
<glyph unicode="&#x203a;" horiz-adv-x="363" d="M65 380L89 412L282 239V201L89 27L65 59L234 257V182L65 380Z" />
</font>
</defs>
</svg>
