<?xml version="1.0" standalone="no"?>
<!DOCTYPE svg PUBLIC "-//W3C//DTD SVG 1.1//EN" "http://www.w3.org/Graphics/SVG/1.1/DTD/svg11.dtd">
<svg xmlns="http://www.w3.org/2000/svg">
<defs >
<font id="CrimsonPro" horiz-adv-x="515" ><font-face
    font-family="Crimson Pro ExtraLight Black"
    units-per-em="1024"
    panose-1="0 0 0 0 0 0 0 0 0 0"
    ascent="918"
    descent="-220"
    alphabetic="0" />
<glyph unicode=" " horiz-adv-x="200" />
<glyph unicode="!" horiz-adv-x="313" d="M122 253L46 506Q35 561 45 604T83 672T157 698Q202 698 230 673T269 604T267 506L191 253H122ZM157 -10Q126 -10 100 5T59 45T43 100Q43 132 58 157T100 198T157 214Q188 214 213 199T254 158T270 100Q270 54 237 22T157 -10Z" />
<glyph unicode="&quot;" horiz-adv-x="606" d="M159 698Q202 698 231 666T260 579Q260 555 252 517T232 434T208 348T186 273H133Q124 305 112 347T87 434T67 516T59 579Q59 633 87 665T159 698ZM446 698Q489 698 518 666T547 579Q547 555 539 517T519 434T495
348T473 273H420Q411 305 399 347T374 434T354 516T346 579Q346 633 374 665T446 698Z" />
<glyph unicode="#" horiz-adv-x="538" d="M249 0L372 587H450L329 0H249ZM38 160V231H483V160H38ZM88 0L210 587H289L166 0H88ZM55 356V427H500V356H55Z" />
<glyph unicode="$" horiz-adv-x="542" d="M244 -116V703H327V-116H244ZM245 -9Q203 -9 150 4T56 39L52 198L130 204L167 87Q187 74 215 69T263 64Q304 64 324 80T344 122Q344 156 323 176T269 209T199 236T128 270T74 322T53 408Q53 465 86 508T179 575T320 599Q341
599 369 595T424 585T470 569L485 410L409 403L374 516Q355 524 339 526T310 528Q273 528 248 509T222 456Q222 425 243 406T298 372T370 344T441 309T496 258T518 177Q518 123 484 81T389 15T245 -9Z" />
<glyph unicode="%" horiz-adv-x="819" d="M229 -13L155 49L591 602L665 540L229 -13ZM205 283Q157 283 120 303T61 359T39 441Q39 485 62 520T122 577T205 598Q254 598 292 578T351 523T373 441Q373 396 351 361T290 304T205 283ZM208 383Q229 383 245 398T261
442Q261 470 245 484T208 499Q185 499 170 484T154 442Q154 414 169 399T208 383ZM612 -10Q564 -10 527 10T468 66T446 148Q446 192 469 227T529 284T612 305Q661 305 699 285T758 230T780 148Q780 103 758 68T697 11T612 -10ZM614 90Q636 90 652 105T668 149Q668
177 652 191T614 206Q592 206 577 191T561 149Q561 121 576 106T614 90Z" />
<glyph unicode="&amp;" horiz-adv-x="814" d="M267 -11Q189 -11 135 11T52 72T23 160Q23 212 55 251T140 314T256 343Q313 383 340 411T377 468T386 534Q386 568 374 583T340 599Q317 599 303 581T288 531Q288 513 292 491T312 439T359 364T443 257Q497 194 535
159T608 111T686 97Q710 97 739 107T791 137L831 95Q799 45 744 17T624 -11Q542 -11 480 15T365 93T257 216Q216 271 189 315T150 398T137 469Q137 534 165 578T241 645T348 668Q433 668 477 628T521 518Q521 475 497 437T428 369T317 319Q255 290 227 255T199
182Q199 159 210 138T249 103T324 89Q391 89 441 109T527 172T586 283L516 292L519 349L767 350L770 293L700 283Q655 184 590 119T444 22T267 -11Z" />
<glyph unicode="&apos;" horiz-adv-x="319" d="M159 698Q202 698 231 666T260 579Q260 555 252 517T232 434T208 348T186 273H133Q124 305 112 347T87 434T67 516T59 579Q59 633 87 665T159 698Z" />
<glyph unicode="(" horiz-adv-x="409" d="M361 729L409 692Q340 623 302 508T263 250Q263 108 301 -7T409 -192L361 -229Q227 -137 157 -16T87 250Q87 398 157 519T361 729Z" />
<glyph unicode=")" horiz-adv-x="409" d="M48 729Q182 640 251 519T321 250Q321 105 252 -16T48 -229L0 -192Q69 -123 107 -8T145 250Q145 392 107 507T0 692L48 729Z" />
<glyph unicode="*" horiz-adv-x="541" d="M499 526Q510 497 501 472T454 435Q433 428 401 430T335 431Q361 411 390 392T433 355Q456 324 449 299T416 255Q391 237 365 238T315 270Q301 289 292 325T270 394Q258 361 249 325T226 270Q204 239 177 238T124 255Q100
273 93 298T107 355Q121 373 150 392T205 431Q172 432 140 430T86 435Q50 446 42 471T42 526Q51 557 74 571T132 574Q153 568 180 547T232 505Q222 538 210 571T197 626Q197 664 218 681T270 698Q302 698 322 681T343 626Q343 604 331 571T308 505Q334 524 360
545T409 574Q444 585 466 571T499 526Z" />
<glyph unicode="+" horiz-adv-x="540" d="M488 304V207H51V304H488ZM220 473H320V39H220V473Z" />
<glyph unicode="," horiz-adv-x="319" d="M52 -233L30 -183Q100 -154 125 -123T150 -58Q150 -33 140 -17T113 11T81 36T55 67T44 113Q44 156 76 185T155 214Q185 214 213 199T261 151T280 59Q280 -4 257 -58T183 -156T52 -233Z" />
<glyph unicode="-" horiz-adv-x="404" d="M72 145V266L332 303V182L72 145Z" />
<glyph unicode="." horiz-adv-x="319" d="M159 -10Q113 -10 80 22T46 100Q46 132 61 157T103 198T159 214Q206 214 239 181T273 100Q273 54 240 22T159 -10Z" />
<glyph unicode="/" horiz-adv-x="448" d="M36 -180L337 728H452L151 -180H36Z" />
<glyph unicode="0" horiz-adv-x="654" d="M333 -9Q253 -9 189 27T88 129T51 283Q51 379 87 449T188 557T334 596Q413 596 473 561T568 460T603 304Q603 215 567 144T469 32T333 -9ZM346 76Q373 76 391 95T418 158T427 277Q427 389 398 455T323 522Q283 522 257
472T230 319Q230 247 245 192T287 107T346 76Z" />
<glyph unicode="1" horiz-adv-x="415" d="M307 234Q307 203 308 168T311 108T315 76L403 57L400 0H49L46 57L134 76Q136 81 137 105T139 165T140 234V299Q140 346 139 389T135 445L35 424L31 495L317 602Q313 551 310 479T307 327V234Z" />
<glyph unicode="2" horiz-adv-x="550" d="M51 -4L49 62Q130 123 181 177T256 281T281 380Q281 423 256 449T188 475Q118 475 78 405L24 443Q56 517 115 556T251 596Q309 596 354 572T425 505T451 408Q451 327 385 251T200 114L198 121H351Q375 121 387 122T419
126L447 192L522 182L484 -6Q465 -4 432 -3T369 -1T328 0H130Q113 0 92 -1T51 -4Z" />
<glyph unicode="3" horiz-adv-x="514" d="M240 298L272 322Q368 321 419 282T471 175Q471 132 441 90T352 19T206 -9Q158 -9 120 4T60 39T38 89Q38 115 54 132T97 149Q118 149 132 142T165 118L240 51L207 71Q235 59 257 68T292 102T305 159Q305 204 275 229T192
254Q179 254 169 254T150 252L143 320Q199 326 235 354T271 419Q271 448 252 463T200 479Q168 479 141 465T99 426L46 463Q76 523 133 559T260 596Q344 596 390 556T437 461Q437 395 382 356T240 298Z" />
<glyph unicode="4" horiz-adv-x="575" d="M458 139Q458 110 458 99T459 76L527 57L524 0H208L205 57L293 76Q294 87 294 98T294 139V432H309L153 217L146 238H541V139H39L30 193L363 591H463Q460 555 459 508T457 411L458 139Z" />
<glyph unicode="5" horiz-adv-x="519" d="M203 -9Q156 -9 118 4T58 39T36 89Q36 115 52 132T95 149Q112 149 127 143T163 118L238 51L205 72Q233 59 254 67T289 96T302 140Q302 175 280 197T213 232T100 247L138 587H437L426 458H197L185 346L156 379Q310 373
389 323T469 184Q469 135 439 91T350 19T203 -9Z" />
<glyph unicode="6" horiz-adv-x="588" d="M199 273Q237 316 280 346T362 377Q409 377 446 354T506 290T529 201Q529 142 499 94T416 19T295 -9Q225 -9 172 25T88 116T57 239Q57 304 84 367T165 481T295 566T472 605L491 534Q397 514 339 475T253 373T226 215Q226
175 237 140T267 83T307 61Q333 61 351 87T370 151Q370 204 350 234T295 265Q274 265 254 257T219 238T198 221L199 273Z" />
<glyph unicode="7" horiz-adv-x="516" d="M265 0H138V44L388 498V454H196Q184 454 166 454T133 451L121 390L49 396L66 589Q86 589 118 589T180 588T225 587H399Q416 587 435 587T473 588L477 528L265 0Z" />
<glyph unicode="8" horiz-adv-x="630" d="M307 -9Q230 -9 173 11T84 68T53 151Q53 207 104 244T236 295L247 270Q232 235 226 211T219 161Q219 115 250 94T324 72Q364 72 388 88T412 129Q412 159 388 177T326 210T245 239T164 275T101 331T77 419Q77 471 108 511T196
573T331 596Q405 596 454 576T527 521T551 438Q551 381 503 343T366 294L360 305Q383 341 391 368T400 429Q400 476 378 499T317 522Q281 522 261 506T241 461Q241 428 265 408T328 372T409 342T491 307T553 255T578 174Q578 118 544 77T450 13T307 -9Z" />
<glyph unicode="9" horiz-adv-x="588" d="M389 314Q351 271 308 241T226 210Q180 210 142 233T82 297T59 386Q59 446 89 493T172 568T294 596Q364 596 417 562T500 471T531 348Q531 282 504 219T423 105T293 20T116 -19L97 52Q192 73 250 111T336 214T363 372Q363
413 352 448T322 504T282 526Q255 526 237 500T218 436Q218 383 238 353T293 322Q315 322 335 331T370 351T391 369L389 314Z" />
<glyph unicode=":" horiz-adv-x="319" d="M159 -10Q113 -10 80 20T46 95Q46 125 61 150T103 189T159 204Q206 204 239 172T273 95Q273 51 240 21T159 -10ZM159 242Q113 242 80 272T46 346Q46 377 61 401T103 441T159 456Q206 456 239 424T273 346Q273 303 240
273T159 242Z" />
<glyph unicode=";" horiz-adv-x="319" d="M52 -233L30 -183Q100 -154 125 -123T150 -58Q150 -33 140 -17T113 11T81 35T55 64T44 108Q44 151 76 177T155 204Q185 204 213 191T261 146T280 59Q280 -4 257 -58T183 -156T52 -233ZM159 242Q113 242 80 272T46 346Q46
377 61 401T103 441T159 456Q206 456 239 424T273 346Q273 303 240 273T159 242Z" />
<glyph unicode="&lt;" horiz-adv-x="540" d="M53 201V313L487 484V373L89 218V291L487 138V29L53 201Z" />
<glyph unicode="=" horiz-adv-x="540" d="M487 395V294H53V395H487ZM487 217V116H53V217H487Z" />
<glyph unicode="&gt;" horiz-adv-x="540" d="M487 201L53 29V138L451 291V218L53 373V484L487 313V201Z" />
<glyph unicode="?" horiz-adv-x="394" d="M104 253Q95 281 90 303T85 347Q85 380 101 402T142 441T192 469T233 495T250 528Q250 540 240 549T207 558Q181 558 156 550T100 541Q58 541 30 563T1 622Q1 657 28 677T98 698Q149 698 196 680T281 629T341 556T363
470Q363 425 344 399T297 359T241 335T193 313T174 280Q174 278 174 272T176 253H104ZM139 -10Q108 -10 83 5T42 45T26 100Q26 132 41 157T83 198T139 214Q186 214 219 181T253 100Q253 54 220 22T139 -10Z" />
<glyph unicode="@" horiz-adv-x="1023" d="M527 -227Q427 -227 340 -200T189 -121T88 4T51 168Q51 270 91 349T201 482T362 564T556 592Q642 592 719 573T855 516T947 420T981 288Q981 230 957 177T890 82T797 16T691 -8Q653 -8 634 3T605 36L583 86L608 80Q578
40 545 16T482 -8Q433 -8 398 13T345 65T327 121Q327 160 349 185T418 223L578 266V291Q578 311 566 329T533 359T492 371Q481 371 476 365T469 343L462 269Q450 267 439 266T417 264Q378 264 355 279T332 323Q332 345 355 367T413 408T480 439T533 454Q631 454
688 413T744 299L741 168Q741 119 743 103T750 76Q784 76 810 98T851 167T867 283Q867 372 830 426T722 504T553 528Q441 528 360 486T235 366T191 178Q191 70 233 -5T353 -119T537 -158Q593 -158 636 -151T721 -128L741 -188Q710 -200 676 -209T605 -222T527 -227ZM548
101Q556 101 564 103T580 111V204L540 202Q515 201 504 189T493 159Q493 137 510 119T548 101Z" />
<glyph unicode="A" horiz-adv-x="633" d="M0 0L-3 57L50 76L252 550L351 605L589 76L642 57L639 0H330L325 57L391 76L342 191L331 228L236 442L270 420L200 233L191 203L147 76L213 57L210 0H0ZM162 160V238Q183 237 204 235T264 233Q301 233 324 235T367 238V161Q359
161 335 162T264 163Q215 163 193 162T162 160Z" />
<glyph unicode="B" horiz-adv-x="636" d="M96 76Q99 81 101 127T103 234V354Q103 413 101 459T96 510L31 531L34 587H348Q458 587 510 553T563 446Q563 391 512 355T377 313L394 322Q489 317 541 278T593 174Q593 90 524 45T325 0H34L31 57L96 76ZM269 177Q269
140 270 114T272 75Q281 71 295 69T325 66Q366 66 390 91T414 157Q414 212 387 237T297 262Q289 262 278 262T253 259V336Q268 335 276 335T292 334Q340 334 362 359T384 430Q384 472 362 498T289 524H271Q270 514 270 483T269 407V177Z" />
<glyph unicode="C" horiz-adv-x="638" d="M380 -9Q276 -9 200 26T84 126T43 280Q43 359 71 418T150 517T266 576T407 596Q456 596 502 586T578 560L585 397L513 393L473 505Q454 513 436 516T398 520Q352 520 317 497T261 426T241 309Q241 237 264 184T325 101T411
71Q439 71 462 78T503 99L536 193L616 185L587 46Q556 23 499 7T380 -9Z" />
<glyph unicode="D" horiz-adv-x="727" d="M35 587H332Q496 587 587 512T679 302Q679 215 636 147T516 39T340 0H35L32 57L97 76Q100 80 102 124T104 234V354Q104 417 102 463T97 513L32 530L35 587ZM273 512Q273 507 273 485T272 430T271 354V234Q271 210 271
181T273 125T276 85Q292 81 313 79T353 76Q425 76 461 120T497 269Q497 343 481 391T439 466T383 504T325 516Q313 516 299 515T273 512Z" />
<glyph unicode="E" horiz-adv-x="601" d="M544 -7Q513 -5 465 -3T378 0H33L30 57L95 76Q97 80 99 103T102 161T103 234V354Q103 393 102 428T99 485T95 511L30 530L33 587H331Q356 587 391 587T461 589T516 593L547 434L481 425L441 517Q425 520 414 521T391 522H339Q320
522 301 522T272 519Q271 509 271 494T270 454T269 390V217Q269 177 269 150T270 105T272 76Q292 73 314 72T374 71H400Q428 71 439 71T456 72T471 75L528 178L592 166L544 -7ZM407 196L398 263Q391 263 374 263T335 264H296Q276 264 261 263T243 261V342Q246 341
261 340T296 338H335Q356 338 373 338T398 339L407 404H471V196H407Z" />
<glyph unicode="F" horiz-adv-x="566" d="M37 0L34 57L96 76Q98 80 99 104T102 163T103 236L104 344Q104 386 103 423T101 484T97 512L32 530L35 587H322Q348 587 385 588T457 590T508 593L539 434L474 425L433 517Q417 520 406 521T383 522H330Q311 522 296 521T269
516Q269 510 269 508T269 497T269 466T269 400L270 156Q270 155 271 137T274 100T277 76L358 59L355 0H37ZM397 184L388 254Q372 256 355 256T326 257H285Q263 257 247 256T222 253V335Q232 334 248 333T285 331H326Q346 331 363 332T388 333L397 397H463V184H397Z"
/>
<glyph unicode="G" horiz-adv-x="672" d="M371 -9Q272 -9 198 26T82 124T41 275Q41 356 69 416T148 516T264 576T406 596Q454 596 499 586T572 560L576 412L502 410L469 505Q450 514 432 517T396 520Q349 520 313 497T256 426T235 309Q235 237 258 183T320 100T406
70Q412 70 423 71T444 74L421 21V128Q421 142 420 164T416 200L343 219L346 278H634L637 221L584 201Q583 186 583 165T583 124Q583 114 584 93T586 44Q540 16 485 4T371 -9Z" />
<glyph unicode="H" horiz-adv-x="728" d="M391 0L388 57L450 76Q452 82 453 107T456 166T457 234V354Q457 388 456 423T454 483T450 513L388 530L391 587H694L697 530L632 513Q631 508 629 480T626 417T624 354V234Q624 208 625 173T629 110T632 76L697 57L694
0H391ZM33 0L30 57L95 76Q97 80 99 103T102 161T103 234V354Q103 393 102 428T99 486T95 513L30 530L33 587H336L339 530L277 513Q275 508 274 483T271 423T270 354V234Q270 201 271 167T273 107T277 76L339 57L336 0H33ZM239 255V342Q267 339 294 338T363 337Q405
337 432 338T487 342V255Q468 255 438 257T363 259Q318 259 289 257T239 255Z" />
<glyph unicode="I" horiz-adv-x="374" d="M33 0L30 57L95 76Q97 80 99 103T102 161T103 234V354Q103 393 102 428T99 486T95 513L30 530L33 587H339L342 530L277 513Q275 508 274 483T271 423T270 354V234Q270 201 271 167T273 107T277 76L342 57L339 0H33Z" />
<glyph unicode="J" horiz-adv-x="374" d="M277 513Q275 509 274 486T271 428T270 357L272 -4Q272 -64 247 -108T175 -178T68 -203Q-4 -203 -48 -178T-93 -111Q-93 -83 -76 -66T-35 -49Q-13 -49 5 -58T46 -88L129 -164L60 -139Q82 -142 91 -136T102 -103T105 -18L103
360Q103 393 102 426T99 485T95 515L23 530L26 587H339L342 530L277 513Z" />
<glyph unicode="K" horiz-adv-x="704" d="M379 0L374 57L421 67Q416 78 411 86T391 115L286 250H250V303L284 309L490 519L425 530L428 587H678L681 528L608 517L403 340L395 392L589 151Q617 117 632 100T654 76T664 64L717 58V0H379ZM37 0L34 57L99 76Q101 81
102 127T104 234V354Q104 393 103 427T100 485T96 511L31 530L34 587H340L343 530L278 511Q276 506 275 482T272 423T271 354V234Q271 173 272 127T276 76L322 57L319 0H37Z" />
<glyph unicode="L" horiz-adv-x="581" d="M520 -8Q489 -5 451 -3T378 -1T326 0H34L31 57L96 76Q98 81 99 106T102 166T103 234V354Q103 389 102 423T100 482T96 512L31 530L34 587H358L361 528L278 510Q277 507 275 484T272 426T271 354V234Q271 170 272 137T276
89Q295 86 315 85T363 84H383Q400 84 418 86T444 91L502 207L574 189L520 -8Z" />
<glyph unicode="M" horiz-adv-x="922" d="M45 587H278L487 166H451L629 587H871L874 530L809 512Q808 492 809 464T811 393L818 223Q820 186 822 153T826 99T830 76L895 57L892 0H583L580 57L645 76Q647 79 647 101T648 158T648 231L644 558H703L467 -3H386L106
558H193L194 210Q194 138 195 109T197 76L268 57L265 0H32L29 57L100 76Q101 81 101 103T103 156T104 213L106 390Q107 437 107 468T107 511L42 530L45 587Z" />
<glyph unicode="N" horiz-adv-x="719" d="M530 210V320Q530 362 530 404T528 476T523 511L452 530L455 587H683L686 530L621 511Q619 506 617 477T615 405T614 320V159Q614 104 614 67T613 -6H542L118 442H192V286Q192 236 192 191T195 114T200 76L271 57L268
0H35L32 57L97 76Q99 83 100 116T103 195T104 286V394Q104 406 103 430T100 479T97 511L32 530L35 587H207L585 210H530Z" />
<glyph unicode="O" horiz-adv-x="726" d="M370 -9Q275 -9 201 29T84 133T41 283Q41 374 83 444T199 555T369 596Q462 596 533 559T644 456T684 304Q684 220 653 161T572 64T469 9T370 -9ZM376 78Q417 78 442 100T480 167T492 277Q492 352 476 406T429 489T357
519Q300 519 267 467T234 319Q234 248 252 194T302 109T376 78Z" />
<glyph unicode="P" horiz-adv-x="611" d="M37 0L34 57L95 76Q98 80 99 104T102 162T103 229L104 362Q104 394 103 428T101 487T96 517L31 530L34 587H314Q452 587 516 542T581 413Q581 358 552 312T465 239T317 211Q304 211 288 213T258 218V296Q263 293 279 290T319
286Q360 286 381 316T403 399Q403 464 373 494T284 524H272Q272 515 272 498T271 448T271 362L272 229Q272 196 273 162T276 104T279 75L360 59L357 0H37Z" />
<glyph unicode="Q" horiz-adv-x="726" d="M370 -6Q275 -6 201 31T84 133T41 283Q41 374 83 444T199 555T369 596Q462 596 533 559T644 456T684 304Q684 220 654 162T577 67T479 14T385 -3L370 -6ZM618 -155Q546 -155 494 -140T407 -102T347 -56Q330 -39 319 -29T298
-11T279 2T258 15H438Q476 15 515 6T579 -17Q623 -42 645 -50T691 -58Q702 -58 718 -56T754 -49L771 -111Q745 -130 706 -142T618 -155ZM376 78Q416 78 441 100T479 166T492 277Q492 352 476 406T429 489T357 519Q300 519 267 467T234 319Q234 248 252 194T302
109T376 78Z" />
<glyph unicode="R" horiz-adv-x="668" d="M39 0L36 57L101 75Q101 81 101 99T102 143T103 192T104 234V354Q104 393 103 427T100 485T96 511L31 530L34 587H317Q445 587 504 550T563 430Q563 381 532 343T445 282T317 260H244V326H289Q332 326 360 356T388 435Q388
478 365 501T298 524H272Q272 520 272 501T271 456T270 402T270 356V234Q270 218 270 187T271 125T272 75L326 57L323 0H39ZM591 -13Q528 -13 478 6T393 62T335 153L286 276L419 307L545 137Q561 117 580 100T621 69T668 47L667 -6Q647 -10 629 -11T591 -13Z" />
<glyph unicode="S" horiz-adv-x="542" d="M245 -9Q203 -9 150 4T56 39L52 198L130 202L167 90Q183 80 208 73T257 66Q298 66 318 81T339 125Q339 158 319 178T266 211T196 237T127 270T74 322T53 408Q53 465 86 508T179 575T320 599Q341 599 369 595T424 585T470
569L485 410L409 406L374 513Q346 525 310 525Q277 525 252 508T227 454Q227 423 248 404T302 371T372 343T443 309T497 258T518 177Q518 123 484 81T389 15T245 -9Z" />
<glyph unicode="T" horiz-adv-x="653" d="M609 593L633 405L560 400L521 518Q512 520 500 520T470 521H439Q431 521 423 521T413 519Q413 513 412 481T411 404T410 309V242Q410 191 411 147T414 76L503 59L500 0H152L149 59L238 76Q240 103 241 147T242 242V309Q242
358 242 403T241 481T239 519Q237 520 229 520T213 521H181Q165 521 150 521T126 518L91 398L18 404L38 593Q48 593 70 592T118 590T168 588T207 587H441Q456 587 480 588T530 590T577 592T609 593Z" />
<glyph unicode="U" horiz-adv-x="733" d="M32 587H337L340 530L275 512Q274 498 273 472T270 415T269 354V282Q269 226 282 186T326 125T403 103Q451 103 480 123T522 183T536 279V336Q536 371 535 410T533 479T529 512L459 530L462 587H702L705 530L640 512Q638
509 636 480T633 411T632 336V255Q632 179 603 119T517 25T379 -9Q244 -9 173 61T101 262V354Q101 388 100 423T98 483T94 512L29 530L32 587Z" />
<glyph unicode="V" horiz-adv-x="637" d="M286 -3L46 511L-7 532L-4 587H294L297 530L234 511L395 154H344L489 511L419 530L422 587H640L645 532L592 511L347 -3H286Z" />
<glyph unicode="W" horiz-adv-x="1007" d="M514 382L345 -3H285L49 511L-4 530L-1 587H287L290 530L241 511L396 154H331L461 476L514 382ZM662 -3L421 511L372 530L375 587H670L673 530L608 511L766 154H713L851 511L784 530L787 587H1006L1009 530L956 511L722 -3H662Z" />
<glyph unicode="X" horiz-adv-x="628" d="M624 0H322L319 57L381 75L287 217L239 282L83 511L32 530L35 587H313L316 530L275 511L348 405L392 341L576 75L627 57L624 0ZM420 511L379 530L382 587H580L583 530L532 511L392 341L287 217L190 75L255 57L252 0H31L28
57L79 75L239 282L348 405L420 511Z" />
<glyph unicode="Y" horiz-adv-x="622" d="M555 511L337 160L393 281V178Q393 172 393 157T394 125T396 93T399 76L469 58L466 0H156L153 58L223 76Q225 79 225 93T227 124T228 157T228 178V281L268 160L67 511L16 530L19 587H320L323 530L258 511L373 305H344L460
511L390 530L393 587H603L606 530L555 511Z" />
<glyph unicode="Z" horiz-adv-x="570" d="M521 -6Q508 -5 478 -4T416 -2T363 0H143Q121 0 99 -1T57 -4V59L365 570V522H231Q195 522 175 520T138 516L116 412H41L39 590Q64 588 96 588T147 587H440Q460 587 480 587T521 589V526L221 26V71H370Q399 71 412 72T441
76L482 192L555 182L521 -6Z" />
<glyph unicode="[" horiz-adv-x="361" d="M340 -220H81V722H340V655H237V-153H340V-220Z" />
<glyph unicode="\" horiz-adv-x="448" d="M412 -180H297L-4 728H111L412 -180Z" />
<glyph unicode="]" horiz-adv-x="361" d="M21 -220V-153H124V655H21V722H280V-220H21Z" />
<glyph unicode="^" horiz-adv-x="540" d="M323 562L498 128H390L234 523H305L149 128H43L215 562H323Z" />
<glyph unicode="_" horiz-adv-x="529" d="M35 -83V0H494V-83H35Z" />
<glyph unicode="`" horiz-adv-x="600" d="M262 484L90 654L239 677L338 509L262 484Z" />
<glyph unicode="a" horiz-adv-x="523" d="M188 -8Q139 -8 104 13T51 65T33 121Q33 160 55 185T124 223L284 266V291Q284 311 272 329T239 359T198 371Q187 371 182 365T175 343L168 269Q110 258 74 273T38 323Q38 345 61 367T119 408T186 439T239 454Q337 454
394 413T450 299L447 178Q447 144 449 130T456 106L523 94V44L447 10Q428 1 410 -3T375 -8Q330 -8 311 36L289 86L314 80Q284 40 251 16T188 -8ZM254 101Q262 101 270 103T286 111V204L246 202Q221 201 210 189T199 159Q199 137 216 119T254 101Z" />
<glyph unicode="b" horiz-adv-x="580" d="M62 30Q64 62 65 102T66 186T67 271V360Q67 414 67 451T65 513T64 555T62 584L-12 594L-14 645L205 700L238 680Q235 639 233 599T229 508T225 378L228 377Q247 406 284 430T359 454Q409 454 452 430T522 359T549 249Q549
182 516 123T419 28T261 -9Q210 -9 163 0T62 30ZM288 83Q326 83 351 110T376 213Q375 283 348 311T287 340Q269 340 254 334T228 319V104Q240 95 257 89T288 83Z" />
<glyph unicode="c" horiz-adv-x="481" d="M268 -8Q201 -8 148 21T63 99T31 210Q31 273 64 329T157 419T295 454Q339 454 377 442T440 407T464 353Q464 324 445 310T403 295Q381 295 365 302T328 325L241 397L302 385Q279 390 257 376T220 332T205 255Q205 182
240 145T328 108Q350 108 376 119T431 162L465 130Q437 62 382 27T268 -8Z" />
<glyph unicode="d" horiz-adv-x="577" d="M379 -14L344 2L345 69L342 71Q320 25 290 7T227 -11Q177 -11 132 16T59 92T31 208Q31 265 53 310T111 386T193 435T287 452Q301 452 315 450T338 445Q338 466 338 486T337 525T336 559T334 587L262 595L260 645L477 700L510
680Q507 618 504 569T500 467L499 233Q499 187 501 161T505 103L573 90V40L379 -14ZM290 105Q298 105 315 113T340 138V368Q330 376 318 379T292 383Q254 383 228 348T202 250Q202 179 228 142T290 105Z" />
<glyph unicode="e" horiz-adv-x="497" d="M265 -8Q196 -8 144 23T62 105T32 217Q32 286 66 339T154 423T271 454Q362 454 414 400T467 257V229H177V286H348L329 255V298Q329 339 312 364T263 389Q241 389 225 377T199 340T190 276V250Q190 188 226 147T324 106Q358
106 386 118T440 159L474 126Q446 61 391 27T265 -8Z" />
<glyph unicode="f" horiz-adv-x="346" d="M326 0H16L13 52L75 70Q76 97 76 115T77 153T77 203T77 285L76 372V458Q76 526 104 580T180 666T287 698Q344 698 379 676T415 616Q415 591 401 578T360 564Q329 564 295 592L230 651L287 644Q262 644 250 611T237 513V444L239
372L240 283Q240 229 241 172T247 70L329 51L326 0ZM4 372V427L76 449L125 444H341V372H4Z" />
<glyph unicode="g" horiz-adv-x="539" d="M253 -228Q138 -228 75 -200T12 -120Q12 -87 53 -59T157 -23L202 -24Q184 -39 173 -59T161 -100Q161 -130 187 -146T267 -162Q315 -162 348 -142T381 -93Q381 -73 368 -63T322 -50L177 -36L171 -31Q112 -31 82 -12T52
40Q52 75 87 103T184 147L202 132Q195 128 190 122T184 107Q184 97 188 93T202 88L377 71Q452 64 487 30T522 -56Q522 -104 488 -143T392 -205T253 -228ZM255 115Q190 115 142 136T67 195T41 286Q41 336 70 374T150 435T263 457Q323 457 370 433T445 369T473 280Q473
231 446 194T370 136T255 115ZM265 184Q288 184 302 210T317 281Q317 329 302 358T262 388Q238 388 224 360T209 287Q209 241 224 213T265 184ZM524 352L380 369L362 421L524 443V352Z" />
<glyph unicode="h" horiz-adv-x="614" d="M12 0L9 52L71 70Q72 85 73 116T76 180T77 232V360Q77 395 77 426T76 485T74 538T71 584L-3 594L-5 645L214 700L247 680Q245 650 243 622T240 561T237 482T235 370L238 369Q267 411 306 432T388 454Q434 454 468 432T522
368T542 270V169Q542 137 543 107T546 70L608 52L605 0H325L322 52L376 70Q378 83 379 102T380 141T381 173V242Q381 277 372 299T346 331T308 341Q289 341 271 333T239 308V163Q239 132 240 105T243 70L301 52L298 0H12Z" />
<glyph unicode="i" horiz-adv-x="319" d="M10 0L7 54L72 70Q73 75 74 92T76 130T77 167L78 241Q78 269 77 287T70 335L4 349V401L212 452L247 434Q244 400 243 366T241 291V163Q241 138 242 108T245 70L310 54L307 0H10ZM161 512Q110 512 84 541T57 608Q57 646
83 675T161 704Q212 704 237 675T263 608Q263 571 238 542T161 512Z" />
<glyph unicode="j" horiz-adv-x="316" d="M18 -229L-10 -178Q37 -148 57 -107T78 -8L79 235Q79 264 78 284T71 334L5 349V401L214 452L250 434Q247 403 246 367T244 275L246 44Q246 -1 227 -44T175 -125T101 -189T18 -229ZM161 512Q110 512 84 541T57 608Q57 646
83 675T161 704Q212 704 237 675T263 608Q263 571 238 542T161 512Z" />
<glyph unicode="k" horiz-adv-x="602" d="M17 0L14 52L71 70Q73 89 74 120T76 185T77 243V360Q77 395 77 426T76 485T74 538T72 584L-2 594L-4 645L215 700L248 680Q246 655 245 631T243 575T242 499T241 385L240 172Q240 156 240 135T240 96T242 70L304 52L301
0H17ZM606 0H402Q390 18 378 36T350 72L250 191H228V237L253 241L402 382L336 393L339 446H576L579 393L513 381L357 258L370 309L526 118Q549 90 560 76T578 58L610 51L606 0Z" />
<glyph unicode="l" horiz-adv-x="319" d="M9 0L6 54L71 70Q72 85 73 116T76 180T77 232V360Q77 393 77 423T76 482T74 536T71 584L-3 594L-5 645L216 700L249 680Q246 639 245 601T244 513T243 391L242 254Q242 177 243 130T246 70L311 54L308 0H9Z" />
<glyph unicode="m" horiz-adv-x="898" d="M13 0L10 52L72 70Q73 75 74 92T76 130T77 167L78 241Q78 259 78 272T76 299T70 335L6 349V401L207 452L241 434L235 372L238 371Q270 414 306 434T382 454Q424 454 458 435T512 375T533 272L535 169Q535 138 536 108T539
70L589 52L586 0H324L321 52L369 70Q371 83 372 102T373 141T374 173L372 257Q372 288 364 306T341 333T305 341Q288 341 270 332T240 308V163Q240 138 241 108T244 70L296 52L293 0H13ZM617 0L614 52L661 70Q663 83 664 102T665 142T666 173L663 241Q663 278 655
300T630 331T590 341Q572 341 553 334T524 315L487 349Q524 401 565 427T656 454Q705 454 743 434T802 372T824 269L827 169Q827 138 828 108T831 70L893 52L890 0H617Z" />
<glyph unicode="n" horiz-adv-x="614" d="M12 0L9 52L71 70Q72 75 73 92T75 130T76 167L77 242Q77 271 76 288T69 335L5 349V401L206 452L240 434L234 369L237 368Q266 411 305 432T388 454Q434 454 468 432T522 368T542 270V169Q542 137 543 108T546 70L608 52L605
0H325L322 52L376 70Q378 83 379 102T380 141T381 173V242Q381 277 372 299T346 331T308 341Q289 341 271 333T239 308V163Q239 137 240 108T243 70L301 52L298 0H12Z" />
<glyph unicode="o" horiz-adv-x="551" d="M279 -8Q207 -8 151 20T63 100T31 216Q31 294 67 347T162 427T284 454Q353 454 406 425T490 346T520 229Q520 162 488 109T401 24T279 -8ZM290 67Q310 67 322 80T341 121T347 189Q347 276 325 330T265 384Q237 384 222
350T206 254Q206 202 217 160T247 92T290 67Z" />
<glyph unicode="p" horiz-adv-x="583" d="M9 -220L6 -168L68 -150Q68 -141 69 -116T71 -57T73 11T74 69L76 238Q76 267 75 286T68 335L4 349V401L205 452L239 434L231 367L234 365Q255 405 292 429T370 454Q414 454 455 431T524 362T551 245Q551 181 521 124T432
30T292 -7Q280 -7 267 -5T236 1V-54Q236 -84 237 -113T241 -150L323 -168L320 -220H9ZM292 78Q316 78 335 89T367 128T378 207Q378 262 365 290T332 329T293 340Q278 340 263 332T236 312V92Q249 86 263 82T292 78Z" />
<glyph unicode="q" horiz-adv-x="571" d="M271 -220L268 -168L340 -150Q341 -144 341 -130T341 -97T341 -57L343 70L340 73Q317 24 287 7T228 -11Q179 -11 134 16T61 92T32 208Q32 284 68 338T164 422T293 452Q325 452 353 447T404 431L457 475H501Q501 453 500
416T499 340T498 270L499 -14Q500 -72 501 -107T504 -150L566 -168L563 -220H271ZM289 105Q295 105 313 113T338 138L339 366Q329 374 316 378T291 383Q264 383 245 367T214 321T203 250Q203 179 230 142T289 105Z" />
<glyph unicode="r" horiz-adv-x="444" d="M13 0L10 52L72 70Q73 75 74 92T76 131T77 167L78 241Q78 268 77 286T70 335L6 349V401L203 452L237 433L233 354L236 353Q263 409 292 429T355 450Q384 450 407 433T431 377Q431 340 406 318T349 296Q321 296 300 305T252
342L288 341Q273 331 262 317T242 287L243 215Q244 172 244 141T246 92T247 71L334 54L331 0H13Z" />
<glyph unicode="s" horiz-adv-x="434" d="M196 -8Q151 -8 108 2T34 28L29 152H104L125 80Q166 59 204 59Q232 59 245 68T258 94Q258 114 241 127T171 159Q97 185 68 219T38 303Q38 348 65 382T142 435T256 454Q291 454 326 447T384 430L397 306H322L301 378Q291
385 276 388T250 391Q224 391 208 381T191 350Q191 330 212 316T292 279Q358 254 386 222T415 143Q415 74 355 33T196 -8Z" />
<glyph unicode="t" horiz-adv-x="388" d="M390 98Q377 48 334 19T233 -11Q158 -11 111 31T63 159L66 373H-4V409L197 559H232L230 401L228 169Q228 134 247 120T298 106Q313 106 330 112T360 129L390 98ZM182 373V445H364V373H182Z" />
<glyph unicode="u" horiz-adv-x="609" d="M536 103L604 90V40L410 -14L375 2L376 79L373 80Q345 28 309 9T236 -11Q160 -11 115 37T69 179V264Q69 289 69 306T66 335L-2 349V401L204 452L239 434Q237 405 235 358T233 265L232 197Q232 151 251 128T308 105Q325
105 342 114T371 143V219Q371 249 371 267T370 299T367 335L299 349V401L501 452L536 433Q534 425 533 406T532 355T532 279V193Q532 189 532 169T536 103Z" />
<glyph unicode="v" horiz-adv-x="518" d="M230 -4L41 376L-6 394L-3 446H292L295 394L233 376L331 169L302 170L391 376L329 394L332 446H524L527 394L480 376L282 -4H230Z" />
<glyph unicode="w" horiz-adv-x="856" d="M564 -4L379 376L334 394L337 446H618L621 394L569 376L661 169L637 170L732 376L680 394L683 446H863L866 394L819 376L616 -4H564ZM231 -4L42 376L-5 394L-1 446H275L278 394L234 376L330 169L303 170L405 373L447 303L283
-4H231Z" />
<glyph unicode="x" horiz-adv-x="552" d="M546 0H267L264 52L311 70L228 170L188 219L60 376L13 394L16 446H291L294 394L252 376L318 296L357 246L502 70L549 52L546 0ZM376 376L334 394L337 446H519L522 394L475 376L357 246L228 170L158 70L205 52L202 0H13L10
52L57 70L188 219L318 296L376 376Z" />
<glyph unicode="y" horiz-adv-x="518" d="M229 -4L41 376L-6 394L-3 446H292L295 394L233 376L330 169L229 -4ZM524 446L527 394L480 376L303 38L224 -127Q195 -188 165 -208T102 -228Q62 -228 40 -209T18 -163Q18 -135 39 -114T103 -81L237 -45L157 -89L285 143L300
170L391 376L329 394L332 446H524Z" />
<glyph unicode="z" horiz-adv-x="492" d="M213 19L204 70H307Q330 70 347 71T381 74L409 164H485L464 -3Q438 -1 405 -1T349 0H134Q112 0 90 -1T45 -4V54L290 427L291 379H210Q176 379 156 378T119 374L105 287H31L28 448Q55 447 88 447T143 446H361Q383 446 405
446T450 448V391L213 19Z" />
<glyph unicode="{" horiz-adv-x="388" d="M270 -74Q270 -123 298 -144T364 -168L347 -228Q269 -220 209 -201T115 -145T81 -54Q81 -17 95 17T124 83T139 144Q139 166 133 180T105 203T39 213V289Q84 291 105 299T132 322T139 358Q139 387 125 418T96 484T81 556Q81
612 115 647T209 702T347 730L364 670Q327 668 299 647T270 576Q270 544 279 516T298 458T308 387Q308 326 265 292T158 252V266Q223 259 265 217T308 115Q308 75 299 45T280 -13T270 -74Z" />
<glyph unicode="|" horiz-adv-x="264" d="M81 -220V722H183V-220H81Z" />
<glyph unicode="}" horiz-adv-x="388" d="M118 -74Q118 -41 109 -14T90 44T80 115Q80 175 123 217T230 266V252Q166 258 123 292T80 387Q80 427 89 457T108 516T118 576Q118 626 89 647T24 670L41 730Q120 722 179 703T273 648T307 556Q307 519 293 485T264 419T249
358Q249 337 255 322T283 299T349 289V213Q304 212 283 204T256 181T249 144Q249 115 263 84T292 18T307 -54Q307 -109 273 -145T180 -200T41 -228L24 -168Q60 -166 89 -145T118 -74Z" />
<glyph unicode="~" horiz-adv-x="540" d="M438 316L487 284Q473 236 440 207T365 178Q338 178 310 187T253 209T202 230T162 240Q128 240 102 195L53 228Q67 278 100 306T175 334Q202 334 230 325T287 304T338 283T378 274Q397 274 412 285T438 316Z" />
<glyph unicode="&#xa0;" horiz-adv-x="200" />
<glyph unicode="&#xa1;" horiz-adv-x="313" d="M122 191H191L267 -36Q280 -89 270 -133T231 -202T157 -228Q112 -228 83 -203T43 -133T46 -36L122 191ZM157 454Q204 454 237 423T270 344Q270 313 255 287T214 246T157 230Q126 230 100 245T59 287T43 344Q43 374
58 399T100 439T157 454Z" />
<glyph unicode="&#xa2;" horiz-adv-x="481" d="M268 -8Q201 -8 148 21T63 99T31 210Q31 273 64 329T157 419T295 454Q339 454 377 442T440 407T464 353Q464 324 446 310T407 295Q388 295 373 302T339 325L260 397L302 385Q279 390 257 376T220 332T205 255Q205
182 240 145T328 108Q350 108 376 119T431 162L465 130Q437 62 382 27T268 -8ZM264 -141V587H346V-141H264Z" />
<glyph unicode="&#xa3;" horiz-adv-x="605" d="M52 -15L41 47Q106 64 130 91T155 173Q155 211 145 244T122 305T99 356T89 395Q89 454 124 499T223 570T372 596Q455 596 505 571T555 499Q555 474 538 457T494 439Q472 439 456 445T423 465L314 561L363 533Q328
538 306 525T275 490T265 444Q265 417 276 390T298 334T309 268Q309 237 305 214T287 168T243 112T163 32L153 49Q200 84 230 105T282 137T330 147Q363 147 396 136T467 125Q507 125 522 139T554 185L605 161Q592 114 566 75T504 13T422 -10Q374 -10 347 -5T300
6T262 17T213 22Q201 22 186 21T140 11T52 -15ZM26 271V340H465V271H26Z" />
<glyph unicode="&#xa4;" horiz-adv-x="540" d="M266 103Q204 103 154 133T74 215T44 328Q44 391 73 442T153 524T266 555Q328 555 378 525T457 443T487 328Q487 267 458 216T378 134T266 103ZM70 63L8 123L138 257L202 197L70 63ZM468 64L326 209L379 276L529
123L468 64ZM266 169Q284 169 298 191T321 249T330 330Q330 375 322 410T299 467T266 490Q249 491 234 470T210 412T201 330Q201 286 209 250T233 191T266 169ZM116 423L8 534L70 596L184 480L116 423ZM408 406L339 470L463 599L530 531L408 406Z" />
<glyph unicode="&#xa5;" horiz-adv-x="622" d="M82 246V314H538V246H82ZM82 132V200H538V132H82ZM554 511L336 160L392 281V178Q392 172 392 157T393 125T395 93T398 76L468 58L465 0H155L152 58L222 76Q224 79 224 93T226 124T227 157T227 178V281L267 160L66
511L16 530L20 587H319L322 530L257 511L372 305H343L459 511L389 530L392 587H600L604 530L554 511Z" />
<glyph unicode="&#xa6;" horiz-adv-x="264" d="M81 350V722H183V350H81ZM81 -220V152H183V-220H81Z" />
<glyph unicode="&#xa7;" horiz-adv-x="480" d="M231 247L211 266Q263 274 287 292T312 338Q312 361 294 377T246 405T183 431T120 460T72 501T53 561Q53 601 81 632T156 681T254 699Q298 699 337 693T398 675L408 564H331L315 627Q305 632 289 634T263 636Q238
636 222 626T206 593Q206 574 223 562T269 540T328 519T387 491T432 448T450 382Q450 345 429 319T374 276T302 253T231 247ZM213 -8Q163 -8 125 0T64 20L62 134H139L151 71Q162 65 176 62T197 59Q232 59 248 71T265 103Q265 120 248 131T205 151T148 170T91 196T47
236T30 298Q30 337 52 365T110 411T185 437T260 445L278 426Q222 417 197 398T171 349Q171 327 189 312T235 284T296 260T356 231T403 192T421 133Q421 94 393 62T317 11T213 -8Z" />
<glyph unicode="&#xa8;" horiz-adv-x="600" d="M197 501Q156 501 135 525T114 578Q114 607 135 631T197 655Q237 655 258 631T279 578Q279 550 258 526T197 501ZM405 501Q363 501 342 525T321 578Q321 607 342 631T405 655Q444 655 465 631T486 578Q486 550 465
526T405 501Z" />
<glyph unicode="&#xa9;" horiz-adv-x="822" d="M412 -13Q334 -13 267 14T149 91T70 206T41 349Q41 426 69 492T148 607T266 683T412 711Q490 711 556 684T673 607T752 492T780 349Q780 272 752 206T674 91T557 15T412 -13ZM429 153Q358 153 307 176T228 242T201
341Q201 399 223 439T282 505T363 541T452 553Q491 553 522 546T573 528L578 410L517 408L487 487Q478 492 471 492T456 493Q437 493 418 481T385 440T372 364Q372 299 401 257T470 215Q479 215 492 218T519 232L535 296L605 289L583 192Q572 183 548 174T492 159T429
153ZM412 43Q476 43 531 66T629 131T694 229T718 350Q718 415 695 470T629 567T532 632T412 655Q347 655 292 632T194 568T129 471T106 350Q106 285 129 229T194 132T291 67T412 43Z" />
<glyph unicode="&#xaa;" horiz-adv-x="446" d="M150 217Q113 217 85 234T42 278T26 330Q26 359 41 381T91 410L230 440V452Q230 484 211 499T169 515Q161 515 157 511T152 497L147 436Q94 428 64 443T34 477Q34 499 55 519T106 557T163 584T202 595Q292 595 337
560T382 463V389Q382 370 384 354T390 325L446 311V266L371 232Q352 223 340 220T316 217Q294 217 282 228T258 258L237 294L255 289Q230 250 203 234T150 217ZM224 311Q226 311 227 311T232 313V390L207 386Q193 384 184 375T175 350Q175 334 185 323T224 311Z"
/>
<glyph unicode="&#xab;" horiz-adv-x="702" d="M637 391L477 186V264L637 59L594 14L343 197V254L594 436L637 391ZM366 391L206 186V264L366 59L323 14L72 197V254L323 436L366 391Z" />
<glyph unicode="&#xac;" horiz-adv-x="540" d="M487 394V116H387V294H53V394H487Z" />
<glyph unicode="&#xad;" horiz-adv-x="404" d="M72 145V266L332 303V182L72 145Z" />
<glyph unicode="&#xae;" horiz-adv-x="822" d="M210 204L255 218Q256 221 256 241T256 287T257 329V384Q257 402 257 426T255 471T250 494L205 507L208 554H426Q484 554 526 545T593 511T617 442Q617 410 593 385T528 345T435 330H398V375Q400 375 403 375T407
375Q429 375 446 390T464 440Q464 479 449 492T411 505H401V329Q401 313 401 289T402 245T403 218L430 204L427 157H213L210 204ZM588 152Q542 152 515 163T472 197T440 259L409 340L529 365L596 250Q601 240 615 226T654 200L645 158Q630 154 617 153T588 152ZM412
-13Q334 -13 267 14T149 91T70 206T41 349Q41 426 69 492T148 607T266 683T412 711Q490 711 556 684T673 607T752 492T780 349Q780 272 752 206T674 91T557 15T412 -13ZM412 43Q476 43 531 66T629 131T694 229T718 350Q718 415 695 470T629 567T532 632T412 655Q347
655 292 632T194 568T129 471T106 350Q106 285 129 229T194 132T291 67T412 43Z" />
<glyph unicode="&#xaf;" horiz-adv-x="600" d="M137 620H463V537H137V620Z" />
<glyph unicode="&#xb0;" horiz-adv-x="424" d="M211 302Q169 302 135 321T80 373T59 449Q59 493 79 526T134 579T211 598Q255 598 289 579T344 527T365 449Q365 407 345 374T290 321T211 302ZM211 376Q243 376 263 396T284 449Q284 483 264 503T211 524Q181 524
161 504T140 449Q140 417 160 397T211 376Z" />
<glyph unicode="&#xb1;" horiz-adv-x="540" d="M487 351V254H53V351H487ZM220 473H320V130H220V473ZM487 100V0H53V100H487Z" />
<glyph unicode="&#xb2;" horiz-adv-x="400" d="M27 249Q83 282 119 315T174 379T193 439Q193 466 177 481T130 497Q108 497 89 487T55 453L9 484Q35 539 82 566T189 593Q256 593 297 559T338 468Q338 414 288 366T148 286L152 294H252Q275 294 284 295T311 297L330
335L392 326L363 194Q351 195 331 195T290 197T253 198T234 199H85Q71 199 57 198T28 195L27 249Z" />
<glyph unicode="&#xb3;" horiz-adv-x="400" d="M205 410Q280 411 320 386T361 314Q361 280 334 253T259 209T153 193Q96 193 58 214T20 266Q20 287 34 300T68 313Q79 313 90 309T119 290L176 241L141 259Q169 245 191 256T213 300Q213 329 188 344T122 359Q112
359 107 359T104 359L98 411Q151 417 171 432T192 469Q192 482 181 491T143 500Q124 500 106 493T74 468L28 499Q54 543 99 568T200 593Q260 593 298 568T336 501Q336 458 293 431T181 392L205 410Z" />
<glyph unicode="&#xb4;" horiz-adv-x="600" d="M336 484L264 509L363 677L507 654L336 484Z" />
<glyph unicode="&#xb5;" horiz-adv-x="614" d="M541 103L609 90V40L415 -14L380 2L381 78L378 79Q354 28 326 9T273 -11Q258 -11 237 -2T199 20T174 39L197 36Q226 -9 242 -41T259 -112Q259 -167 232 -199T163 -231Q122 -231 90 -204T57 -118Q57 -68 60 -16T68
105T74 275Q74 279 74 292T71 335L3 349V401L209 452L244 434Q242 403 241 356T238 265L237 197Q237 151 256 128T313 105Q330 105 347 114T376 143V219Q376 250 376 268T375 300T372 335L304 349V401L506 452L541 433Q538 402 538 361T537 279V193Q537 177 538
156T541 103Z" />
<glyph unicode="&#xb6;" horiz-adv-x="616" d="M585 0H230L227 59L308 75Q309 79 310 97T313 134T315 160V305Q315 387 315 430T316 494T316 524H306Q260 524 229 498T197 422Q197 358 228 323T315 287Q358 287 395 293T479 312V229Q438 220 410 215T358 207T309
205Q170 205 96 254T21 398Q21 455 55 497T149 563T282 587H585L588 530L523 512Q522 508 521 484T518 425T517 354V234Q517 200 518 165T520 106T523 76L588 57L585 0ZM394 524V63H446L451 524H394Z" />
<glyph unicode="&#xb7;" horiz-adv-x="331" d="M165 113Q119 113 86 145T52 223Q52 255 67 281T109 322T165 338Q197 338 222 323T263 281T279 223Q279 177 246 145T165 113Z" />
<glyph unicode="&#xb8;" horiz-adv-x="600" d="M290 -223Q262 -223 235 -216T185 -195L209 -148Q226 -158 245 -165T283 -172Q307 -172 317 -162T328 -138Q328 -118 308 -109T254 -101L235 -82L293 11H359L300 -58L301 -34Q354 -34 389 -57T425 -121Q425 -165
386 -194T290 -223Z" />
<glyph unicode="&#xb9;" horiz-adv-x="400" d="M298 366Q298 349 299 326T301 284T303 261L372 250L369 199H81L78 250L147 261Q148 265 149 281T151 319T152 355V376Q152 385 151 405T149 445T147 476L72 465L68 518L310 598Q304 562 302 522T299 446T298 389V366Z" />
<glyph unicode="&#xba;" horiz-adv-x="460" d="M233 217Q173 217 126 240T52 304T25 397Q25 453 51 498T125 569T237 595Q295 595 339 571T409 506T435 412Q435 358 408 314T336 243T233 217ZM244 287Q262 287 269 304T277 367Q277 438 260 484T217 530Q201 530
193 508T184 440Q184 400 192 365T215 309T244 287Z" />
<glyph unicode="&#xbb;" horiz-adv-x="702" d="M336 391L379 436L630 254V197L379 14L336 59L496 264V186L336 391ZM65 391L108 436L359 254V197L108 14L65 59L225 264V186L65 391Z" />
<glyph unicode="&#xbc;" horiz-adv-x="951" d="M298 366Q298 349 299 326T301 284T303 261L372 250L369 199H81L78 250L147 261Q148 265 149 281T151 319T152 355V376Q152 385 151 405T149 445T147 476L72 465L68 518L310 598Q304 562 302 522T299 446T298 389V366ZM281
-59L618 711L691 679L357 -91L281 -59ZM879 62L926 51L923 0H680L677 51L734 62V264L744 269L641 162L643 171H934V96H558L551 139L792 391H884Q881 367 880 332T878 259L879 62Z" />
<glyph unicode="&#xbd;" horiz-adv-x="951" d="M298 366Q298 349 299 326T301 284T303 261L372 250L369 199H81L78 250L147 261Q148 265 149 281T151 319T152 355V376Q152 385 151 405T149 445T147 476L72 465L68 518L310 598Q304 562 302 522T299 446T298 389V366ZM281
-59L618 711L691 679L357 -91L281 -59ZM578 50Q634 83 670 116T725 180T744 240Q744 267 728 282T681 298Q659 298 640 288T606 254L560 285Q586 340 633 367T740 394Q807 394 848 360T889 269Q889 215 839 167T699 87L703 95H803Q826 95 835 96T862 98L881 136L943
127L914 -5Q902 -4 882 -4T841 -2T804 -1T785 0H636Q622 0 608 -1T579 -4L578 50Z" />
<glyph unicode="&#xbe;" horiz-adv-x="951" d="M205 410Q280 411 320 386T361 314Q361 280 334 253T259 209T153 193Q96 193 58 214T20 266Q20 287 34 300T68 313Q79 313 90 309T119 290L176 241L141 259Q169 245 191 256T213 300Q213 329 188 344T122 359Q112
359 107 359T104 359L98 411Q151 417 171 432T192 469Q192 482 181 491T143 500Q124 500 106 493T74 468L28 499Q54 543 99 568T200 593Q260 593 298 568T336 501Q336 458 293 431T181 392L205 410ZM281 -59L618 711L691 679L357 -91L281 -59ZM879 62L926 51L923
0H680L677 51L734 62V264L744 269L641 162L643 171H934V96H558L551 139L792 391H884Q881 367 880 332T878 259L879 62Z" />
<glyph unicode="&#xbf;" horiz-adv-x="394" d="M290 191Q299 163 304 141T309 96Q309 63 293 42T252 7T202 -16T161 -36T144 -63Q144 -76 154 -83T187 -91Q213 -91 238 -83T294 -74Q336 -74 364 -96T393 -155Q393 -189 367 -210T296 -231Q246 -231 199 -212T113
-161T53 -86T31 1Q31 40 50 62T97 95T153 114T201 132T220 164Q220 167 220 174T218 191H290ZM255 454Q286 454 311 439T352 399T368 344Q368 313 353 287T312 246T255 230Q208 230 175 263T141 344Q141 391 174 422T255 454Z" />
<glyph unicode="&#xc0;" horiz-adv-x="633" d="M0 0L-3 57L50 76L252 550L351 605L589 76L642 57L639 0H330L325 57L391 76L342 191L331 228L236 442L270 420L200 233L191 203L147 76L213 57L210 0H0ZM162 160V238Q183 237 204 235T264 233Q301 233 324 235T367
238V161Q359 161 335 162T264 163Q215 163 193 162T162 160ZM263 881L87 1017L230 1040L339 906L263 881Z" />
<glyph unicode="&#xc1;" horiz-adv-x="633" d="M0 0L-3 57L50 76L252 550L351 605L589 76L642 57L639 0H330L325 57L391 76L342 191L331 228L236 442L270 420L200 233L191 203L147 76L213 57L210 0H0ZM162 160V238Q183 237 204 235T264 233Q301 233 324 235T367
238V161Q359 161 335 162T264 163Q215 163 193 162T162 160ZM339 881L263 906L372 1040L515 1017L339 881Z" />
<glyph unicode="&#xc2;" horiz-adv-x="633" d="M0 0L-3 57L50 76L252 550L351 605L589 76L642 57L639 0H330L325 57L391 76L342 191L331 228L236 442L270 420L200 233L191 203L147 76L213 57L210 0H0ZM162 160V238Q183 237 204 235T264 233Q301 233 324 235T367
238V161Q359 161 335 162T264 163Q215 163 193 162T162 160ZM506 927L447 892L266 970H336L155 892L96 927L236 1026H366L506 927Z" />
<glyph unicode="&#xc3;" horiz-adv-x="633" d="M0 0L-3 57L50 76L252 550L351 605L589 76L642 57L639 0H330L325 57L391 76L342 191L331 228L236 442L270 420L200 233L191 203L147 76L213 57L210 0H0ZM162 160V238Q183 237 204 235T264 233Q301 233 324 235T367
238V161Q359 161 335 162T264 163Q215 163 193 162T162 160ZM477 1039L529 1009Q510 953 471 923T380 893Q352 893 318 903T251 922T197 932Q178 932 160 923T125 891L73 922Q93 978 132 1008T222 1038Q251 1038 285 1028T351 1008T405 998Q425 998 443 1007T477
1039Z" />
<glyph unicode="&#xc4;" horiz-adv-x="633" d="M0 0L-3 57L50 76L252 550L351 605L589 76L642 57L639 0H330L325 57L391 76L342 191L331 228L236 442L270 420L200 233L191 203L147 76L213 57L210 0H0ZM162 160V238Q183 237 204 235T264 233Q301 233 324 235T367
238V161Q359 161 335 162T264 163Q215 163 193 162T162 160ZM178 889Q137 889 116 913T95 966Q95 995 116 1019T178 1043Q218 1043 239 1019T260 966Q260 938 239 914T178 889ZM426 889Q384 889 363 913T342 966Q342 995 363 1019T426 1043Q465 1043 486 1019T507
966Q507 938 486 914T426 889Z" />
<glyph unicode="&#xc5;" horiz-adv-x="633" d="M0 0L-3 57L50 76L252 550L351 605L589 76L642 57L639 0H330L325 57L391 76L342 191L331 228L236 442L270 420L200 233L191 203L147 76L213 57L210 0H0ZM162 160V238Q183 237 204 235T264 233Q301 233 324 235T367
238V161Q359 161 335 162T264 163Q215 163 193 162T162 160ZM302 887Q250 887 216 919T181 999Q181 1047 215 1079T302 1111Q355 1111 388 1080T421 999Q421 950 388 919T302 887ZM303 940Q328 940 344 957T360 1000Q360 1026 344 1043T303 1060Q277 1060 261 1043T244
1000Q244 975 260 958T303 940Z" />
<glyph unicode="&#xc6;" horiz-adv-x="857" d="M798 -7Q784 -6 755 -5T692 -2T632 0H304L301 57L365 76Q367 102 367 137T367 208V492L405 498L119 76L183 58L180 0H-24L-27 58L30 76L361 553L370 511L273 529L276 587H585Q608 587 645 588T717 591T770 593L801
434L736 425L695 517Q678 520 668 521T644 522H603Q582 522 562 521T534 518Q534 511 534 500T533 464T532 390V217Q532 167 532 141T532 104T532 88T534 75Q561 74 586 73T636 71H657Q684 71 695 71T711 72T725 75L783 178L847 166L798 -7ZM149 150L176 228Q192
227 199 226T220 224T266 223Q301 223 331 224T394 228V152Q347 154 312 154T266 154Q223 154 195 153T149 150ZM660 196L652 263Q645 263 628 263T589 264H561Q541 264 525 263T506 261V342Q509 341 525 340T561 338H589Q610 338 627 338T652 340L660 404H725V196H660Z"
/>
<glyph unicode="&#xc7;" horiz-adv-x="638" d="M380 -9Q276 -9 200 26T84 126T43 280Q43 359 71 418T150 517T266 576T407 596Q456 596 502 586T578 560L585 397L513 393L473 505Q454 513 436 516T398 520Q352 520 317 497T261 426T241 309Q241 237 264 184T325
101T411 71Q439 71 462 78T503 99L536 193L616 185L587 46Q556 23 499 7T380 -9ZM346 -223Q318 -223 291 -216T241 -195L265 -148Q282 -158 301 -165T339 -172Q363 -172 373 -162T384 -138Q384 -118 364 -109T310 -101L291 -82L349 11H415L356 -58L357 -34Q410
-34 445 -57T481 -121Q481 -165 442 -194T346 -223Z" />
<glyph unicode="&#xc8;" horiz-adv-x="601" d="M544 -7Q513 -5 465 -3T378 0H33L30 57L95 76Q97 80 99 103T102 161T103 234V354Q103 393 102 428T99 485T95 511L30 530L33 587H331Q356 587 391 587T461 589T516 593L547 434L481 425L441 517Q425 520 414 521T391
522H339Q320 522 301 522T272 519Q271 509 271 494T270 454T269 390V217Q269 177 269 150T270 105T272 76Q292 73 314 72T374 71H400Q428 71 439 71T456 72T471 75L528 178L592 166L544 -7ZM407 196L398 263Q391 263 374 263T335 264H296Q276 264 261 263T243 261V342Q246
341 261 340T296 338H335Q356 338 373 338T398 339L407 404H471V196H407ZM266 881L90 1017L233 1040L342 906L266 881Z" />
<glyph unicode="&#xc9;" horiz-adv-x="601" d="M544 -7Q513 -5 465 -3T378 0H33L30 57L95 76Q97 80 99 103T102 161T103 234V354Q103 393 102 428T99 485T95 511L30 530L33 587H331Q356 587 391 587T461 589T516 593L547 434L481 425L441 517Q425 520 414 521T391
522H339Q320 522 301 522T272 519Q271 509 271 494T270 454T269 390V217Q269 177 269 150T270 105T272 76Q292 73 314 72T374 71H400Q428 71 439 71T456 72T471 75L528 178L592 166L544 -7ZM407 196L398 263Q391 263 374 263T335 264H296Q276 264 261 263T243 261V342Q246
341 261 340T296 338H335Q356 338 373 338T398 339L407 404H471V196H407ZM342 881L266 906L375 1040L518 1017L342 881Z" />
<glyph unicode="&#xca;" horiz-adv-x="601" d="M544 -7Q513 -5 465 -3T378 0H33L30 57L95 76Q97 80 99 103T102 161T103 234V354Q103 393 102 428T99 485T95 511L30 530L33 587H331Q356 587 391 587T461 589T516 593L547 434L481 425L441 517Q425 520 414 521T391
522H339Q320 522 301 522T272 519Q271 509 271 494T270 454T269 390V217Q269 177 269 150T270 105T272 76Q292 73 314 72T374 71H400Q428 71 439 71T456 72T471 75L528 178L592 166L544 -7ZM407 196L398 263Q391 263 374 263T335 264H296Q276 264 261 263T243 261V342Q246
341 261 340T296 338H335Q356 338 373 338T398 339L407 404H471V196H407ZM509 927L450 892L269 970H339L158 892L99 927L239 1026H369L509 927Z" />
<glyph unicode="&#xcb;" horiz-adv-x="601" d="M544 -7Q513 -5 465 -3T378 0H33L30 57L95 76Q97 80 99 103T102 161T103 234V354Q103 393 102 428T99 485T95 511L30 530L33 587H331Q356 587 391 587T461 589T516 593L547 434L481 425L441 517Q425 520 414 521T391
522H339Q320 522 301 522T272 519Q271 509 271 494T270 454T269 390V217Q269 177 269 150T270 105T272 76Q292 73 314 72T374 71H400Q428 71 439 71T456 72T471 75L528 178L592 166L544 -7ZM407 196L398 263Q391 263 374 263T335 264H296Q276 264 261 263T243 261V342Q246
341 261 340T296 338H335Q356 338 373 338T398 339L407 404H471V196H407ZM181 889Q140 889 119 913T98 966Q98 995 119 1019T181 1043Q221 1043 242 1019T263 966Q263 938 242 914T181 889ZM429 889Q387 889 366 913T345 966Q345 995 366 1019T429 1043Q468 1043
489 1019T510 966Q510 938 489 914T429 889Z" />
<glyph unicode="&#xcc;" horiz-adv-x="374" d="M33 0L30 57L95 76Q97 80 99 103T102 161T103 234V354Q103 393 102 428T99 486T95 513L30 530L33 587H339L342 530L277 513Q275 508 274 483T271 423T270 354V234Q270 201 271 167T273 107T277 76L342 57L339 0H33ZM405
881L229 1017L372 1040L481 906L405 881Z" />
<glyph unicode="&#xcd;" horiz-adv-x="374" d="M33 0L30 57L95 76Q97 80 99 103T102 161T103 234V354Q103 393 102 428T99 486T95 513L30 530L33 587H339L342 530L277 513Q275 508 274 483T271 423T270 354V234Q270 201 271 167T273 107T277 76L342 57L339 0H33ZM481
881L405 906L514 1040L657 1017L481 881Z" />
<glyph unicode="&#xce;" horiz-adv-x="374" d="M33 0L30 57L95 76Q97 80 99 103T102 161T103 234V354Q103 393 102 428T99 486T95 513L30 530L33 587H339L342 530L277 513Q275 508 274 483T271 423T270 354V234Q270 201 271 167T273 107T277 76L342 57L339 0H33ZM648
927L589 892L408 970H478L297 892L238 927L378 1026H508L648 927Z" />
<glyph unicode="&#xcf;" horiz-adv-x="374" d="M33 0L30 57L95 76Q97 80 99 103T102 161T103 234V354Q103 393 102 428T99 486T95 513L30 530L33 587H339L342 530L277 513Q275 508 274 483T271 423T270 354V234Q270 201 271 167T273 107T277 76L342 57L339 0H33ZM320
889Q279 889 258 913T237 966Q237 995 258 1019T320 1043Q360 1043 381 1019T402 966Q402 938 381 914T320 889ZM568 889Q526 889 505 913T484 966Q484 995 505 1019T568 1043Q607 1043 628 1019T649 966Q649 938 628 914T568 889Z" />
<glyph unicode="&#xd0;" horiz-adv-x="727" d="M35 587H332Q496 587 587 512T679 302Q679 215 636 147T516 39T340 0H35L32 57L97 76Q100 80 102 124T104 234V354Q104 417 102 463T97 513L32 530L35 587ZM273 512Q273 507 273 485T272 430T271 354V234Q271 210
271 181T273 125T276 85Q292 81 313 79T353 76Q425 76 461 120T497 269Q497 343 481 391T439 466T383 504T325 516Q313 516 299 515T273 512ZM279 511V589H683V511H279Z" />
<glyph unicode="&#xd1;" horiz-adv-x="719" d="M530 210V320Q530 362 530 404T528 476T523 511L452 530L455 587H683L686 530L621 511Q619 506 617 477T615 405T614 320V159Q614 104 614 67T613 -6H542L118 442H192V286Q192 236 192 191T195 114T200 76L271 57L268
0H35L32 57L97 76Q99 83 100 116T103 195T104 286V394Q104 406 103 430T100 479T97 511L32 530L35 587H207L585 210H530ZM534 1039L586 1009Q567 953 528 923T437 893Q409 893 375 903T308 922T254 932Q235 932 217 923T182 891L130 922Q150 978 189 1008T279 1038Q308
1038 342 1028T408 1008T462 998Q482 998 500 1007T534 1039Z" />
<glyph unicode="&#xd2;" horiz-adv-x="726" d="M370 -9Q275 -9 201 29T84 133T41 283Q41 374 83 444T199 555T369 596Q462 596 533 559T644 456T684 304Q684 220 653 161T572 64T469 9T370 -9ZM376 78Q417 78 442 100T480 167T492 277Q492 352 476 406T429 489T357
519Q300 519 267 467T234 319Q234 248 252 194T302 109T376 78ZM325 881L149 1017L292 1040L401 906L325 881Z" />
<glyph unicode="&#xd3;" horiz-adv-x="726" d="M370 -9Q275 -9 201 29T84 133T41 283Q41 374 83 444T199 555T369 596Q462 596 533 559T644 456T684 304Q684 220 653 161T572 64T469 9T370 -9ZM376 78Q417 78 442 100T480 167T492 277Q492 352 476 406T429 489T357
519Q300 519 267 467T234 319Q234 248 252 194T302 109T376 78ZM401 881L325 906L434 1040L577 1017L401 881Z" />
<glyph unicode="&#xd4;" horiz-adv-x="726" d="M370 -9Q275 -9 201 29T84 133T41 283Q41 374 83 444T199 555T369 596Q462 596 533 559T644 456T684 304Q684 220 653 161T572 64T469 9T370 -9ZM376 78Q417 78 442 100T480 167T492 277Q492 352 476 406T429 489T357
519Q300 519 267 467T234 319Q234 248 252 194T302 109T376 78ZM568 927L509 892L328 970H398L217 892L158 927L298 1026H428L568 927Z" />
<glyph unicode="&#xd5;" horiz-adv-x="726" d="M370 -9Q275 -9 201 29T84 133T41 283Q41 374 83 444T199 555T369 596Q462 596 533 559T644 456T684 304Q684 220 653 161T572 64T469 9T370 -9ZM376 78Q417 78 442 100T480 167T492 277Q492 352 476 406T429 489T357
519Q300 519 267 467T234 319Q234 248 252 194T302 109T376 78ZM539 1039L591 1009Q572 953 533 923T442 893Q414 893 380 903T313 922T259 932Q240 932 222 923T187 891L135 922Q155 978 194 1008T284 1038Q313 1038 347 1028T413 1008T467 998Q487 998 505 1007T539
1039Z" />
<glyph unicode="&#xd6;" horiz-adv-x="726" d="M370 -9Q275 -9 201 29T84 133T41 283Q41 374 83 444T199 555T369 596Q462 596 533 559T644 456T684 304Q684 220 653 161T572 64T469 9T370 -9ZM376 78Q417 78 442 100T480 167T492 277Q492 352 476 406T429 489T357
519Q300 519 267 467T234 319Q234 248 252 194T302 109T376 78ZM240 889Q199 889 178 913T157 966Q157 995 178 1019T240 1043Q280 1043 301 1019T322 966Q322 938 301 914T240 889ZM488 889Q446 889 425 913T404 966Q404 995 425 1019T488 1043Q527 1043 548 1019T569
966Q569 938 548 914T488 889Z" />
<glyph unicode="&#xd7;" horiz-adv-x="540" d="M408 464L478 392L131 48L62 119L408 464ZM131 464L478 119L408 48L62 392L131 464Z" />
<glyph unicode="&#xd8;" horiz-adv-x="726" d="M370 -9Q275 -9 201 29T84 133T41 283Q41 374 83 444T199 555T369 596Q462 596 533 559T644 456T684 304Q684 220 653 161T572 64T469 9T370 -9ZM376 78Q417 78 442 100T480 167T492 277Q492 352 476 406T429 489T357
519Q300 519 267 467T234 319Q234 248 252 194T302 109T376 78ZM180 -77L109 -35L546 665L617 623L180 -77Z" />
<glyph unicode="&#xd9;" horiz-adv-x="733" d="M32 587H337L340 530L275 512Q274 498 273 472T270 415T269 354V282Q269 226 282 186T326 125T403 103Q451 103 480 123T522 183T536 279V336Q536 371 535 410T533 479T529 512L459 530L462 587H702L705 530L640
512Q638 509 636 480T633 411T632 336V255Q632 179 603 119T517 25T379 -9Q244 -9 173 61T101 262V354Q101 388 100 423T98 483T94 512L29 530L32 587ZM364 881L188 1017L331 1040L440 906L364 881Z" />
<glyph unicode="&#xda;" horiz-adv-x="733" d="M32 587H337L340 530L275 512Q274 498 273 472T270 415T269 354V282Q269 226 282 186T326 125T403 103Q451 103 480 123T522 183T536 279V336Q536 371 535 410T533 479T529 512L459 530L462 587H702L705 530L640
512Q638 509 636 480T633 411T632 336V255Q632 179 603 119T517 25T379 -9Q244 -9 173 61T101 262V354Q101 388 100 423T98 483T94 512L29 530L32 587ZM440 881L364 906L473 1040L616 1017L440 881Z" />
<glyph unicode="&#xdb;" horiz-adv-x="733" d="M32 587H337L340 530L275 512Q274 498 273 472T270 415T269 354V282Q269 226 282 186T326 125T403 103Q451 103 480 123T522 183T536 279V336Q536 371 535 410T533 479T529 512L459 530L462 587H702L705 530L640
512Q638 509 636 480T633 411T632 336V255Q632 179 603 119T517 25T379 -9Q244 -9 173 61T101 262V354Q101 388 100 423T98 483T94 512L29 530L32 587ZM607 927L548 892L367 970H437L256 892L197 927L337 1026H467L607 927Z" />
<glyph unicode="&#xdc;" horiz-adv-x="733" d="M32 587H337L340 530L275 512Q274 498 273 472T270 415T269 354V282Q269 226 282 186T326 125T403 103Q451 103 480 123T522 183T536 279V336Q536 371 535 410T533 479T529 512L459 530L462 587H702L705 530L640
512Q638 509 636 480T633 411T632 336V255Q632 179 603 119T517 25T379 -9Q244 -9 173 61T101 262V354Q101 388 100 423T98 483T94 512L29 530L32 587ZM279 889Q238 889 217 913T196 966Q196 995 217 1019T279 1043Q319 1043 340 1019T361 966Q361 938 340 914T279
889ZM527 889Q485 889 464 913T443 966Q443 995 464 1019T527 1043Q566 1043 587 1019T608 966Q608 938 587 914T527 889Z" />
<glyph unicode="&#xdd;" horiz-adv-x="622" d="M555 511L337 160L393 281V178Q393 172 393 157T394 125T396 93T399 76L469 58L466 0H156L153 58L223 76Q225 79 225 93T227 124T228 157T228 178V281L268 160L67 511L16 530L19 587H320L323 530L258 511L373 305H344L460
511L390 530L393 587H603L606 530L555 511ZM349 881L273 906L382 1040L525 1017L349 881Z" />
<glyph unicode="&#xde;" horiz-adv-x="612" d="M35 0L32 57L94 76Q98 81 100 127T103 234V354Q103 416 101 462T95 514L30 530L33 587H333L336 530L271 514Q270 510 270 499T269 479V456L225 495H313Q451 495 515 451T580 321Q580 266 551 221T464 148T316 121Q303
121 287 123T257 128V205Q262 199 277 195T308 191Q356 191 379 222T402 307Q402 372 372 402T283 432H270V137Q270 113 270 97T270 76L351 59L348 0H35Z" />
<glyph unicode="&#xdf;" horiz-adv-x="666" d="M455 -8Q416 -8 380 2T314 28L308 150H377L392 78Q410 65 428 62T460 59Q482 59 494 71T506 104Q506 133 486 150T436 179T376 208T326 250T305 320Q305 349 319 371T351 416T383 466T397 532Q397 582 378 607T321
633Q284 633 262 606T239 525L241 257Q242 180 242 140T243 85T244 70L292 52L289 0H23L20 52L72 70Q74 85 75 110T77 164T77 213L75 372V465Q75 533 106 585T196 668T334 698Q424 698 481 659T536 549Q536 521 523 498T492 453T461 412T448 372Q448 347 468 332T520
304T581 272T632 225T653 149Q653 76 600 34T455 -8ZM-1 372V427L75 449L144 444V372H-1Z" />
<glyph unicode="&#xe0;" horiz-adv-x="523" d="M188 -8Q139 -8 104 13T51 65T33 121Q33 160 55 185T124 223L284 266V291Q284 311 272 329T239 359T198 371Q187 371 182 365T175 343L168 269Q110 258 74 273T38 323Q38 345 61 367T119 408T186 439T239 454Q337
454 394 413T450 299L447 178Q447 144 449 130T456 106L523 94V44L447 10Q428 1 410 -3T375 -8Q330 -8 311 36L289 86L314 80Q284 40 251 16T188 -8ZM254 101Q262 101 270 103T286 111V204L246 202Q221 201 210 189T199 159Q199 137 216 119T254 101ZM478 484L306
654L455 677L554 509L478 484Z" />
<glyph unicode="&#xe1;" horiz-adv-x="523" d="M188 -8Q139 -8 104 13T51 65T33 121Q33 160 55 185T124 223L284 266V291Q284 311 272 329T239 359T198 371Q187 371 182 365T175 343L168 269Q110 258 74 273T38 323Q38 345 61 367T119 408T186 439T239 454Q337
454 394 413T450 299L447 178Q447 144 449 130T456 106L523 94V44L447 10Q428 1 410 -3T375 -8Q330 -8 311 36L289 86L314 80Q284 40 251 16T188 -8ZM254 101Q262 101 270 103T286 111V204L246 202Q221 201 210 189T199 159Q199 137 216 119T254 101ZM552 484L480
509L579 677L723 654L552 484Z" />
<glyph unicode="&#xe2;" horiz-adv-x="523" d="M188 -8Q139 -8 104 13T51 65T33 121Q33 160 55 185T124 223L284 266V291Q284 311 272 329T239 359T198 371Q187 371 182 365T175 343L168 269Q110 258 74 273T38 323Q38 345 61 367T119 408T186 439T239 454Q337
454 394 413T450 299L447 178Q447 144 449 130T456 106L523 94V44L447 10Q428 1 410 -3T375 -8Q330 -8 311 36L289 86L314 80Q284 40 251 16T188 -8ZM254 101Q262 101 270 103T286 111V204L246 202Q221 201 210 189T199 159Q199 137 216 119T254 101ZM691 509L619
484L481 614H551L413 484L341 509L451 668H581L691 509Z" />
<glyph unicode="&#xe3;" horiz-adv-x="523" d="M188 -8Q139 -8 104 13T51 65T33 121Q33 160 55 185T124 223L284 266V291Q284 311 272 329T239 359T198 371Q187 371 182 365T175 343L168 269Q110 258 74 273T38 323Q38 345 61 367T119 408T186 439T239 454Q337
454 394 413T450 299L447 178Q447 144 449 130T456 106L523 94V44L447 10Q428 1 410 -3T375 -8Q330 -8 311 36L289 86L314 80Q284 40 251 16T188 -8ZM254 101Q262 101 270 103T286 111V204L246 202Q221 201 210 189T199 159Q199 137 216 119T254 101ZM662 658L714
628Q698 567 665 534T587 501Q563 501 534 512T477 534T431 545Q414 545 399 535T370 499L318 529Q335 590 368 623T445 656Q470 656 499 645T555 623T600 612Q618 612 633 622T662 658Z" />
<glyph unicode="&#xe4;" horiz-adv-x="523" d="M188 -8Q139 -8 104 13T51 65T33 121Q33 160 55 185T124 223L284 266V291Q284 311 272 329T239 359T198 371Q187 371 182 365T175 343L168 269Q110 258 74 273T38 323Q38 345 61 367T119 408T186 439T239 454Q337
454 394 413T450 299L447 178Q447 144 449 130T456 106L523 94V44L447 10Q428 1 410 -3T375 -8Q330 -8 311 36L289 86L314 80Q284 40 251 16T188 -8ZM254 101Q262 101 270 103T286 111V204L246 202Q221 201 210 189T199 159Q199 137 216 119T254 101ZM413 501Q372
501 351 525T330 578Q330 607 351 631T413 655Q453 655 474 631T495 578Q495 550 474 526T413 501ZM621 501Q579 501 558 525T537 578Q537 607 558 631T621 655Q660 655 681 631T702 578Q702 550 681 526T621 501Z" />
<glyph unicode="&#xe5;" horiz-adv-x="523" d="M188 -8Q139 -8 104 13T51 65T33 121Q33 160 55 185T124 223L284 266V291Q284 311 272 329T239 359T198 371Q187 371 182 365T175 343L168 269Q110 258 74 273T38 323Q38 345 61 367T119 408T186 439T239 454Q337
454 394 413T450 299L447 178Q447 144 449 130T456 106L523 94V44L447 10Q428 1 410 -3T375 -8Q330 -8 311 36L289 86L314 80Q284 40 251 16T188 -8ZM254 101Q262 101 270 103T286 111V204L246 202Q221 201 210 189T199 159Q199 137 216 119T254 101ZM517 479Q465
479 431 511T396 591Q396 638 430 670T517 702Q570 702 603 671T636 591Q636 542 603 511T517 479ZM518 532Q543 532 559 549T575 592Q575 618 559 634T518 651Q492 651 476 634T459 592Q459 566 475 549T518 532Z" />
<glyph unicode="&#xe6;" horiz-adv-x="751" d="M217 -8Q155 -8 114 15T54 68T34 121Q34 169 69 200T190 241L603 292L578 255V296Q578 343 563 366T522 389Q503 389 488 379T465 343T457 273V250Q457 190 490 148T584 106Q616 106 643 118T693 158L727 126Q702
61 648 27T525 -8Q461 -8 408 23T324 106T293 221V265Q293 297 281 321T248 358T204 371Q195 371 189 366T181 343L175 269Q114 257 79 273T44 323Q44 345 67 367T124 408T190 439T242 454Q313 454 362 432T439 366H377Q406 407 447 430T540 454Q625 454 672 397T719
249L255 191Q224 187 212 177T200 150Q200 128 221 115T266 101Q289 101 304 111T336 141L369 90Q337 54 308 33T255 2T217 -8Z" />
<glyph unicode="&#xe7;" horiz-adv-x="481" d="M268 -8Q201 -8 148 21T63 99T31 210Q31 273 64 329T157 419T295 454Q339 454 377 442T440 407T464 353Q464 324 445 310T403 295Q381 295 365 302T328 325L241 397L302 385Q279 390 257 376T220 332T205 255Q205
182 240 145T328 108Q350 108 376 119T431 162L465 130Q437 62 382 27T268 -8ZM516 -223Q488 -223 461 -216T411 -195L435 -148Q452 -158 471 -165T509 -172Q533 -172 543 -162T554 -138Q554 -118 534 -109T480 -101L461 -82L519 11H585L526 -58L527 -34Q580 -34
615 -57T651 -121Q651 -165 612 -194T516 -223Z" />
<glyph unicode="&#xe8;" horiz-adv-x="497" d="M265 -8Q196 -8 144 23T62 105T32 217Q32 286 66 339T154 423T271 454Q362 454 414 400T467 257V229H177V286H348L329 255V298Q329 339 312 364T263 389Q241 389 225 377T199 340T190 276V250Q190 188 226 147T324
106Q358 106 386 118T440 159L474 126Q446 61 391 27T265 -8ZM481 484L309 654L458 677L557 509L481 484Z" />
<glyph unicode="&#xe9;" horiz-adv-x="497" d="M265 -8Q196 -8 144 23T62 105T32 217Q32 286 66 339T154 423T271 454Q362 454 414 400T467 257V229H177V286H348L329 255V298Q329 339 312 364T263 389Q241 389 225 377T199 340T190 276V250Q190 188 226 147T324
106Q358 106 386 118T440 159L474 126Q446 61 391 27T265 -8ZM555 484L483 509L582 677L726 654L555 484Z" />
<glyph unicode="&#xea;" horiz-adv-x="497" d="M265 -8Q196 -8 144 23T62 105T32 217Q32 286 66 339T154 423T271 454Q362 454 414 400T467 257V229H177V286H348L329 255V298Q329 339 312 364T263 389Q241 389 225 377T199 340T190 276V250Q190 188 226 147T324
106Q358 106 386 118T440 159L474 126Q446 61 391 27T265 -8ZM694 509L622 484L484 614H554L416 484L344 509L454 668H584L694 509Z" />
<glyph unicode="&#xeb;" horiz-adv-x="497" d="M265 -8Q196 -8 144 23T62 105T32 217Q32 286 66 339T154 423T271 454Q362 454 414 400T467 257V229H177V286H348L329 255V298Q329 339 312 364T263 389Q241 389 225 377T199 340T190 276V250Q190 188 226 147T324
106Q358 106 386 118T440 159L474 126Q446 61 391 27T265 -8ZM416 501Q375 501 354 525T333 578Q333 607 354 631T416 655Q456 655 477 631T498 578Q498 550 477 526T416 501ZM624 501Q582 501 561 525T540 578Q540 607 561 631T624 655Q663 655 684 631T705 578Q705
550 684 526T624 501Z" />
<glyph unicode="&#xec;" horiz-adv-x="319" d="M10 0L7 54L72 70Q73 75 74 92T76 130T77 167L78 241Q78 269 77 287T70 335L4 349V401L212 452L247 434Q244 400 243 366T241 291V163Q241 138 242 108T245 70L310 54L307 0H10ZM122 484L-50 654L99 677L198 509L122 484Z" />
<glyph unicode="&#xed;" horiz-adv-x="319" d="M10 0L7 54L72 70Q73 75 74 92T76 130T77 167L78 241Q78 269 77 287T70 335L4 349V401L212 452L247 434Q244 400 243 366T241 291V163Q241 138 242 108T245 70L310 54L307 0H10ZM196 484L124 509L223 677L367 654L196 484Z" />
<glyph unicode="&#xee;" horiz-adv-x="319" d="M10 0L7 54L72 70Q73 75 74 92T76 130T77 167L78 241Q78 269 77 287T70 335L4 349V401L212 452L247 434Q244 400 243 366T241 291V163Q241 138 242 108T245 70L310 54L307 0H10ZM335 509L263 484L125 614H195L57
484L-15 509L95 668H225L335 509Z" />
<glyph unicode="&#xef;" horiz-adv-x="319" d="M10 0L7 54L72 70Q73 75 74 92T76 130T77 167L78 241Q78 269 77 287T70 335L4 349V401L212 452L247 434Q244 400 243 366T241 291V163Q241 138 242 108T245 70L310 54L307 0H10ZM57 501Q16 501 -5 525T-26 578Q-26
607 -5 631T57 655Q97 655 118 631T139 578Q139 550 118 526T57 501ZM265 501Q223 501 202 525T181 578Q181 607 202 631T265 655Q304 655 325 631T346 578Q346 550 325 526T265 501Z" />
<glyph unicode="&#xf0;" horiz-adv-x="542" d="M395 367Q376 373 354 376T312 380Q262 380 233 343T204 240Q204 177 219 139T255 85T297 68Q320 68 332 104T345 223Q345 339 314 421T213 556T30 637L32 688H211Q276 674 330 635T425 539T487 415T509 276Q509
138 445 65T278 -8Q207 -8 151 23T63 106T31 222Q31 295 65 346T163 425T313 452Q339 452 369 447T423 435L395 367ZM85 463L56 528L439 698L468 633L85 463Z" />
<glyph unicode="&#xf1;" horiz-adv-x="614" d="M12 0L9 52L71 70Q72 75 73 92T75 130T76 167L77 242Q77 271 76 288T69 335L5 349V401L206 452L240 434L234 369L237 368Q266 411 305 432T388 454Q434 454 468 432T522 368T542 270V169Q542 137 543 108T546 70L608
52L605 0H325L322 52L376 70Q378 83 379 102T380 141T381 173V242Q381 277 372 299T346 331T308 341Q289 341 271 333T239 308V163Q239 137 240 108T243 70L301 52L298 0H12ZM456 658L508 628Q492 567 459 534T381 501Q357 501 328 512T271 534T225 545Q208 545
193 535T164 499L112 529Q129 590 162 623T239 656Q264 656 293 645T349 623T394 612Q412 612 427 622T456 658Z" />
<glyph unicode="&#xf2;" horiz-adv-x="551" d="M279 -8Q207 -8 151 20T63 100T31 216Q31 294 67 347T162 427T284 454Q353 454 406 425T490 346T520 229Q520 162 488 109T401 24T279 -8ZM290 67Q310 67 322 80T341 121T347 189Q347 276 325 330T265 384Q237 384
222 350T206 254Q206 202 217 160T247 92T290 67ZM495 484L323 654L472 677L571 509L495 484Z" />
<glyph unicode="&#xf3;" horiz-adv-x="551" d="M279 -8Q207 -8 151 20T63 100T31 216Q31 294 67 347T162 427T284 454Q353 454 406 425T490 346T520 229Q520 162 488 109T401 24T279 -8ZM290 67Q310 67 322 80T341 121T347 189Q347 276 325 330T265 384Q237 384
222 350T206 254Q206 202 217 160T247 92T290 67ZM569 484L497 509L596 677L740 654L569 484Z" />
<glyph unicode="&#xf4;" horiz-adv-x="551" d="M279 -8Q207 -8 151 20T63 100T31 216Q31 294 67 347T162 427T284 454Q353 454 406 425T490 346T520 229Q520 162 488 109T401 24T279 -8ZM290 67Q310 67 322 80T341 121T347 189Q347 276 325 330T265 384Q237 384
222 350T206 254Q206 202 217 160T247 92T290 67ZM708 509L636 484L498 614H568L430 484L358 509L468 668H598L708 509Z" />
<glyph unicode="&#xf5;" horiz-adv-x="551" d="M279 -8Q207 -8 151 20T63 100T31 216Q31 294 67 347T162 427T284 454Q353 454 406 425T490 346T520 229Q520 162 488 109T401 24T279 -8ZM290 67Q310 67 322 80T341 121T347 189Q347 276 325 330T265 384Q237 384
222 350T206 254Q206 202 217 160T247 92T290 67ZM679 658L731 628Q715 567 682 534T604 501Q580 501 551 512T494 534T448 545Q431 545 416 535T387 499L335 529Q352 590 385 623T462 656Q487 656 516 645T572 623T617 612Q635 612 650 622T679 658Z" />
<glyph unicode="&#xf6;" horiz-adv-x="551" d="M279 -8Q207 -8 151 20T63 100T31 216Q31 294 67 347T162 427T284 454Q353 454 406 425T490 346T520 229Q520 162 488 109T401 24T279 -8ZM290 67Q310 67 322 80T341 121T347 189Q347 276 325 330T265 384Q237 384
222 350T206 254Q206 202 217 160T247 92T290 67ZM430 501Q389 501 368 525T347 578Q347 607 368 631T430 655Q470 655 491 631T512 578Q512 550 491 526T430 501ZM638 501Q596 501 575 525T554 578Q554 607 575 631T638 655Q677 655 698 631T719 578Q719 550 698
526T638 501Z" />
<glyph unicode="&#xf7;" horiz-adv-x="540" d="M487 306V205H53V306H487ZM264 9Q234 9 212 30T189 83Q189 115 211 138T264 162Q295 162 317 139T339 83Q339 52 317 31T264 9ZM264 350Q234 350 212 371T189 424Q189 456 211 479T264 502Q295 502 317 479T339 424Q339
393 317 372T264 350Z" />
<glyph unicode="&#xf8;" horiz-adv-x="551" d="M279 -8Q207 -8 151 20T63 100T31 216Q31 294 67 347T162 427T284 454Q353 454 406 425T490 346T520 229Q520 162 488 109T401 24T279 -8ZM290 67Q310 67 322 80T341 121T347 189Q347 276 325 330T265 384Q237 384
222 350T206 254Q206 202 217 160T247 92T290 67ZM376 -73L322 -40L690 519L744 486L376 -73Z" />
<glyph unicode="&#xf9;" horiz-adv-x="609" d="M536 103L604 90V40L410 -14L375 2L376 79L373 80Q345 28 309 9T236 -11Q160 -11 115 37T69 179V264Q69 289 69 306T66 335L-2 349V401L204 452L239 434Q237 405 235 358T233 265L232 197Q232 151 251 128T308 105Q325
105 342 114T371 143V219Q371 249 371 267T370 299T367 335L299 349V401L501 452L536 433Q534 425 533 406T532 355T532 279V193Q532 189 532 169T536 103ZM264 484L92 654L241 677L340 509L264 484Z" />
<glyph unicode="&#xfa;" horiz-adv-x="609" d="M536 103L604 90V40L410 -14L375 2L376 79L373 80Q345 28 309 9T236 -11Q160 -11 115 37T69 179V264Q69 289 69 306T66 335L-2 349V401L204 452L239 434Q237 405 235 358T233 265L232 197Q232 151 251 128T308 105Q325
105 342 114T371 143V219Q371 249 371 267T370 299T367 335L299 349V401L501 452L536 433Q534 425 533 406T532 355T532 279V193Q532 189 532 169T536 103ZM338 484L266 509L365 677L509 654L338 484Z" />
<glyph unicode="&#xfb;" horiz-adv-x="609" d="M536 103L604 90V40L410 -14L375 2L376 79L373 80Q345 28 309 9T236 -11Q160 -11 115 37T69 179V264Q69 289 69 306T66 335L-2 349V401L204 452L239 434Q237 405 235 358T233 265L232 197Q232 151 251 128T308 105Q325
105 342 114T371 143V219Q371 249 371 267T370 299T367 335L299 349V401L501 452L536 433Q534 425 533 406T532 355T532 279V193Q532 189 532 169T536 103ZM477 509L405 484L267 614H337L199 484L127 509L237 668H367L477 509Z" />
<glyph unicode="&#xfc;" horiz-adv-x="609" d="M536 103L604 90V40L410 -14L375 2L376 79L373 80Q345 28 309 9T236 -11Q160 -11 115 37T69 179V264Q69 289 69 306T66 335L-2 349V401L204 452L239 434Q237 405 235 358T233 265L232 197Q232 151 251 128T308 105Q325
105 342 114T371 143V219Q371 249 371 267T370 299T367 335L299 349V401L501 452L536 433Q534 425 533 406T532 355T532 279V193Q532 189 532 169T536 103ZM199 501Q158 501 137 525T116 578Q116 607 137 631T199 655Q239 655 260 631T281 578Q281 550 260 526T199
501ZM407 501Q365 501 344 525T323 578Q323 607 344 631T407 655Q446 655 467 631T488 578Q488 550 467 526T407 501Z" />
<glyph unicode="&#xfd;" horiz-adv-x="518" d="M229 -4L41 376L-6 394L-3 446H292L295 394L233 376L330 169L229 -4ZM524 446L527 394L480 376L303 38L224 -127Q195 -188 165 -208T102 -228Q62 -228 40 -209T18 -163Q18 -135 39 -114T103 -81L237 -45L157 -89L285
143L300 170L391 376L329 394L332 446H524ZM348 484L276 509L375 677L519 654L348 484Z" />
<glyph unicode="&#xfe;" horiz-adv-x="577" d="M4 -220L0 -168L62 -149Q64 -137 65 -105T68 -29T68 58L69 360Q68 395 68 426T67 485T66 538T63 584L-11 594L-13 645L208 700L239 680Q237 652 236 626T233 567T230 487T227 367L230 366Q249 405 286 429T363 454Q407
454 449 431T518 362T545 245Q545 181 515 124T426 30T285 -7Q268 -7 258 -5T231 1V-60Q231 -85 232 -112T235 -149L317 -168L314 -220H4ZM286 78Q321 78 346 104T372 207Q372 262 359 290T326 329T286 340Q272 340 256 332T231 312V92Q243 86 257 82T286 78Z"
/>
<glyph unicode="&#xff;" horiz-adv-x="518" d="M229 -4L41 376L-6 394L-3 446H292L295 394L233 376L330 169L229 -4ZM524 446L527 394L480 376L303 38L224 -127Q195 -188 165 -208T102 -228Q62 -228 40 -209T18 -163Q18 -135 39 -114T103 -81L237 -45L157 -89L285
143L300 170L391 376L329 394L332 446H524ZM209 501Q168 501 147 525T126 578Q126 607 147 631T209 655Q249 655 270 631T291 578Q291 550 270 526T209 501ZM417 501Q375 501 354 525T333 578Q333 607 354 631T417 655Q456 655 477 631T498 578Q498 550 477 526T417
501Z" />
<glyph unicode="&#x2013;" horiz-adv-x="500" d="M0 195V267H500V195H0Z" />
<glyph unicode="&#x2014;" horiz-adv-x="1000" d="M0 195V267H1000V195H0Z" />
<glyph unicode="&#x2018;" horiz-adv-x="329" d="M271 698L294 649Q224 620 199 589T174 524Q174 499 184 483T210 455T242 430T268 399T279 352Q279 309 248 280T169 251Q140 251 111 266T63 315T44 407Q44 470 67 524T141 622T271 698Z" />
<glyph unicode="&#x2019;" horiz-adv-x="329" d="M57 251L35 301Q105 330 130 361T155 426Q155 451 145 467T118 495T86 520T60 551T49 597Q49 640 81 669T160 698Q190 698 218 683T266 635T285 543Q285 480 262 426T188 328T57 251Z" />
<glyph unicode="&#x201a;" horiz-adv-x="329" d="M57 -233L35 -183Q105 -154 130 -123T155 -58Q155 -33 145 -17T118 11T86 36T60 67T49 113Q49 156 81 185T160 214Q190 214 218 199T266 151T285 59Q285 -4 262 -58T188 -156T57 -233Z" />
<glyph unicode="&#x201c;" horiz-adv-x="600" d="M542 698L565 649Q495 620 470 589T445 524Q445 499 455 483T481 455T513 430T539 399T550 352Q550 309 519 280T440 251Q411 251 382 266T334 315T315 407Q315 470 338 524T412 622T542 698ZM271 698L294 649Q224
620 199 589T174 524Q174 499 184 483T210 455T242 430T268 399T279 352Q279 309 248 280T169 251Q140 251 111 266T63 315T44 407Q44 470 67 524T141 622T271 698Z" />
<glyph unicode="&#x201d;" horiz-adv-x="600" d="M328 251L306 301Q376 330 401 361T426 426Q426 451 416 467T389 495T357 520T331 551T320 597Q320 640 352 669T431 698Q461 698 489 683T537 635T556 543Q556 480 533 426T459 328T328 251ZM57 251L35 301Q105
330 130 361T155 426Q155 451 145 467T118 495T86 520T60 551T49 597Q49 640 81 669T160 698Q190 698 218 683T266 635T285 543Q285 480 262 426T188 328T57 251Z" />
<glyph unicode="&#x201e;" horiz-adv-x="595" d="M323 -233L301 -183Q371 -154 396 -123T421 -58Q421 -33 411 -17T384 11T352 36T326 67T315 113Q315 156 347 185T426 214Q456 214 484 199T532 151T551 59Q551 -4 528 -58T454 -156T323 -233ZM57 -233L35 -183Q105
-154 130 -123T155 -58Q155 -33 145 -17T118 11T86 36T60 67T49 113Q49 156 81 185T160 214Q190 214 218 199T266 151T285 59Q285 -4 262 -58T188 -156T57 -233Z" />
<glyph unicode="&#x2022;" horiz-adv-x="420" d="M210 76Q168 76 133 96T76 150T55 227Q55 271 76 306T132 362T210 383Q253 383 288 362T344 306T365 227Q365 185 344 151T288 96T210 76Z" />
<glyph unicode="&#x2039;" horiz-adv-x="431" d="M366 391L206 186V264L366 59L323 14L72 197V254L323 436L366 391Z" />
<glyph unicode="&#x203a;" horiz-adv-x="431" d="M65 391L108 436L359 254V197L108 14L65 59L225 264V186L65 391Z" />
</font>
</defs>
</svg>
