<svg version="1" xmlns="http://www.w3.org/2000/svg" width="933.333" height="933.333" viewBox="0 0 700.000000 700.000000"><path d="M125.9.4c-.2.2-2.6.6-5.4 1C81.3 6.2 43 30.8 21.6 64.7 12.7 79 4.7 99 2.4 113c-.2 1.4-.8 5.2-1.3 8.5-.6 3.8-.9 90.6-.7 232 .2 225.1.2 226 2.3 235 10.2 43.9 35.8 77.1 74.9 96.8 10.2 5.2 20.5 8.8 33.7 12l9.2 2.1 225 .3c123.8.1 227.9-.2 231.5-.7 17.3-2.3 28.5-5.7 44.5-13.4 33.8-16.2 59.6-45.6 71.5-81.6 1.6-4.7 3.1-10.1 3.5-12 3.5-19.7 3.4-14.4 3.2-245.5-.1-123.8-.6-226.1-1-227.5-.8-2.8-1.4-6-2.2-10.7-1-6.1-6.7-21.8-11.1-30.8C665 36.6 627.3 9.1 581.5 1.6 573.8.3 540.7.1 349.4.1 226.7 0 126.1.2 125.9.4zm354.6 84.5c41.7 11 65.2 38.8 64.8 77.1-.3 43-32.8 77.4-78 82.7l-5.3.6v7.8c0 6.8-.3 8-2 8.9-1.9 1-2 .7-2.1-6.2-.1-4-.1-8 0-8.8.1-1.3-1.4-1.6-8.5-1.8-4.8-.1-9.9-.4-11.3-.6-14.4-2.3-19-3.1-28.1-5.3-13.4-3.1-26.4-6.8-52-15-32.2-10.2-38.5-12.1-55-16.8-16.5-4.6-32.4-8.3-39.9-9.1-2.5-.3-5.4-.7-6.3-1-1-.3-6.4-.5-12-.5-16.7 0-27.9 4.5-36.8 14.9-5.2 6-8 12.6-8.7 20.1-.5 5.7 1.2 16.8 2.9 18.9 2.6 3.1-.8 2.1-8.2-2.4-12.2-7.4-29.3-20.6-30.8-23.6-2.1-4.5-4.3-17.7-4.4-26.8 0-7.4.3-11.5 1.7-19 3.4-18.6 17.5-40.1 34.7-53.3 15.1-11.5 29.4-17.4 50.8-21.3 1.9-.3 9.1-.7 15.9-.8 27.1-.5 52.9 5.3 103.6 22.9 32.6 11.3 40.7 13.9 54 16.9 10.4 2.3 13 2.7 25.1 3.3 9.1.4 12.1.2 16.5-1.2 13.6-4.5 21.8-14.3 22.4-26.8 1-20.1-14.3-32.2-40-31.5-8.2.2-10 0-10-1.2 0-4.1 32.6-4.9 47-1.1zM325.8 221.2c-.2.7-1.7 2-3.4 2.8-31.2 16.3-56.3 44.3-69.3 77.8L251 307l3.3-1.4c1.7-.7 16.5-7.3 32.7-14.6 16.2-7.3 39.9-17.8 52.5-23.5 12.7-5.7 25.5-11.4 28.5-12.8 8.7-4 17.2-7.7 17.6-7.7.2 0 .4 4 .4 8.9v8.9l-7 6.3c-3.8 3.5-7 6.7-7 7.2s3.2 4.5 7 8.8l7 8V313.8l-5.7 4.1c-3.2 2.3-6.2 4.1-6.8 4.1-.5 0-2-1.5-3.2-3.3-1.3-1.7-3.8-5-5.7-7.2l-3.4-4-4.5 3.3c-2.5 1.7-4.9 3.2-5.3 3.2-.4 0-3.9-2.8-7.8-6.2-3.9-3.4-7.8-6.8-8.6-7.5-1.6-1.3-2.4-.6-25.9 21.3l-5.5 5.1-3.7-5.7c-2-3.2-4.2-6.1-4.8-6.5-.7-.4-1.1-3.4-1-7.8 0-4 .1-8.9 0-10.9l-.1-3.8-5.7 2.6c-6.7 3-11.3 5-27.2 12-11.1 4.8-11.7 5.2-13 9-1.1 3.1-2.8 4.9-7.8 8.3l-6.5 4.2-3.6-4.1c-6.7-7.9-17-16.6-21.6-18.3-1.6-.6 1.3-3.8 17-19.2l18.8-18.5-4.8-4.9-4.8-4.9 8.4-4.9c23.3-14 42.6-22.4 68.8-29.8 13.1-3.8 14.3-4 13.8-2.3zm-139.3 35.5c5.8 3.6 20.4 11 25.5 12.8 3.4 1.3 3.6 1.2 7.7-2.8l4.3-4.1 2.5 2.4 2.6 2.4-21.1 21.1-21 21 5.1 1.2c13.4 3.2 29.6 16.8 36.3 30.4 4.8 9.9 6.6 17.6 6.7 28.4.5 51.5-57.6 90.8-111.6 75.5-23.4-6.6-43.5-23.2-53.9-44.5-6.9-14.3-9-23.4-8.9-40 0-15.4 1.5-23 7.3-36.8 12.3-29.7 42.4-52.7 75-57.4 3-.4 12.9-7.4 21.3-14.8.7-.6 2.5-2 4-3.2l2.9-2.2 5.1 3.7c2.9 2.1 7.5 5.2 10.2 6.9zm315.5 74v81.7l4.7 4.8 4.6 4.7 3.7-2.9c3.6-2.8 3.8-2.9 5.4-1.1.9.9 1.6 2 1.6 2.3 0 .8-29.7 21.8-30.8 21.8-.8 0-1.8-.7-8.2-6.3-14.1-12.3-18.2-15.7-18.8-15.7-.4 0-2.4 1.1-4.4 2.5-2 1.4-4.2 2.5-4.7 2.5-.9 0-3.1-3.1-3.1-4.3 0-.3 3.6-2.8 8-5.6 6-3.9 8-5.7 8-7.4.6-28.4-.1-115.9-.9-117.8-1-2.8-5.1-6.2-8.8-7.3-5.2-1.6-2.6-4.2 18.4-19 12.2-8.6 21.6-14.6 23-14.6h2.3v81.7zm43-70.7c.3.3 3.9 3.4 8 7s7.7 6.7 8 7c.3.3 5.9 5.2 12.5 11s12.2 10.7 12.5 11c1.9 2.1 39.9 35 40.3 35 .3 0 2.4-1.6 4.8-3.6l4.3-3.6 2.2 2.8 2.2 2.7-5.4 4.5-5.4 4.4v71.4L604.5 424c-13.5 8-25.9 15.3-27.6 16.2l-3 1.8-9.7-6.5c-5.3-3.6-13.5-9.1-18.2-12.3l-8.5-5.9V379c0-24.8.3-38.7 1-39.5.5-.7 7.5-5.2 15.4-10l14.4-8.9-2.3-1.8c-1.3-1-6.1-5.3-10.7-9.5-10.7-9.8-11.1-10.1-13.8-9.5l-2.3.4v-22.7l-.1-22.7 2.7 2.3c1.5 1.3 2.9 2.6 3.2 2.9zm-124.1 9.6c11.1 12.2 11.3 12.6 9.4 14.5-3.8 3.7-21.8 18.9-22.3 18.9-.9 0-20.5-22.8-20.5-23.8 0-.5 4.3-4.6 9.5-9.2s10.4-9.2 11.5-10.3c2-1.8 2.1-1.8 4.9 1.5 1.6 1.8 5 5.6 7.5 8.4zm-3.5 56.2l8.6 10.3V412.4l3.7 3.8c2 2.1 4.1 3.8 4.7 3.8.5 0 3.1-1.4 5.7-3.1 3.8-2.4 5.2-2.8 6.7-2 5 2.7 4.6 3.5-5.9 10.7-5.5 3.8-13.3 9.3-17.5 12.1-4.1 2.9-7.7 5.3-8 5.3-1 0-9.1-7-20.6-17.8l-3.7-3.5-3.3 2.5c-5.2 3.9-5.5 3.9-7.2 1.4-1.5-2.4-1.5-2.5 6.3-7.9l7.8-5.5-.1-33.5-.1-33.4-3.9-4.9c-2.2-2.7-4.1-5-4.2-5.2-.1-.2-2.4 1-5 2.7l-4.9 3-1.7-2.2c-.9-1.2-1.4-2.5-1-2.9.4-.4 7.9-5.6 16.7-11.7 12-8.2 16.3-10.6 17.1-9.8.6.7 5 5.8 9.8 11.5zm-138.7-10.3c4.4 2.2 10.9 8.7 13.2 13.3 3.1 6.2 3.6 12.2 3.6 45.5l-.1 30.8 7.8 7.5 7.8 7.5 6-4.3 6-4.2v-64.5l-6.5-5.7-6.5-5.8 3.2-2.9c1.8-1.6 6.2-5.7 9.8-9.1 11.8-11 9.6-10.7 18.9-2.6 4.5 3.8 8.5 7 8.7 7 .3 0 2-1.1 3.8-2.5 3.9-3 4.8-3.1 7-.6 1.6 1.8 1.5 2.1-3.8 6.2l-5.4 4.3v37.9c0 21 .5 39.6 1 41.7.6 2.1 2.1 4.8 3.4 6.1l2.4 2.2 4.7-3.7 4.7-3.6 2.2 2.7c1.3 1.6 1.9 3.2 1.4 3.8-.5.5-7.3 5.4-15.3 10.8l-14.5 9.9-4.3-1.9c-7.9-3.5-13.9-12.2-13.9-20.1 0-1.3-.4-2.2-.9-2-.6.1-7.4 5.3-15.3 11.4-7.9 6.1-14.8 11.4-15.5 11.7-.7.4-8-5.1-18-13.4-9.2-7.8-16.9-14.3-17.1-14.4-.1-.1 1.6-1.5 3.8-3l4-2.8v-32.9c0-27.4-.3-33.4-1.5-35.8-2.7-5.3-8.4-6.7-14.4-3.6-2.9 1.6-3.5 1.6-4.8.3-1.5-1.5.6-3.1 24.6-18.4 3.6-2.3 6.6-4.2 6.7-4.2 0-.1 1.4.6 3.1 1.4zm-37.1 98c-1.5 1.1-1.4 1.4.8 2.8 1.6 1.1 2.8 3.3 3.6 6.8 1.5 6.3 8.1 23.3 11.2 29.1 14.9 27.4 36.8 46.6 66.9 58.5 11.4 4.5 11 4.4 24.9 7.2 15.4 3.1 17.7 3.3 36 3.6 15.8.2 22-.1 35.9-2 7.6-1 22.6-4.5 29.8-6.9l6.8-2.3.2-36.7c.1-34.3.3-36.9 2-38.1 1.7-1.3 1.8.1 2.3 36.1l.5 37.4 10.5-5.3c24.4-12.4 39-24.6 58.9-49.2 2.4-3 8.6-12.5 10.4-16.2l1.7-3.2 5.9 3.9c4.2 2.8 5.9 4.5 5.7 5.7-.2 1-.7 3.8-1 6.3-2.1 15-6.8 32.6-13.6 50.9-2.8 7.3-11.1 23.2-16.4 31.4-23.6 36.2-58.4 60.8-102.3 72.2-5.4 1.4-11.8 2.8-14.3 3.1-2.5.3-6.4 1-8.6 1.5-12 2.6-57.5 2.9-66.4.4-.8-.2-3.7-.6-6.5-1-9.6-1.2-24.1-4.7-37.4-9.1-64-21.2-112.2-68.1-132-128.3-1.7-5.1-3.1-10.1-3.1-11 0-1.3 1.7-1.9 8-2.9 33.2-4.8 61.4-24.5 76.1-53.2l3.4-6.5.9 6.9c.7 6 .6 7.1-.8 8.1zM375 435.7c.1.5 1.3 2.3 2.9 4.1l2.8 3.2 2.7-2.1 2.7-2.1-.3 7.3-.3 7.4-19 8.3c-10.4 4.7-31 13.7-45.7 20.2l-26.7 11.8v-19.3l.1-19.3 11.5-9.1 11.5-9.1 2.7 3.7c5.1 7 12.5 11.5 21.1 12.8 4.5.7 4.7.5 18.5-8.9 13.7-9.4 15.5-10.4 15.5-8.9z"/><path d="M144.3 306.1v35l4.7-4.6c2.5-2.5 12.7-12.5 22.5-22.1 10.1-9.9 17.4-17.8 16.9-18.3s-4.7-2.8-9.4-5.2c-9.2-4.7-24.3-13.9-24.8-15.1-.2-.5-.8-.8-1.4-.8-.5 0-2.1-.9-3.5-2-5.1-4-5-4.5-5 33.1zM107.2 290.2c-9.3 12-12.3 24.7-11.7 48.3.4 16.8.5 17.5 3.5 35 2.5 14 3.3 16.6 4.5 15.7 2-1.4 4.4-6 6.1-11.8 1.6-5.2 1.8-10.9 1.9-48.7.1-23.5-.1-42.7-.5-42.7-.3 0-2 1.9-3.8 4.2zM165 354.5v18.6l14-7.2c7.7-3.9 14-7.6 14-8.1s-3.3-4.1-7.3-8.1c-6.3-6.2-10.1-8.8-19.9-13.5-.5-.2-.8 8.1-.8 18.3zM150.4 345.5l-6.1 6.2-.2 6.4c-.3 13.6-3.4 21.4-12.1 30.1-5.4 5.3-11.7 9.1-22.8 13.4-2.2.9-2.2.9 2.3 8.6 9.6 16.4 27.8 28.8 42.4 28.8h3.6v-49.4c0-27.2-.2-49.6-.5-49.9-.3-.2-3.3 2.4-6.6 5.8zM194.5 365.9c-.6.5-7.4 4.2-15.2 8.1l-14.3 7.1v9c0 4.9.3 8.9.6 8.9 1.8 0 36.4-18.4 36.4-19.3 0-.7-1-4.2-2.2-8-2.1-6.4-3.3-7.8-5.3-5.8zM183.5 398.3l-18 9.2-.3 15.7-.3 15.7 5.7-1.9c15-5.2 26.2-17.2 30.6-32.9 1.8-6.6 2.4-15.1 1.1-15.1-.5.1-8.9 4.2-18.8 9.3zM570.2 363.5l.3 40.8 12.5 8.8c6.9 4.8 12.8 8.8 13.1 8.9.4 0 .7-17 .7-37.8l-.1-37.7-6.9-6c-3.8-3.3-8.6-7.6-10.6-9.5-2-1.9-4.9-4.6-6.5-5.9l-2.7-2.5.2 40.9z"/></svg>